<svg id="Empty_state_of_new_collection" data-name="Empty state of new collection" xmlns="http://www.w3.org/2000/svg" xmlns:xlink="http://www.w3.org/1999/xlink" width="217.706" height="168.656" viewBox="0 0 217.706 168.656">
  <defs>
    <clipPath id="clip-path">
      <rect id="Rectangle_7713" data-name="Rectangle 7713" width="217.706" height="168.656" fill="none"/>
    </clipPath>
    <clipPath id="clip-path-3">
      <rect id="Rectangle_7706" data-name="Rectangle 7706" width="155.881" height="167.259" fill="none"/>
    </clipPath>
    <clipPath id="clip-path-4">
      <rect id="Rectangle_7707" data-name="Rectangle 7707" width="27.853" height="27.877" fill="none"/>
    </clipPath>
    <clipPath id="clip-path-5">
      <rect id="Rectangle_7708" data-name="Rectangle 7708" width="16.047" height="49.991" fill="none"/>
    </clipPath>
    <clipPath id="clip-path-6">
      <rect id="Rectangle_7709" data-name="Rectangle 7709" width="74.797" height="153.579" fill="none"/>
    </clipPath>
    <clipPath id="clip-path-8">
      <rect id="Rectangle_7711" data-name="Rectangle 7711" width="75.431" height="150.859" fill="none"/>
    </clipPath>
  </defs>
  <g id="Group_18943" data-name="Group 18943" clip-path="url(#clip-path)">
    <g id="Group_18937" data-name="Group 18937">
      <g id="Group_18936" data-name="Group 18936" clip-path="url(#clip-path)">
        <path id="Path_29847" data-name="Path 29847" d="M334.314,715.285a2.659,2.659,0,1,1-2.659-2.659,2.659,2.659,0,0,1,2.659,2.659" transform="translate(-305.876 -662.547)" fill="#d6f4f4"/>
        <path id="Path_29848" data-name="Path 29848" d="M217.706,114.832a75.38,75.38,0,0,1-16.622,47.308c-17.962,3.064-52.448,5.138-92.041,5.138q-2.493,0-4.957-.011l-1.551-.008q-3.018-.018-5.99-.052-4.123-.046-8.144-.122l-1-.019q-.434-.455-.861-.917-2.51-2.713-4.748-5.665l-.019-.025q-2.149-2.837-4.033-5.877a47.084,47.084,0,0,1-26.92,11.03q-1.773.133-3.581.134a47.035,47.035,0,0,1-27.169-8.589q-.229-.161-.456-.325a47.3,47.3,0,0,1-19.6-37.139Q0,119.1,0,118.5q0-.558.014-1.113A47.259,47.259,0,0,1,29.524,74.7,75.312,75.312,0,0,1,47.257,26.956q.789-.94,1.61-1.853a76.176,76.176,0,0,1,6.965-6.819A75.3,75.3,0,0,1,101.05.109Q103.082,0,105.14,0A76.161,76.161,0,0,1,117.5,1.006a75.08,75.08,0,0,1,14.808,4.023,75.881,75.881,0,0,1,40.27,36.354q1.339,2.63,2.474,5.376a75.725,75.725,0,0,1,42.649,68.073" fill="#d6f4f4"/>
        <path id="Path_29849" data-name="Path 29849" d="M247.738,898.773a4.971,4.971,0,1,1-4.971-4.971,4.971,4.971,0,0,1,4.971,4.971" transform="translate(-221.085 -830.991)" fill="#d6f4f4"/>
        <g id="Group_18926" data-name="Group 18926" transform="translate(0.014)" opacity="0.3">
          <g id="Group_18925" data-name="Group 18925">
            <g id="Group_18924" data-name="Group 18924" clip-path="url(#clip-path-3)">
              <path id="Path_29850" data-name="Path 29850" d="M156.078,79.331a98.622,98.622,0,0,1-15.518,53.262,99.531,99.531,0,0,1-37.842,34.665q-3.018-.018-5.99-.051-4.122-.046-8.144-.122-.53-.668-1.046-1.348-2.3-3.031-4.308-6.278-.618.523-1.252,1.026l-.019-.025q-2.149-2.838-4.033-5.877a47.084,47.084,0,0,1-26.92,11.03q-1.773.133-3.58.134a47.037,47.037,0,0,1-27.169-8.589q-.229-.161-.456-.325A47.3,47.3,0,0,1,.2,119.692q.028-1.146,0-2.3A47.259,47.259,0,0,1,29.707,74.7,75.312,75.312,0,0,1,47.44,26.956q.871-.921,1.61-1.853a76.176,76.176,0,0,1,6.965-6.819A75.3,75.3,0,0,1,101.233.109Q103.265,0,105.323,0a76.153,76.153,0,0,1,12.364,1.006,99.661,99.661,0,0,1,15.149,14.56q2.1,2.488,4.025,5.113A98.553,98.553,0,0,1,154.835,63.6a99.751,99.751,0,0,1,1.243,15.736" transform="translate(-0.197 0)" fill="#fff"/>
            </g>
          </g>
        </g>
        <path id="Path_29851" data-name="Path 29851" d="M2547.51,503.72a4.972,4.972,0,1,1,1.451-6.879,4.946,4.946,0,0,1-1.451,6.879" transform="translate(-2361.343 -459.827)" fill="#d6f4f4"/>
        <path id="Path_29852" data-name="Path 29852" d="M2707.987,661.054a2.659,2.659,0,1,1-2.659-2.659,2.659,2.659,0,0,1,2.659,2.659" transform="translate(-2512.743 -612.127)" fill="#d6f4f4"/>
        <path id="Path_29853" data-name="Path 29853" d="M270.1,2075.264c0,1.756-4.786,3.407-13.189,4.841-17.962,3.064-52.448,5.138-92.041,5.138q-2.493,0-4.957-.011-3.807-.018-7.54-.06-4.635-.052-9.142-.141c-13.286-.263-25.652-.764-36.581-1.454-5.087-.321-9.862-.683-14.274-1.081q-2.254-.2-4.38-.419-.789-.079-1.56-.162l-.384-.041-.144-.015-.362-.039q-.721-.077-1.425-.158l-.562-.064-.715-.083-.506-.06-.432-.052-.615-.075-.019,0q-1.061-.133-2.078-.267l-.212-.028-.211-.029-.42-.057-.8-.111-.644-.091-.317-.046-.279-.042-.677-.1-.11-.017-.358-.054q-.466-.071-.919-.145l-.244-.04-.186-.03-.463-.076-.085-.014-.134-.023-.434-.074-.427-.074-.353-.063-.276-.049-.207-.038-.205-.038q-.509-.093-1-.189l-.34-.067-.43-.086-.56-.116-.4-.085-.181-.04c-.1-.021-.2-.043-.294-.065q-.546-.121-1.058-.244l-.17-.041-.168-.042-.253-.063-.206-.052-.116-.029-.346-.091-.3-.081q-.517-.142-.991-.285A16.538,16.538,0,0,1,61,2076.873a4.348,4.348,0,0,1-.873-.644c-.028-.027-.055-.055-.083-.084s-.065-.072-.095-.109c-.015-.018-.028-.035-.042-.054h0c-.017-.023-.033-.045-.048-.068a1.131,1.131,0,0,1-.065-.1c-.019-.034-.037-.069-.053-.1l-.012-.028c0-.009-.009-.018-.012-.027s-.012-.032-.017-.048,0,0,0-.006-.01-.029-.014-.044a.65.65,0,0,1-.018-.069.169.169,0,0,1-.008-.035.012.012,0,0,1,0-.005.085.085,0,0,1,0-.013l0-.013c0-.025-.007-.048-.008-.073s0-.054,0-.081,0-.043,0-.065,0-.035,0-.052h0a.159.159,0,0,1,0-.028.027.027,0,0,1,0-.008.068.068,0,0,1,0-.013c0-.009,0-.019.005-.029s.007-.035.012-.052a.326.326,0,0,1,.01-.037c0-.006,0-.013.005-.02s.011-.035.018-.051,0,0,0,0c.006-.018.012-.034.02-.052.015-.038.033-.075.052-.115.011-.021.024-.044.036-.066l.041-.067a1.91,1.91,0,0,1,.146-.2l.056-.068.062-.068h0l.056-.058.071-.071h0c.051-.049.107-.1.165-.149s.1-.084.152-.126c.022-.017.045-.034.068-.053.046-.034.094-.07.143-.1.122-.088.255-.176.4-.265l.113-.071c.039-.024.078-.048.118-.07l.122-.072.031-.017.031-.018c.02-.012.042-.024.063-.034.084-.048.173-.094.263-.142l.131-.067.215-.108.226-.108.114-.054.234-.107.121-.054c.1-.044.2-.088.3-.131.039-.018.079-.034.119-.05l.194-.081.161-.066.074-.029.074-.03.058-.021.059-.023.154-.061.4-.151c.137-.049.275-.1.417-.151l.205-.072.076-.027.076-.027.192-.066.2-.066.2-.066.2-.066.229-.074h0c.154-.049.311-.1.47-.149l.485-.149.5-.148h0c.085-.026.169-.051.255-.075l.114-.032.115-.033c.084-.025.169-.048.254-.072l.108-.031.107-.03.274-.074c.068-.02.137-.038.206-.057l.148-.041.148-.041.2-.052.2-.052L70,2070.2c.242-.064.487-.126.736-.191l.262-.066q.542-.136,1.109-.272l.667-.158.224-.053.262-.06h0l.529-.121.269-.061.142-.031.071-.016.071-.016.181-.04.184-.041.787-.17.045-.01c.193-.041.387-.082.582-.122l.347-.072q.781-.163,1.6-.323l.052-.009.112-.023.164-.031,1-.192.168-.031.169-.032.339-.063.343-.064q1.081-.2,2.21-.4l.378-.065.379-.065.588-.1.369-.062.371-.061c.123-.021.248-.041.373-.062.21-.035.421-.07.634-.1l.417-.068.424-.068.213-.033.214-.034.387-.06.39-.061.784-.119.4-.06.4-.06.3-.044.3-.045c.2-.031.4-.06.608-.089l.944-.135.325-.045.321-.046h0l.788-.109.973-.133.491-.065.99-.131.5-.065.754-.1.761-.1,1.023-.128.244-.03.246-.03.493-.059c.165-.019.33-.04.5-.059l.5-.06.254-.029.255-.03.686-.08.691-.078q1.682-.19,3.414-.371l.715-.075.337-.035.168-.017.168-.018.265-.026.265-.027,1.068-.106.484-.048.026,0,.026,0,.174-.017.174-.017.349-.033q1.274-.122,2.57-.239c.277-.026.557-.051.838-.075l1.05-.092,1.057-.091.479-.04.482-.041,1.7-.137.572-.046.286-.021.287-.022q.688-.053,1.378-.1l.264-.02.263-.02.265-.019.265-.019,1.667-.12.559-.038.851-.058c.113-.009.224-.015.337-.022s.223-.015.335-.021l.542-.035.544-.035,1.083-.069h0l1.089-.067q.832-.051,1.67-.1l1.109-.062.291-.016.292-.016.585-.031,1.56-.082.072,0q1.128-.057,2.265-.111l1.061-.049.65-.029.861-.036.862-.037.5-.02.5-.021q.652-.025,1.309-.049l.291-.01.29-.011.158-.005c.336-.013.673-.024,1.01-.036l1.759-.058.588-.018,1.5-.044,1.083-.028.184,0,.2-.005c.055,0,.108,0,.161,0l.791-.019.517-.012.518-.011c.611-.014,1.222-.025,1.836-.038h0q1.2-.023,2.4-.041l.127,0,1.09-.016,1.216-.015.784-.008.19,0,.978-.009c.326,0,.651,0,.978-.006l.917-.007.986,0q.763,0,1.531,0h.507l1.607,0,1.285,0h.2q.648,0,1.294.009l1.342.011h.17l1.391.015,1.443.019,1.438.023,1.432.025,1.222.024,1.219.027.81.019.808.02.58.015.126,0,.1,0,.394.01.489.014.722.021.352.01.377.012.1,0h.024l.1,0,.542.018.1,0,.162.005.728.023.349.012.241.009.108,0,.366.013.426.015.32.011.075,0,.328.011.084,0,.412.015h.028l.442.016.673.027.378.015.4.016.35.015.43.019.906.039.648.029.358.016h.033l.336.015.678.032h.021l.887.043.219.011h.005l.213.01.105.005.626.032.36.018.071,0,1.052.056.4.021.651.036.106.005h.028l.461.026.448.025.463.026.326.019.248.015.279.017.715.043,1.448.09.033,0,.032,0,.661.042.1.006.712.047.732.049c.16.01.319.021.477.032l.135.009.117.008.726.051.2.014.281.02c.081.005.163.011.243.018l.114.008.113.008.217.015.121.009.157.011.306.022h0l.193.015.467.034.465.035.058,0h.021l.2.015.436.033.568.044.58.046.161.013.091.007h.015l.28.023.576.047.546.044.7.058.694.058c.443.038.883.075,1.321.115l.9.079.893.081.887.081.748.07,1.328.127.551.054.136.013q.8.078,1.587.16l.642.066.638.067.293.031.087.009.2.021.274.029.409.045.285.031.343.038.624.068.622.069.617.07.364.042.363.042.711.083q1.415.166,2.791.336h0l.266.033.32.04.58.074.3.038.14.018.6.078.267.035.43.057.571.075q1.137.153,2.244.308l1.1.156.543.078.54.079,1.067.16.182.027.323.05.547.084.519.081.516.081.064.01.574.091.349.057.033.005.5.082q.962.158,1.893.318l.268.047.291.05.145.025.307.053.087.016.086.015.486.087.815.147.269.05.3.056q.717.133,1.411.267l.232.045.438.086q.6.118,1.182.237l.578.119.774.163.632.136.275.06q.548.12,1.076.24,2.322.529,4.29,1.064,1.4.379,2.6.76c4.527,1.425,7.009,2.837,7.009,4.1" transform="translate(-55.452 -1916.587)" fill="#5ca6b1"/>
        <path id="Path_29854" data-name="Path 29854" d="M319.5,2069.34c-2.171,2.144-7.291,4.39-15.763,6.5q-1.4.349-2.921.691c-15.183,3.421-39.589,6.4-75.029,7.856l-1.4.056-1.042.041c-2.59.1-5.14.471-7.676.69q-4.635-.052-9.142-.141c-13.286-.263-25.652-.764-36.581-1.454-5.087-.321-9.862-.683-14.274-1.081q-2.254-.2-4.38-.419-.79-.079-1.561-.162l-.384-.041-.144-.015-.362-.039q-.722-.077-1.425-.158l-.562-.064-.715-.083-.506-.06-.432-.052-.615-.075-.019,0q-1.173-.145-2.29-.295-1.063-.141-2.074-.287l-.317-.046q-.484-.07-.956-.142l-.11-.017-.358-.055q-.466-.071-.919-.144l-.43-.07-.463-.076-.22-.037-.434-.074-.427-.074-.353-.063-.276-.049-.207-.038-.205-.038q-.509-.093-1-.189l-.34-.067-.429-.086q-.285-.057-.56-.116l-.4-.084-.475-.1q-.546-.121-1.058-.244l-.17-.041q-.381-.092-.743-.186l-.346-.091-.3-.081q-.518-.142-.991-.285,1.365-.494,2.9-1h0q2.017-.667,4.314-1.355,1.359-.406,2.811-.814h0q.491-.139.994-.278,1.864-.517,3.869-1.039a473.652,473.652,0,0,1,54.486-10.237h0c5.039-.673,10.224-1.3,15.526-1.871h.011c.055,0,.108,0,.161,0,.264-.006.527-.014.791-.019l.517-.012.221-.005.3-.006c.611-.014,1.222-.025,1.836-.038h0q1.2-.023,2.4-.042H219c.363-.007.725-.012,1.09-.016l1.216-.015.784-.008h.19l.978-.009c.326,0,.651,0,.978-.006l.917-.007.986,0q.763,0,1.531,0h.507l1.607,0,1.285,0h.2l1.294.009,1.342.011h.17q1.422.014,2.834.034,2.058.029,4.092.072,1.425.029,2.836.066l.58.015.126,0,.495.013.489.014.722.021.352.01.479.015h.024l.1,0,.645.021.162.005.729.024.348.012.241.008.108,0,.366.013.426.015.32.011.074,0,.328.011.066,0,.128,0,.31.011h.005l.456.017.673.027.782.031.35.014.43.019.906.039.648.029.358.016h.033l.336.015.678.032h.021l.887.043.219.011h.005l.541.028.4.02.36.019,1.123.059.4.021.651.036.106.005h.028l.461.026.448.025.463.026.326.019.248.015.279.017.715.043,1.448.09.033,0,.693.044.1.006.711.047.732.049.477.032.135.009.118.008.925.065.281.02c.081.005.163.011.243.018l.114.008.451.032.157.012.306.022h0l.377.028.283.021.465.035.058,0h.022l.2.015,1.583.123.161.013.091.007.3.024.576.047.546.045.7.058.694.058c.443.038.883.074,1.321.115l.9.079.893.081.887.082.748.07,1.328.128.551.054q.867.085,1.723.173l.642.066.638.067.293.031.087.009.887.094.285.031.967.106.622.069.617.07.364.042.363.042.712.083q1.415.166,2.791.336l.27.034.32.04.877.112.14.018.6.078.267.035,1,.132q1.138.153,2.244.308l1.1.156,1.083.157,1.067.16,1.052.16.519.081.516.082.064.01.923.147.033.006.5.082q.962.158,1.893.318l.559.1.145.025.394.069.086.015.486.087.815.148c.192.035.383.07.573.106q.717.133,1.411.267.946.183,1.852.368c.194.039.387.079.578.119.261.054.519.108.775.163l.632.136.275.06q.547.12,1.076.24" transform="translate(-118.75 -1916.588)" fill="#7ebac4"/>
        <path id="Path_29855" data-name="Path 29855" d="M224.944,2068.6c0,5.511-47.113,9.979-105.23,9.979-19.073,0-36.959-.481-52.385-1.323q-2.867-.156-5.617-.329a2.477,2.477,0,0,1-1.579-.688c-.028-.027-.056-.056-.083-.085s-.065-.072-.094-.109l-.042-.054h0c-.017-.023-.033-.045-.048-.068a1.078,1.078,0,0,1-.064-.1c-.019-.034-.037-.069-.053-.1-.008-.018-.017-.036-.024-.055s-.014-.032-.018-.048,0,0,0-.007a.422.422,0,0,1-.014-.044.522.522,0,0,1-.018-.069.243.243,0,0,1-.007-.035.013.013,0,0,1,0-.005.133.133,0,0,1,0-.027.941.941,0,0,1-.013-.154c0-.021,0-.043,0-.065s0-.035,0-.052h0a.2.2,0,0,1,.006-.035.079.079,0,0,1,0-.014.159.159,0,0,1,.006-.028.489.489,0,0,1,.011-.052c0-.012.006-.025.01-.036l.006-.02c.005-.017.011-.035.017-.051a0,0,0,0,1,0,0c.006-.018.013-.035.02-.052.015-.038.033-.076.052-.115.011-.022.024-.044.037-.067l.04-.067a2.1,2.1,0,0,1,.146-.2l.056-.068c.02-.023.04-.045.062-.068h0l.056-.059.071-.07c.052-.049.107-.1.165-.15s.1-.084.153-.126l.067-.053c.046-.035.093-.07.143-.1.122-.088.255-.176.4-.265l.113-.07c.039-.024.078-.048.118-.07s.08-.048.122-.071l.062-.035.063-.035c.085-.047.173-.094.263-.142l.131-.068.215-.109c.074-.036.149-.072.226-.108l.114-.054.234-.107.121-.054c.1-.044.2-.088.3-.131l.119-.05.195-.081.162-.066.147-.059.058-.023L64,2072.1l.154-.06.4-.151.417-.151.206-.072.152-.053c.064-.023.128-.044.193-.066.129-.045.26-.089.393-.132.067-.023.133-.044.2-.066l.228-.075h0c.154-.049.311-.1.47-.149s.321-.1.485-.149l.5-.149h0l.256-.074c.075-.023.153-.044.229-.066l.254-.073.215-.059.274-.076c.069-.02.137-.038.207-.057l.3-.08.394-.1.819-.212.261-.066q.543-.135,1.109-.272.44-.105.892-.21.521-.122,1.06-.242l.142-.032.143-.031.182-.041.184-.04c.26-.058.522-.113.787-.17l.046-.01.582-.123.347-.072q.783-.161,1.6-.322l.164-.033.164-.032,1-.192.337-.063.339-.064.343-.064q1.081-.2,2.211-.4l.758-.13.586-.1.369-.062c.123-.02.248-.042.371-.061l.374-.062.634-.1.417-.068.424-.068.427-.067.386-.061.39-.06.785-.12.8-.119.6-.09.608-.089.945-.135.65-.091.787-.11.974-.133.491-.066.99-.131.5-.065q.751-.1,1.515-.192l1.023-.127.491-.059.493-.06.5-.058.5-.06.254-.029.255-.029.686-.08.692-.078q1.681-.19,3.414-.372l.714-.075.336-.035.337-.034.265-.026.265-.027,1.068-.106.484-.048.026,0,.026,0,.348-.035.35-.033q1.273-.122,2.57-.239l.838-.075,1.051-.092c.351-.031.7-.06,1.057-.09l.961-.081,1.7-.138.572-.045.574-.045,1.379-.1.528-.039.264-.02.265-.019q1.107-.081,2.226-.157l.85-.058.336-.023c.111-.008.223-.016.335-.022l.542-.036.544-.035,1.082-.069h0l1.089-.067q.832-.051,1.67-.1l1.11-.062.291-.016.876-.048,1.56-.081.072,0q1.128-.057,2.265-.111c.569-.026,1.138-.052,1.711-.077l1.724-.073,1.006-.04,1.308-.049.291-.011.291-.011.157-.005c.336-.013.673-.024,1.01-.036l1.759-.058.588-.018,1.5-.044,1.083-.028.369-.009h.012l.16,0,.791-.019,1.035-.024q.915-.021,1.836-.038h0q1.2-.023,2.4-.042l1.217-.017L158,2061.5l.785-.008.19,0,.977-.009.978-.007q.95-.007,1.9-.01,1.016,0,2.038,0,5.883,0,11.6.11,1.225.023,2.441.051l.81.019.807.02.807.021,1.605.046.352.01.376.012.127,0,.64.02.1,0,1.589.053.365.013.427.016.788.029.429.016.027,0c.148,0,.3.01.442.016l.673.026.378.016.4.016.35.015.43.018.905.039.648.029.391.017.336.016.678.032.907.044.765.038.4.02.361.018.07,0,1.052.056.4.022.65.036.106.006.027,0,.461.026.448.026.463.026.325.019.249.015.278.016.715.043,1.448.09.065,0,.661.042.1.006.712.047.732.049.478.032.135.009.117.008.726.05.48.035.243.017.721.052.306.022.2.015.185.013.747.057.057,0,.153.011.5.038.567.044.58.046.162.013.091.007h.016l.857.07.546.045.7.058.694.058c6.715,1.753,10.481,3.534,10.481,5.092" transform="translate(-55.454 -1916.597)" fill="#91d1d1"/>
        <path id="Path_29856" data-name="Path 29856" d="M142.5,2076.526c0,2.86-6.149,5.438-16,7.257A201.755,201.755,0,0,1,91.48,2086.5c-3.073,0-6.084-.053-9.006-.155-5.028-.175-9.8-.5-14.2-.936.052-.049.107-.1.165-.15s.1-.084.152-.126c.022-.017.045-.035.068-.053.046-.034.094-.07.143-.1.122-.088.255-.176.4-.265l.113-.071c.039-.024.078-.048.118-.07s.08-.048.122-.071l.062-.035c.02-.012.042-.024.063-.035.085-.048.173-.094.263-.142l.131-.068.215-.108.226-.108.114-.054.234-.107.121-.054c.1-.044.2-.088.3-.131.039-.018.079-.034.119-.05l.194-.081.161-.066.148-.058.058-.022.059-.023.154-.061.4-.151c.137-.049.275-.1.417-.151l.205-.072c.05-.019.1-.035.152-.053s.128-.044.192-.065c.129-.045.26-.09.393-.133.066-.023.133-.044.2-.065l.228-.075h0c.154-.049.311-.1.47-.149l.485-.149.5-.148h0l.256-.074.229-.065.254-.073.214-.06.274-.075.206-.057.3-.081.393-.1c.269-.071.541-.141.818-.212l.262-.066c.361-.091.731-.181,1.109-.272.294-.071.59-.141.893-.211q.52-.121,1.06-.242l.142-.031.143-.031.181-.041.184-.041.787-.17.045-.01.582-.122.347-.072q.781-.161,1.6-.323l.164-.033.164-.031,1-.192.337-.063.339-.064.343-.064q1.081-.2,2.211-.4l.758-.13.587-.1.369-.062c.123-.02.247-.042.371-.061l.373-.062.634-.1.417-.068c.141-.021.283-.045.424-.068l.426-.066.387-.061.39-.061.785-.119c.264-.041.529-.08.8-.119l.6-.089c.2-.031.4-.06.608-.089l.944-.135.651-.091.788-.109.973-.133.491-.065.99-.131.5-.065q.75-.1,1.514-.191l1.023-.128.49-.059.493-.06c.164-.019.33-.04.5-.059l.5-.06.254-.029.255-.029.686-.081.692-.078q1.682-.19,3.414-.371l.715-.075.337-.035.337-.034.265-.027.265-.027,1.068-.106.484-.048.026,0,.026,0,.348-.034.35-.033q1.273-.122,2.57-.239c.277-.026.557-.051.837-.075l1.05-.092,1.057-.091.961-.081,1.7-.138.572-.044.573-.045,1.378-.1.529-.039c.088-.008.176-.013.264-.02l.265-.019q1.108-.082,2.226-.157l.851-.058.337-.023.335-.022.542-.035.544-.035,1.083-.068h0l1.089-.067q.832-.051,1.67-.1l1.109-.062.291-.016.877-.048h0a7.439,7.439,0,0,1,1.162,1.216h0a4.148,4.148,0,0,1,.42.692,2.452,2.452,0,0,1,.251,1.04" transform="translate(-63.472 -1927.86)" fill="#d6f4f4"/>
        <path id="Path_29857" data-name="Path 29857" d="M790.544,2118.088c-8.943,0-17.494.105-25.361.3-26.241.643-44.847,2.251-44.847,4.135,0,1.511,11.981,2.845,30.275,3.646,9.116-1.706,14.8-4.124,14.8-6.806a2.05,2.05,0,0,0-.049-.438,2.047,2.047,0,0,1,.05.438c0,2.682-5.69,5.1-14.8,6.806,11.337.5,25.1.786,39.933.786,38.774,0,70.208-1.984,70.208-4.432s-31.434-4.432-70.208-4.432" transform="translate(-669.716 -1969.243)" fill="#4c969b"/>
        <path id="Path_29858" data-name="Path 29858" d="M774.16,2033.626l-.075,1.113-.131,1.928c-.015.223-.038.469-.071.732v0c-.26,2.1-1.13,5.251-3.614,5.879a25.105,25.105,0,0,1-4.048.52c-1.932.132-4.207.2-6.535.264a40.025,40.025,0,0,1-13.159-1.446c-.069-.022-.138-.048-.2-.077-1.751-.748-2.766-3.531-3.093-4.865l-.894-3.649.12,0,2.322-.029,1.285-.016h0l1.879-.024,13.637-.172,9.262-.117,2.1-.026,1.005-.012Z" transform="translate(-690.168 -1890.716)" fill="#8edaea"/>
        <path id="Path_29859" data-name="Path 29859" d="M775.569,1983.794a4.081,4.081,0,0,1-.805,1.047c-2.1,2.068-7.68,2.373-11.138,2.554l-.27.015a51.305,51.305,0,0,1-13.219-.98c-2.326-.492-6.008-1.481-6.2-3.348a1.666,1.666,0,0,1,.111-.768,3.018,3.018,0,0,1,1.112-1.364,12.078,12.078,0,0,1,5.2-1.67,65.2,65.2,0,0,1,10.34-.419c.339.007,1.206.035,2.364.11a59.724,59.724,0,0,1,6.314.713,14.266,14.266,0,0,1,5.511,1.839l.018.013a1.672,1.672,0,0,1,.666,2.259" transform="translate(-691.652 -1839.772)" fill="#d6f4f4"/>
        <path id="Path_29860" data-name="Path 29860" d="M792.4,1999.381c-1.352-1.266,1.961-2.906,10.649-3.029s13.635,1.426,14.177,2.865c.712,1.889-21.361,3.411-24.826.164" transform="translate(-736.441 -1856.054)" fill="#fff"/>
        <path id="Path_29861" data-name="Path 29861" d="M774.165,1931.234l-.075,1.113-.131,1.928a13.157,13.157,0,0,1-.552,2.995,8.666,8.666,0,0,1-.463,1.175,4.212,4.212,0,0,1-2.669,2.443,49.315,49.315,0,0,1-8.519.725c-.678.021-1.369.041-2.065.059a40.051,40.051,0,0,1-13.159-1.445,3.674,3.674,0,0,1-1.75-1.427,9.5,9.5,0,0,1-1.1-2.1,11.907,11.907,0,0,1-.448-1.412l-.894-3.649h.12l2.323-.029,1.284-.016,15.516-.2,9.262-.117,2.1-.027Z" transform="translate(-690.172 -1795.52)" fill="#8edaea"/>
        <path id="Path_29862" data-name="Path 29862" d="M775.568,1881.4a4.08,4.08,0,0,1-.805,1.046c-1.106,1.088-3.175,1.688-5.389,2.038a58.227,58.227,0,0,1-5.95.526l-.069,0-.3.015a53.011,53.011,0,0,1-6.721-.1,48.876,48.876,0,0,1-5.982-.844l-.221-.045c-2.325-.492-6.007-1.481-6.2-3.348a1.66,1.66,0,0,1,.111-.769,3.019,3.019,0,0,1,1.112-1.364,12.076,12.076,0,0,1,5.2-1.67,65.2,65.2,0,0,1,10.34-.419c.339.008,1.206.036,2.364.111a59.447,59.447,0,0,1,6.312.712,14.277,14.277,0,0,1,5.513,1.839l.018.013a1.673,1.673,0,0,1,.666,2.26" transform="translate(-691.651 -1744.574)" fill="#d6f4f4"/>
        <path id="Path_29863" data-name="Path 29863" d="M792.4,1896.989c-1.352-1.266,1.961-2.906,10.649-3.029s13.635,1.426,14.177,2.865c.712,1.889-21.361,3.411-24.826.164" transform="translate(-736.441 -1760.858)" fill="#fff"/>
        <path id="Path_29864" data-name="Path 29864" d="M774.165,1828.841l-.075,1.113-.131,1.928a13.16,13.16,0,0,1-.552,2.995,8.678,8.678,0,0,1-.463,1.175,4.21,4.21,0,0,1-2.669,2.443,50.456,50.456,0,0,1-8.692.731c-.623.019-1.255.037-1.892.054a40.041,40.041,0,0,1-13.159-1.446,3.676,3.676,0,0,1-1.749-1.426,9.493,9.493,0,0,1-1.1-2.1,11.907,11.907,0,0,1-.448-1.412l-.482-1.966-.413-1.683.12,0,3.607-.045,15.516-.2,3.24-.041,6.021-.076Z" transform="translate(-690.172 -1700.322)" fill="#8edaea"/>
        <path id="Path_29865" data-name="Path 29865" d="M775.633,1778.854c-.021.051-.045.1-.071.154a4.08,4.08,0,0,1-.805,1.046c-1.107,1.089-3.176,1.688-5.391,2.038a58.009,58.009,0,0,1-5.95.526h0l-.064,0-.3.015c-1.492.071-2.992.08-4.486.025q-1.121-.04-2.236-.129h0a48.889,48.889,0,0,1-5.982-.844l-.221-.045a18.127,18.127,0,0,1-4.536-1.468c-.918-.5-1.583-1.115-1.662-1.88a1.66,1.66,0,0,1,.111-.769c.5-1.312,2.141-2.23,4.911-2.794h0a56.394,56.394,0,0,1,11.734-.658c.269.006.87.025,1.684.07h0c.212.011.44.025.678.041,1.254.08,2.85.213,4.483.431.559.074,1.121.159,1.677.254a14.487,14.487,0,0,1,5.683,1.879,2.307,2.307,0,0,1,.756.888,1.5,1.5,0,0,1-.019,1.217" transform="translate(-691.645 -1649.376)" fill="#d6f4f4"/>
        <path id="Path_29866" data-name="Path 29866" d="M792.4,1794.6c-1.352-1.266,1.961-2.906,10.649-3.029s13.635,1.426,14.177,2.865c.712,1.889-21.361,3.411-24.826.164" transform="translate(-736.441 -1665.662)" fill="#fff"/>
        <path id="Path_29867" data-name="Path 29867" d="M664.512,1717.482l-.076,1.115-.131,1.926c-.012.177-.029.368-.052.57-.033.292-.078.607-.137.935a12.218,12.218,0,0,1-.3,1.277,7.9,7.9,0,0,1-.943,2.121,3.832,3.832,0,0,1-2.254,1.711c-.29.073-.621.139-.987.2-.629.1-1.36.185-2.17.254-2.1.177-4.73.259-7.428.331a52.449,52.449,0,0,1-7.863-.333q-.72-.09-1.369-.2a26.467,26.467,0,0,1-3.926-.917c-1.877-.611-2.958-3.557-3.3-4.942l-.894-3.649.12,0,3.607-.045,5.965-.075,17.257-.218,1.557-.019Z" transform="translate(-588.225 -1596.789)" fill="#8edaea"/>
        <path id="Path_29868" data-name="Path 29868" d="M665.244,1665.394c-3.013-2.279-12.85-2.644-14.207-2.675-10.042-.225-15.655.821-16.648,3.452-.895,2.371,3.461,3.562,6.088,4.116a51.318,51.318,0,0,0,13.219.98c3.431-.182,9.25-.446,11.409-2.568,1.427-1.4,1.231-2.48.139-3.306" transform="translate(-589.698 -1545.847)" fill="#d6f4f4"/>
        <path id="Path_29869" data-name="Path 29869" d="M682.745,1683.241c-1.352-1.266,1.961-2.906,10.649-3.029s13.635,1.426,14.177,2.865c.712,1.889-21.361,3.411-24.826.164" transform="translate(-634.495 -1562.131)" fill="#fff"/>
        <path id="Path_29870" data-name="Path 29870" d="M774.16,1624.054l-.075,1.113h0l-.083,1.216-.048.711a11.061,11.061,0,0,1-1.333,4.75,3.909,3.909,0,0,1-2.352,1.864c-.091.023-.187.045-.287.067a27.905,27.905,0,0,1-3.786.455c-1.236.084-2.612.142-4.051.19h0l-.568.019c-.623.019-1.255.037-1.892.054a40.02,40.02,0,0,1-13.159-1.446,2.5,2.5,0,0,1-.486-.219,5,5,0,0,1-1.72-1.929,11.753,11.753,0,0,1-1.017-2.512c-.028-.1-.052-.194-.074-.282l-.269-1.1-.625-2.552.12,0,3.607-.045h0l2.014-.025,13.5-.171,9.262-.117Z" transform="translate(-690.168 -1509.926)" fill="#8edaea"/>
        <path id="Path_29871" data-name="Path 29871" d="M774.9,1571.968c-3.013-2.279-12.85-2.644-14.207-2.675-10.042-.225-15.655.821-16.648,3.452-.895,2.371,3.461,3.562,6.088,4.117a51.313,51.313,0,0,0,13.219.98c3.431-.182,9.25-.446,11.409-2.568,1.427-1.4,1.231-2.48.139-3.306" transform="translate(-691.644 -1458.986)" fill="#d6f4f4"/>
        <path id="Path_29872" data-name="Path 29872" d="M792.4,1589.815c-1.352-1.266,1.961-2.906,10.649-3.029s13.635,1.426,14.177,2.865c.712,1.889-21.361,3.411-24.826.164" transform="translate(-736.441 -1475.27)" fill="#fff"/>
        <path id="Path_29873" data-name="Path 29873" d="M821.53,1521.661l-.076,1.114-.131,1.927c-.13,1.908-.815,5.521-3.28,6.484a3.408,3.408,0,0,1-.4.13c-.273.069-.582.131-.923.188a84.064,84.064,0,0,1-9.661.6q-.738.021-1.437.022a38.11,38.11,0,0,1-11.722-1.468l-.07-.024a3.783,3.783,0,0,1-1.709-1.444,9.07,9.07,0,0,1-.909-1.664,12.218,12.218,0,0,1-.562-1.63c-.018-.063-.033-.123-.047-.18l-.9-3.649.12,0,3.607-.045,12.187-.154,12.59-.158Z" transform="translate(-734.208 -1414.729)" fill="#8edaea"/>
        <path id="Path_29874" data-name="Path 29874" d="M822.933,1471.832a4.074,4.074,0,0,1-.8,1.046c-1.441,1.417-4.514,2.005-7.418,2.294-1.446.144-2.851.214-3.992.274q-1.173.062-2.353.073-.635.006-1.271,0c-1.373-.02-2.744-.093-4.1-.221a48.565,48.565,0,0,1-5.492-.829c-.281-.059-.583-.126-.9-.2-2.27-.542-5.136-1.505-5.3-3.146a1.666,1.666,0,0,1,.111-.768c.96-2.547,6.25-3.609,15.692-3.471.314.005.633.011.957.018,1.357.03,11.193.4,14.207,2.675a1.672,1.672,0,0,1,.665,2.26" transform="translate(-735.687 -1363.786)" fill="#d6f4f4"/>
        <path id="Path_29875" data-name="Path 29875" d="M839.767,1487.423c-1.352-1.266,1.961-2.906,10.649-3.029s13.635,1.426,14.177,2.865c.712,1.889-21.361,3.411-24.826.164" transform="translate(-780.483 -1380.073)" fill="#fff"/>
        <path id="Path_29876" data-name="Path 29876" d="M1824.852,2022.82l.895,3.649c.339,1.385,1.421,4.331,3.3,4.942a40.027,40.027,0,0,0,13.159,1.446c4.34-.117,8.495-.256,10.584-.784,2.8-.707,3.548-4.605,3.685-6.613l.207-3.041Z" transform="translate(-1696.613 -1880.296)" fill="#5ca6b1"/>
        <path id="Path_29877" data-name="Path 29877" d="M1857.412,1970.328c-3.014-2.279-12.85-2.644-14.207-2.675-10.042-.225-15.655.821-16.648,3.452-.895,2.371,3.461,3.562,6.088,4.117a51.313,51.313,0,0,0,13.219.98c3.431-.182,9.25-.446,11.409-2.568,1.427-1.4,1.231-2.48.139-3.306" transform="translate(-1698.088 -1829.352)" fill="#91d1d1"/>
        <path id="Path_29878" data-name="Path 29878" d="M1874.914,1988.175c-1.352-1.266,1.961-2.906,10.649-3.029s13.635,1.426,14.177,2.865c.712,1.889-21.361,3.411-24.825.164" transform="translate(-1742.886 -1845.636)" fill="#fff"/>
        <path id="Path_29879" data-name="Path 29879" d="M1826.052,1920.988l.895,3.649c.34,1.385,1.421,4.331,3.3,4.942a40.03,40.03,0,0,0,13.159,1.446c4.34-.117,8.495-.256,10.584-.784,2.8-.707,3.548-4.605,3.685-6.613l.207-3.041Z" transform="translate(-1697.729 -1785.62)" fill="#5ca6b1"/>
        <path id="Path_29880" data-name="Path 29880" d="M1858.612,1868.5c-3.013-2.279-12.85-2.644-14.207-2.675-10.042-.225-15.655.821-16.648,3.452-.895,2.371,3.461,3.562,6.088,4.117a51.318,51.318,0,0,0,13.219.98c3.431-.182,9.25-.446,11.409-2.569,1.427-1.4,1.231-2.48.139-3.305" transform="translate(-1699.204 -1734.676)" fill="#7ebac4"/>
        <path id="Path_29881" data-name="Path 29881" d="M1876.114,1886.343c-1.352-1.266,1.961-2.906,10.649-3.029s13.635,1.426,14.177,2.865c.712,1.889-21.361,3.411-24.825.164" transform="translate(-1744.002 -1750.96)" fill="#d6f4f4"/>
        <path id="Path_29882" data-name="Path 29882" d="M1136.056,1736.784c-.091.023-.187.045-.286.067l2.638-1.931a3.909,3.909,0,0,1-2.352,1.864" transform="translate(-1055.955 -1613.001)" fill="#4c969b"/>
        <g id="Group_18929" data-name="Group 18929" transform="translate(56.154 125.494)" opacity="0.2">
          <g id="Group_18928" data-name="Group 18928">
            <g id="Group_18927" data-name="Group 18927" clip-path="url(#clip-path-4)">
              <path id="Path_29883" data-name="Path 29883" d="M826.932,1788.561l-.019,1.217-.091,5.767h0l-.008.47-.019,1.2h0l-.012.789h0l-.072,4.572h0l-.01.633-.022,1.393-.038,2.377v0c-.26,2.1-1.13,5.251-3.614,5.879a25.121,25.121,0,0,1-4.048.52c-1.932.132-4.207.2-6.536.264a40.025,40.025,0,0,1-13.159-1.446c-.069-.022-.138-.048-.2-.077l1.031-5.469.251-1.332.157-.835.179-.949.386-2.05.31-1.647.015-.081,1.484-1.086.947-.693,2.331-1.707,3.677-2.691.26-.19h0l1.648-1.207,1.539-1.126h0l.119-.088,2.759-2.02,2.161-1.582.641-.469h0l1.516-1.109a14.488,14.488,0,0,1,5.683,1.879,2.305,2.305,0,0,1,.756.888" transform="translate(-799.079 -1785.794)" fill="#4c969b"/>
            </g>
          </g>
        </g>
        <g id="Group_18932" data-name="Group 18932" transform="translate(75.884 102.707)" opacity="0.22">
          <g id="Group_18931" data-name="Group 18931">
            <g id="Group_18930" data-name="Group 18930" clip-path="url(#clip-path-5)">
              <path id="Path_29884" data-name="Path 29884" d="M1095.68,1466.49l-.131,1.927c-.13,1.908-.815,5.521-3.28,6.484l-.048.712c-.138,2.008-.89,5.907-3.685,6.614a25.178,25.178,0,0,1-4.072.522c-.033.292-.078.607-.137.935,2.9.386,5.913,1.04,7.359,2.133a1.673,1.673,0,0,1,.666,2.26l-.131,1.928a13.155,13.155,0,0,1-.552,2.995l.018.013a1.673,1.673,0,0,1,.666,2.26l-.131,1.928a13.157,13.157,0,0,1-.552,2.995l.018.013a1.672,1.672,0,0,1,.666,2.259l-.131,1.929c-.138,2.008-.89,5.906-3.685,6.613a25.091,25.091,0,0,1-4.048.52,10.949,10.949,0,0,1-4.078-5.461,10.777,10.777,0,0,1-.393-1.53q-.088-.49-.132-.993-.04-.473-.041-.955v-40.609q0-.222.008-.443c.314.005.633.011.957.018,1.357.03,11.193.4,14.207,2.675a1.672,1.672,0,0,1,.665,2.26" transform="translate(-1079.843 -1461.537)" fill="#44ad8c"/>
            </g>
          </g>
        </g>
        <path id="Path_29885" data-name="Path 29885" d="M1120.811,1356.674H1078.78a.555.555,0,0,1,0-1.109h42.031a.555.555,0,0,1,0,1.109" transform="translate(-1002.454 -1260.305)" fill="#d6f4f4"/>
        <path id="Path_29886" data-name="Path 29886" d="M1086.245,1426.3h-42.031a.555.555,0,0,1,0-1.109h42.031a.555.555,0,0,1,0,1.109" transform="translate(-970.318 -1325.035)" fill="#d6f4f4"/>
        <path id="Path_29887" data-name="Path 29887" d="M1145.128,1556.7h-32.4a.555.555,0,0,1,0-1.109h32.4a.555.555,0,0,1,0,1.109" transform="translate(-1034.015 -1446.272)" fill="#d6f4f4"/>
        <path id="Path_29888" data-name="Path 29888" d="M2714.752,432.489c-.009.072-.019.144-.029.217a.851.851,0,0,1,.029-.217" transform="translate(-2523.95 -402.097)" fill="#521213"/>
        <path id="Path_29889" data-name="Path 29889" d="M1139.259,23.693l-.111,26.049-.164,38.587-.034,8.1-.068,15.839-.178,42.062a11.367,11.367,0,0,1-11.435,11.3l-52.254-.24a11.349,11.349,0,0,1-11.33-11.4l.141-33.322.129-30.49.051-12.023.078-18.509.014-3.272.14-33.021a11.367,11.367,0,0,1,11.435-11.3l35.322.163,16.229.075.7,0a11.348,11.348,0,0,1,11.33,11.4" transform="translate(-988.938 -11.205)" fill="#197daf"/>
        <g id="Group_18935" data-name="Group 18935" transform="translate(75.148 0.847)" opacity="0.89">
          <g id="Group_18934" data-name="Group 18934">
            <g id="Group_18933" data-name="Group 18933" clip-path="url(#clip-path-6)">
              <path id="Path_29890" data-name="Path 29890" d="M1222.713,1438.131l-.178,42.062a11.367,11.367,0,0,1-11.435,11.3l-52.254-.24a11.346,11.346,0,0,1-4.994-1.174c20.621-7.736,39.812-18.492,54.915-34.331a129.528,129.528,0,0,0,13.946-17.618" transform="translate(-1147.916 -1337.915)" fill="#05517f"/>
              <path id="Path_29891" data-name="Path 29891" d="M1132.5,12.291c-5.414,11.735-14.478,21.933-25.049,29.534-11.445,8.229-24.543,13.741-38.091,17.824l.014-3.272.14-33.021a11.367,11.367,0,0,1,11.434-11.3l35.322.163Z" transform="translate(-1069.365 -12.053)" fill="#66ade1"/>
              <path id="Path_29892" data-name="Path 29892" d="M1173.753,76.461l-10.132-.047a2.513,2.513,0,0,0-2.47,2.553l-.009,1.832a2.512,2.512,0,0,1-2.47,2.553l-19.748-.091a2.516,2.516,0,0,1-2.449-2.576l.009-1.832a2.515,2.515,0,0,0-2.449-2.576l-3.563-.017-8.867-.041a7.961,7.961,0,0,0-8.009,7.916l-.54,127.51a7.96,7.96,0,0,0,7.935,7.983l52.15.24a7.96,7.96,0,0,0,8.008-7.916l.54-127.511a7.96,7.96,0,0,0-7.934-7.983" transform="translate(-1109.984 -71.711)" fill="#fefefe"/>
            </g>
          </g>
        </g>
      </g>
    </g>
    <text id="Empty" transform="translate(88.289 73.996)" fill="#ffa710" font-size="15" font-family="Poppins-BoldItalic, Poppins" font-weight="700" font-style="italic"><tspan x="0" y="0">Empty</tspan></text>
    <g id="Group_18942" data-name="Group 18942">
      <g id="Group_18941" data-name="Group 18941" clip-path="url(#clip-path)">
        <g id="Group_18940" data-name="Group 18940" transform="translate(74.89 1.01)" opacity="0.48">
          <g id="Group_18939" data-name="Group 18939">
            <g id="Group_18938" data-name="Group 18938" clip-path="url(#clip-path-8)">
              <path id="Path_29893" data-name="Path 29893" d="M1137.026,15.552l-3.718,3.5-61.579,57.987-3.475,3.272.092-21.782,3.475-3.272,31.3-29.473,12.123-11.415,16.933.078a11.368,11.368,0,0,1,4.85,1.1" transform="translate(-1068.075 -14.37)" fill="#fefefe"/>
              <path id="Path_29894" data-name="Path 29894" d="M1141.128,127.188l-.11,26.05-3.48,3.277-68.367,64.378-3.474,3.272.129-30.49,3.475-3.272,68.109-64.135,3.076-2.9a11.309,11.309,0,0,1,.643,3.817" transform="translate(-1065.697 -115.711)" fill="#fefefe"/>
              <path id="Path_29895" data-name="Path 29895" d="M1150.56,1097.488l-.034,8.1-3.479,3.277-63.369,59.673-3.925,3.7a11.382,11.382,0,0,1-3.615-4.663l3.3-3.11,67.641-63.7Z" transform="translate(-1075.404 -1021.374)" fill="#fefefe"/>
            </g>
          </g>
        </g>
      </g>
    </g>
  </g>
</svg>
