<svg xmlns="http://www.w3.org/2000/svg" xmlns:xlink="http://www.w3.org/1999/xlink" width="51" height="49" viewBox="0 0 51 49">
  <defs>
    <clipPath id="clip-path">
      <rect id="Rectangle_148" data-name="Rectangle 148" width="32" height="32" fill="#3b3e4f"/>
    </clipPath>
  </defs>
  <g id="Group_19563" data-name="Group 19563" transform="translate(-301 -364)">
    <rect id="images" width="51" height="49" rx="5" transform="translate(301 364)" fill="#e2e8f0"/>
    <g id="plus" transform="translate(311 373)">
      <g id="Mask_Group_162" data-name="Mask Group 162" clip-path="url(#clip-path)">
        <g id="plus-2" data-name="plus" transform="translate(6.667 6.667)">
          <path id="Shape" d="M.175,17.667A1.171,1.171,0,0,1-1,16.5V.167A1.171,1.171,0,0,1,.175-1,1.171,1.171,0,0,1,1.349.167V16.5A1.171,1.171,0,0,1,.175,17.667Z" transform="translate(9.159 1)" fill="#3b3e4f"/>
          <path id="Shape-2" data-name="Shape" d="M16.5,1.349H.167A1.171,1.171,0,0,1-1,.175,1.171,1.171,0,0,1,.167-1H16.5A1.171,1.171,0,0,1,17.667.175,1.171,1.171,0,0,1,16.5,1.349Z" transform="translate(1 9.159)" fill="#3b3e4f"/>
        </g>
      </g>
    </g>
  </g>
</svg>
