<svg width="41" height="41" viewBox="0 0 41 41" fill="none" xmlns="http://www.w3.org/2000/svg">
<g clip-path="url(#clip0_704_7)">
<path d="M41 20.5C41 25.9369 38.8402 31.1512 34.9957 34.9957C31.1512 38.8402 25.9369 41 20.5 41C15.0631 41 9.84881 38.8402 6.00431 34.9957C2.15982 31.1512 0 25.9369 0 20.5C0 15.0631 2.15982 9.84881 6.00431 6.00431C9.84881 2.15982 15.0631 0 20.5 0C25.9369 0 31.1512 2.15982 34.9957 6.00431C38.8402 9.84881 41 15.0631 41 20.5V20.5ZM21.7812 11.5312C21.7812 11.1914 21.6463 10.8656 21.406 10.6253C21.1657 10.385 20.8398 10.25 20.5 10.25C20.1602 10.25 19.8343 10.385 19.594 10.6253C19.3537 10.8656 19.2188 11.1914 19.2188 11.5312V19.2188H11.5312C11.1914 19.2188 10.8656 19.3537 10.6253 19.594C10.385 19.8343 10.25 20.1602 10.25 20.5C10.25 20.8398 10.385 21.1657 10.6253 21.406C10.8656 21.6463 11.1914 21.7812 11.5312 21.7812H19.2188V29.4688C19.2188 29.8086 19.3537 30.1345 19.594 30.3747C19.8343 30.615 20.1602 30.75 20.5 30.75C20.8398 30.75 21.1657 30.615 21.406 30.3747C21.6463 30.1345 21.7812 29.8086 21.7812 29.4688V21.7812H29.4688C29.8086 21.7812 30.1345 21.6463 30.3747 21.406C30.615 21.1657 30.75 20.8398 30.75 20.5C30.75 20.1602 30.615 19.8343 30.3747 19.594C30.1345 19.3537 29.8086 19.2188 29.4688 19.2188H21.7812V11.5312Z" fill="#2BAFB7"/>
</g>
<defs>
<clipPath id="clip0_704_7">
<rect width="41" height="41" fill="white"/>
</clipPath>
</defs>
</svg>
