<svg xmlns="http://www.w3.org/2000/svg" xmlns:xlink="http://www.w3.org/1999/xlink" width="266.429" height="193.652" viewBox="0 0 266.429 193.652">
  <defs>
    <clipPath id="clip-path">
      <rect id="Rectangle_7808" data-name="Rectangle 7808" width="177.938" height="190.926" fill="none"/>
    </clipPath>
    <clipPath id="clip-path-2">
      <rect id="Rectangle_7813" data-name="Rectangle 7813" width="37.355" height="57.825" fill="none"/>
    </clipPath>
    <clipPath id="clip-path-3">
      <rect id="Rectangle_7814" data-name="Rectangle 7814" width="14.187" height="56.629" fill="none"/>
    </clipPath>
    <clipPath id="clip-path-4">
      <rect id="Rectangle_7816" data-name="Rectangle 7816" width="57.898" height="59.228" fill="none"/>
    </clipPath>
    <clipPath id="clip-path-5">
      <rect id="Rectangle_8168" data-name="Rectangle 8168" width="149.962" height="130.875" fill="none"/>
    </clipPath>
    <clipPath id="clip-path-7">
      <path id="Path_31409" data-name="Path 31409" d="M251.415,134.9l5.963,5.74h38.589l31.838,67.794,11.969,11.522,3.678,1.748-5.811,7.676H301.264a28.082,28.082,0,0,1-25.418-16.144l-34.093-72.6,5.811-7.676Z" transform="translate(-241.753 -132.96)" fill="none"/>
    </clipPath>
    <clipPath id="clip-path-9">
      <path id="Path_31413" data-name="Path 31413" d="M306.171,155.792a24.23,24.23,0,0,1,21.939,13.947l30.59,65.27H331.852a28.081,28.081,0,0,1-25.427-16.164l-29.551-63.053Z" transform="translate(-276.874 -155.792)" fill="none"/>
    </clipPath>
    <clipPath id="clip-path-10">
      <path id="Path_31415" data-name="Path 31415" d="M313.37,162.235a24.23,24.23,0,0,1,21.94,13.947L365.3,240.166H340.243A28.081,28.081,0,0,1,314.816,224l-28.948-61.767Z" transform="translate(-285.868 -162.235)" fill="none"/>
    </clipPath>
    <clipPath id="clip-path-12">
      <path id="Path_31419" data-name="Path 31419" d="M212.749,12.153c.436,4.122-2.339,5.43-2.339,5.43s1.11,1.546.555,5.232-2.854,4.8-2.854,4.8l-16.349,9.314c-4.4.773-9.928-7.967-11.4-15.418s2.14-13.595,7.095-14.7a17.091,17.091,0,0,1,8.839.317,19.685,19.685,0,0,1,7.491-1.387q.172,0,.342,0c4.7,0,8.19,2.4,8.616,6.425" transform="translate(-180.037 -5.728)" fill="none"/>
    </clipPath>
    <clipPath id="clip-path-13">
      <rect id="Rectangle_8156" data-name="Rectangle 8156" width="11.431" height="5.077" fill="none"/>
    </clipPath>
    <clipPath id="clip-path-15">
      <path id="Path_31424" data-name="Path 31424" d="M220.26,88.56c0,5.39-2.219,10.147-8.244,10.147s-8.125-6.223-8.125-9.671c0,0-3.171.4-3.171-3.29s4.2-3.567,4.2-1.586l.4,2.537h1.744s.674-5.271,4.122-7.531c0,0,.594,1.189,4.241,1.031s4.835-1.387,4.835-1.387Z" transform="translate(-200.72 -78.81)" fill="none"/>
    </clipPath>
    <clipPath id="clip-path-16">
      <rect id="Rectangle_8158" data-name="Rectangle 8158" width="6.817" height="6.817" fill="none"/>
    </clipPath>
    <clipPath id="clip-path-18">
      <path id="Path_31434" data-name="Path 31434" d="M98.6,264.228h0M63.511,251.973a26.633,26.633,0,0,0,11.654,11.139,27.209,27.209,0,0,0,16.677,3.223,20.135,20.135,0,0,0,6.76-2.107l-.046.028,5.72,9.239a29.561,29.561,0,0,1-10.217,3.493,35.151,35.151,0,0,1-5.656.456,36.3,36.3,0,0,1-5.1-.363,42.344,42.344,0,0,1-23.855-12.31,34.587,34.587,0,0,1-5.9-8.415A27.817,27.817,0,0,1,50.6,246.5l10.845-.678s0-.021,0-.062a18.416,18.416,0,0,0,2.068,6.208" transform="translate(-50.602 -245.764)" fill="none"/>
    </clipPath>
    <clipPath id="clip-path-20">
      <path id="Path_31437" data-name="Path 31437" d="M304.553,155.41a16.343,16.343,0,0,1,4.514,22.668L288.01,209.608a12.238,12.238,0,0,1-16.974,3.38,20.124,20.124,0,0,1-5.559-27.911l16.858-25.243a16.015,16.015,0,0,1,22.218-4.425" transform="translate(-262.087 -152.711)" fill="none"/>
    </clipPath>
    <clipPath id="clip-path-22">
      <path id="Path_31440" data-name="Path 31440" d="M299.46,536.14s6.974,3.274,7.33,7.188,1.139,10.96-4.982,10.533-5.836-8.54-5.836-8.54-4.057-1-4.839-3.345.356-5.836.356-5.836Z" transform="translate(-290.858 -536.14)" fill="none"/>
    </clipPath>
    <clipPath id="clip-path-24">
      <path id="Path_31445" data-name="Path 31445" d="M329.667,203.25v60.83a3.973,3.973,0,0,1-3.973,3.973h-3.865a3.973,3.973,0,0,1-3.973-3.973V203.25a5.906,5.906,0,1,1,11.811,0" transform="translate(-317.856 -197.344)" fill="none"/>
    </clipPath>
    <clipPath id="clip-path-26">
      <path id="Path_31448" data-name="Path 31448" d="M20.817,314.665a7.828,7.828,0,1,1-7.828-7.828,7.828,7.828,0,0,1,7.828,7.828" transform="translate(-5.161 -306.837)" fill="none"/>
    </clipPath>
    <clipPath id="clip-path-29">
      <rect id="Rectangle_7739" data-name="Rectangle 7739" width="10.149" height="20.839" fill="none"/>
    </clipPath>
    <clipPath id="clip-path-30">
      <rect id="Rectangle_7776" data-name="Rectangle 7776" width="10.235" height="20.47" fill="none"/>
    </clipPath>
  </defs>
  <g id="Family_sharing_Empty_state" data-name="Family sharing Empty state" transform="translate(-57.414 -277.042)">
    <g id="Group_19893" data-name="Group 19893" transform="translate(75.331 277.042)">
      <path id="Path_30067" data-name="Path 30067" d="M248.512,131.081a86.046,86.046,0,0,1-18.974,54c-20.5,3.5-59.869,5.865-105.065,5.865q-2.846,0-5.658-.012l-1.77-.01q-3.446-.021-6.838-.059-4.706-.053-9.3-.139l-1.138-.022q-.5-.52-.982-1.046-2.865-3.1-5.42-6.467l-.022-.028q-2.454-3.239-4.6-6.709a53.747,53.747,0,0,1-30.729,12.59q-2.023.151-4.087.153a53.689,53.689,0,0,1-31.013-9.8q-.262-.184-.521-.371A53.993,53.993,0,0,1,.018,136.629Q0,135.953,0,135.272q0-.637.016-1.27A53.946,53.946,0,0,1,33.7,85.267a85.969,85.969,0,0,1,20.242-54.5q.9-1.074,1.838-2.115a86.954,86.954,0,0,1,7.951-7.784A85.951,85.951,0,0,1,115.349.124Q117.668,0,120.017,0a86.937,86.937,0,0,1,14.114,1.148,85.7,85.7,0,0,1,16.9,4.592A86.619,86.619,0,0,1,197,47.239q1.529,3,2.824,6.137a86.44,86.44,0,0,1,48.684,77.705" transform="translate(0 0)" fill="#d6f4f4"/>
      <g id="Group_19206" data-name="Group 19206" transform="translate(0.015 0)" opacity="0.3">
        <g id="Group_19205" data-name="Group 19205">
          <g id="Group_19204" data-name="Group 19204" clip-path="url(#clip-path)">
            <path id="Path_30069" data-name="Path 30069" d="M178.136,90.557a112.578,112.578,0,0,1-17.714,60.8,113.615,113.615,0,0,1-43.2,39.57q-3.446-.021-6.838-.059-4.706-.053-9.3-.14-.605-.763-1.194-1.539-2.621-3.46-4.918-7.166-.705.6-1.43,1.171l-.022-.028q-2.454-3.239-4.6-6.709A53.747,53.747,0,0,1,58.2,189.047q-2.023.151-4.087.153a53.692,53.692,0,0,1-31.013-9.8q-.262-.184-.521-.371A53.993,53.993,0,0,1,.2,136.629Q.23,135.321.2,134A53.946,53.946,0,0,1,33.883,85.267a85.968,85.968,0,0,1,20.242-54.5q.994-1.051,1.838-2.115a86.967,86.967,0,0,1,7.951-7.784A85.951,85.951,0,0,1,115.53.124Q117.849,0,120.2,0a86.938,86.938,0,0,1,14.114,1.148A113.764,113.764,0,0,1,151.6,17.768Q154,20.609,156.2,23.6a112.5,112.5,0,0,1,20.517,48.99,113.866,113.866,0,0,1,1.419,17.962" transform="translate(-0.197 0)" fill="#fff"/>
          </g>
        </g>
      </g>
      <path id="Path_30070" data-name="Path 30070" d="M2548.6,505.012a5.676,5.676,0,1,1,1.656-7.852,5.647,5.647,0,0,1-1.656,7.852" transform="translate(-2336.087 -454.907)" fill="#d6f4f4"/>
      <path id="Path_30071" data-name="Path 30071" d="M2708.74,661.43a3.035,3.035,0,1,1-3.035-3.035,3.035,3.035,0,0,1,3.035,3.035" transform="translate(-2485.868 -605.58)" fill="#d6f4f4"/>
      <path id="Path_30072" data-name="Path 30072" d="M299.885,2077.219c0,2.005-5.463,3.889-15.056,5.526-20.5,3.5-59.869,5.865-105.065,5.865q-2.846,0-5.658-.012-4.345-.021-8.607-.069-5.291-.059-10.435-.161c-15.166-.3-29.282-.872-41.757-1.66-5.807-.366-11.258-.779-16.294-1.234q-2.573-.231-5-.477-.9-.091-1.781-.185l-.439-.047c-.055,0-.11-.011-.164-.017l-.413-.045q-.823-.087-1.627-.18l-.641-.073-.816-.095-.578-.068-.493-.06-.7-.085-.022,0q-1.212-.15-2.372-.3l-.242-.032-.241-.033c-.161-.021-.322-.043-.48-.065l-.911-.126-.735-.1-.362-.053-.318-.047-.773-.115-.125-.02-.409-.062c-.354-.054-.7-.11-1.049-.165l-.278-.045-.212-.035-.529-.086-.1-.016-.153-.026-.5-.084-.488-.084-.4-.072-.315-.056-.236-.043-.234-.043q-.581-.106-1.141-.216l-.388-.076-.49-.1-.64-.133-.455-.1-.207-.045-.335-.074q-.624-.138-1.208-.279l-.194-.047-.192-.047c-.1-.023-.194-.047-.289-.072l-.235-.06-.132-.033-.395-.1-.341-.092q-.591-.163-1.131-.326a18.858,18.858,0,0,1-3.909-1.569,4.96,4.96,0,0,1-1-.735c-.032-.031-.063-.063-.095-.1s-.075-.082-.108-.125c-.017-.02-.032-.04-.047-.061,0,0,0,0,0,0-.019-.026-.038-.051-.054-.077a1.31,1.31,0,0,1-.074-.117c-.022-.038-.042-.079-.061-.119l-.014-.032c-.005-.01-.01-.021-.014-.031s-.014-.037-.019-.055c0,0,0-.006,0-.007-.006-.018-.011-.033-.016-.05a.7.7,0,0,1-.02-.079.185.185,0,0,1-.009-.039.015.015,0,0,1,0-.006.1.1,0,0,1,0-.014l0-.015a.832.832,0,0,1-.01-.083c0-.031,0-.061,0-.092s0-.049,0-.073,0-.04.005-.06h0a.182.182,0,0,1,0-.031.031.031,0,0,1,0-.009.077.077,0,0,1,0-.015c0-.01,0-.022.006-.032s.008-.041.013-.06a.394.394,0,0,1,.011-.042c0-.007,0-.015.006-.023s.012-.039.02-.057c0,0,0,0,0,0,.007-.021.014-.039.023-.06.017-.044.038-.086.06-.131.012-.025.027-.05.041-.076l.047-.076a2.189,2.189,0,0,1,.167-.23l.064-.078.071-.077h0l.064-.067.082-.081h0c.059-.056.122-.113.189-.17s.113-.1.174-.144l.077-.06c.053-.04.107-.08.163-.12.139-.1.291-.2.453-.3l.129-.081c.045-.027.089-.054.135-.08l.139-.082.035-.02.036-.02c.023-.013.048-.027.072-.039.1-.055.2-.108.3-.162l.15-.077.246-.124q.126-.062.258-.124l.13-.061.268-.122c.046-.019.091-.04.139-.061.112-.05.226-.1.345-.149.045-.02.09-.039.136-.057l.222-.093.184-.075.084-.033.084-.034.066-.025.068-.026.176-.069.454-.172c.156-.056.314-.115.476-.172l.234-.082c.028-.01.058-.022.087-.031l.087-.03c.073-.026.146-.049.219-.076l.223-.075c.075-.026.15-.051.226-.075s.152-.049.228-.076l.261-.084h0c.176-.056.355-.114.537-.17l.553-.17.571-.169h0c.1-.03.193-.058.291-.086l.131-.037.132-.038c.1-.029.193-.055.29-.083l.123-.035.122-.034.313-.085c.078-.023.156-.044.235-.065.056-.016.112-.032.168-.046l.169-.047.225-.059.225-.06.094-.024c.276-.073.556-.144.84-.218l.3-.076q.618-.155,1.266-.31.376-.091.761-.18l.255-.061.3-.068h0l.6-.138.307-.069.162-.036.082-.018.082-.018c.068-.016.139-.03.207-.046l.21-.046.9-.194.052-.011c.22-.047.441-.094.665-.139l.4-.083q.892-.187,1.825-.37l.059-.01.128-.026.188-.036q.563-.109,1.138-.219l.192-.036.193-.036.387-.072.391-.073q1.234-.229,2.523-.452l.432-.074c.144-.026.289-.05.433-.075l.671-.115.421-.07.424-.069c.14-.025.283-.047.426-.071.239-.04.481-.08.724-.119l.476-.077.484-.078.243-.038.244-.04.441-.068.446-.069.9-.136.453-.068.455-.068.342-.05.344-.051c.231-.035.461-.069.694-.1l1.078-.155.371-.052.367-.052h.005l.9-.125,1.111-.152.56-.074,1.13-.15c.189-.024.38-.048.57-.074l.86-.11.868-.108q.58-.074,1.168-.146l.279-.035.281-.034.563-.067c.188-.022.376-.046.566-.067l.57-.069.289-.033.291-.034.783-.091.789-.089q1.92-.217,3.9-.424l.816-.086.384-.04.192-.019.192-.02.3-.03.3-.031q.607-.062,1.219-.121c.183-.018.367-.037.553-.054l.03,0,.03,0,.2-.019.2-.02.4-.038q1.454-.139,2.934-.272c.317-.03.636-.058.956-.087l1.2-.1,1.207-.1.547-.045.55-.047,1.945-.157.653-.053.327-.025.327-.025,1.573-.119.3-.023.3-.023.3-.022.3-.022q.949-.07,1.9-.137l.638-.044.971-.066.384-.025c.127-.009.254-.018.382-.024l.618-.04.621-.04,1.236-.079h0l1.243-.076q.95-.059,1.907-.112c.421-.023.843-.048,1.266-.071l.332-.019.333-.018.667-.037,1.78-.093.082,0q1.288-.066,2.586-.126l1.211-.055.742-.033.982-.041.984-.042.575-.023.574-.024,1.494-.056.332-.011c.111-.005.221-.008.332-.012l.18-.006c.383-.015.768-.028,1.153-.041l2.008-.065.671-.021,1.709-.05,1.237-.032.21-.005.223-.006c.062,0,.123,0,.184,0l.9-.022.59-.014.591-.014q1.046-.023,2.1-.043h0q1.368-.027,2.745-.047h.145q.621-.01,1.244-.019l1.388-.017c.3,0,.6-.007.9-.01l.217,0,1.116-.01c.372,0,.743-.006,1.117-.007l1.047-.008,1.125,0q.871,0,1.747,0h.579l1.834,0q.735,0,1.467.005h.233l1.477.009,1.531.012.194,0q.8.008,1.588.017.825.009,1.647.021l1.641.026,1.635.029,1.4.027c.465.009.928.02,1.391.031.308.008.617.015.924.022l.922.023.662.016.144,0,.115,0,.45.011.558.016.824.024.4.011.43.015.118,0h.027l.111,0,.618.02.118,0,.185.006.831.026.4.014.276.01.123,0,.418.014.487.017.365.013.085,0,.374.013.1,0,.47.018h.032l.5.019.768.031c.144,0,.288.011.432.017l.461.018.4.017.491.021,1.034.044.739.033.409.018.038,0,.383.017q.388.017.774.037h.024l1.012.049.25.012h.006l.243.011.12.006c.239.013.477.025.715.037.138.007.274.015.411.021l.081,0,1.2.064.453.024.743.042.121.006.032,0,.526.03.511.029.528.03.372.021c.095.005.189.012.283.016l.318.02.817.049,1.652.1.038,0,.037,0,.754.049.114.007.812.053.836.056.545.037.154.01.134.009.829.058.227.017.321.022.277.02.13.009.129.009.248.018.138.01.179.013.349.025h0l.22.017.533.04.531.04.066,0,.024,0c.075.007.149.012.225.017l.5.038.648.05.662.052.184.015.1.008h.018l.32.026.658.054.624.051.8.065.792.067c.505.043,1.008.085,1.508.131l1.024.091,1.019.092,1.012.093.853.08q.762.072,1.516.146l.629.061.155.015q.911.09,1.811.183c.245.024.488.05.732.075l.728.076.334.035c.033,0,.066.006.1.01l.233.024.312.033.467.051.325.035.391.043.712.078.71.079.7.08.416.047.414.048.812.094q1.616.189,3.186.384h0l.3.038.365.045.662.084.339.043.16.021.685.088.305.04.491.065.652.086q1.3.174,2.562.352l1.255.178.62.09.617.09c.41.06.816.122,1.218.182l.208.031.368.057.624.1.593.092.589.093.073.012.655.1.4.065.038.006.575.094q1.1.181,2.161.363l.306.054.332.057.166.029.351.061.1.019.1.018.555.1.931.169.307.057.347.064q.818.152,1.611.305l.265.052.5.1q.684.133,1.349.27l.66.136c.3.062.592.124.884.186l.722.155.314.069q.625.137,1.228.274,2.651.6,4.9,1.215,1.593.433,2.971.867c5.168,1.627,8,3.238,8,4.682" transform="translate(-54.859 -1896.088)" fill="#5ca6b1"/>
      <path id="Path_30073" data-name="Path 30073" d="M346.638,2070.455c-2.479,2.447-8.322,5.011-17.994,7.42q-1.6.4-3.334.788c-17.332,3.905-45.191,7.3-85.646,8.968l-1.594.064-1.189.047c-2.957.114-5.867.538-8.762.787q-5.291-.059-10.435-.161c-15.166-.3-29.282-.872-41.757-1.66-5.807-.366-11.258-.78-16.294-1.234q-2.573-.231-5-.477-.9-.091-1.781-.185l-.439-.047c-.055,0-.11-.011-.164-.017l-.413-.045q-.824-.087-1.627-.18l-.641-.073-.816-.095-.578-.068-.493-.06-.7-.085-.022,0q-1.339-.165-2.614-.336-1.213-.161-2.367-.327l-.362-.053q-.553-.081-1.091-.162l-.125-.02-.409-.062c-.354-.054-.7-.11-1.049-.165-.165-.026-.328-.053-.49-.08l-.529-.086-.251-.042-.5-.084-.488-.084-.4-.072-.315-.056-.236-.043-.234-.043q-.581-.106-1.141-.216l-.389-.076-.49-.1-.639-.133-.455-.1q-.275-.059-.542-.119-.624-.138-1.208-.279l-.194-.047c-.29-.07-.573-.141-.848-.212l-.395-.1-.341-.092q-.591-.162-1.131-.325,1.558-.565,3.308-1.143h0q2.3-.762,4.925-1.547,1.551-.464,3.208-.93h0q.56-.159,1.134-.317,2.127-.591,4.416-1.186a540.646,540.646,0,0,1,62.2-11.685h0c5.752-.769,11.671-1.484,17.723-2.135h.012c.062,0,.123,0,.184,0l.9-.022.59-.014c.084,0,.168,0,.253-.006l.339-.007q1.046-.023,2.1-.043h0q1.368-.027,2.745-.047h.145c.415-.008.828-.014,1.244-.019l1.388-.017c.3,0,.6-.007.9-.01l.217,0c.372,0,.744-.007,1.117-.01s.743-.006,1.116-.007l1.047-.008,1.125,0q.871,0,1.747,0h.579l1.834,0q.735,0,1.467.005h.233l1.477.009,1.531.012.194,0q1.623.016,3.235.038,2.35.033,4.671.083,1.626.033,3.237.075l.662.016.144,0,.565.015.558.016.824.024.4.011.547.017h.027l.111,0,.737.024.185.006.832.027.4.013.275.01.123,0,.417.014.487.017.365.013.085,0,.375.013.075,0,.146.005.353.013h.006c.174,0,.346.012.52.019l.768.031.893.035.4.017.491.021,1.034.044.739.033.409.018.038,0,.383.017q.388.017.774.037h.024l1.012.049.25.012h.006l.617.031.46.022c.138.007.274.015.411.021l1.281.068.453.024.743.042.121.006.032,0,.526.03.511.029.528.03.372.021c.095.005.189.012.283.016l.318.02.816.049,1.652.1.038,0,.791.051.114.007.812.053.836.056.545.037.154.01.134.009,1.056.075.321.022.277.02.13.009.515.037.179.013.349.025h0l.431.031.323.025.531.04.066,0,.025,0,.225.017,1.807.141.184.015.1.008.338.027.658.054.624.051.8.065.792.067c.505.043,1.008.085,1.508.131l1.024.091,1.019.092,1.012.093.853.08q.762.072,1.516.146l.629.061q.989.1,1.966.2c.245.024.489.05.732.075l.728.076.334.035c.033,0,.066.006.1.01q.508.053,1.012.108l.325.035q.554.059,1.1.121l.71.079.7.08.416.047.414.047.812.095q1.616.189,3.186.384l.308.039.365.045,1,.127.16.021.685.088.305.04,1.143.151q1.3.174,2.562.352l1.255.178,1.237.18c.41.06.816.122,1.218.182s.8.122,1.2.183l.593.092.589.093.073.012,1.053.168.038.006.575.094q1.1.181,2.161.363l.638.11.166.029.45.079.1.018.555.1.931.169c.219.041.438.079.654.121q.818.152,1.611.305,1.08.209,2.114.42l.66.136c.3.062.592.124.884.186l.722.155.314.069q.625.137,1.228.274" transform="translate(-117.481 -1896.088)" fill="#7ebac4"/>
      <path id="Path_30074" data-name="Path 30074" d="M248.334,2069.609c0,6.291-53.779,11.392-120.121,11.392-21.771,0-42.188-.55-59.8-1.51q-3.272-.178-6.412-.375a2.827,2.827,0,0,1-1.8-.785c-.032-.031-.064-.064-.095-.1s-.074-.082-.108-.124l-.048-.062h0c-.019-.026-.038-.052-.054-.077a1.251,1.251,0,0,1-.073-.117c-.022-.038-.043-.079-.06-.119-.009-.021-.019-.042-.027-.063s-.016-.037-.021-.055a.028.028,0,0,1,0-.008.491.491,0,0,1-.016-.05.609.609,0,0,1-.021-.078.257.257,0,0,1-.008-.04.013.013,0,0,1,0-.006.15.15,0,0,1-.005-.031,1.07,1.07,0,0,1-.015-.175c0-.024,0-.05,0-.074s0-.04.005-.06h0a.218.218,0,0,1,.006-.04.084.084,0,0,1,0-.016.175.175,0,0,1,.006-.032.532.532,0,0,1,.013-.059c0-.014.007-.029.011-.042l.006-.023c.006-.019.013-.04.02-.058a0,0,0,0,1,0,0c.007-.02.014-.04.023-.059.017-.044.038-.087.06-.132.012-.024.027-.049.042-.076l.046-.076a2.351,2.351,0,0,1,.167-.23l.064-.077c.023-.026.046-.051.071-.077v0l.064-.067.082-.08c.059-.057.122-.114.189-.171s.114-.1.174-.144l.077-.06c.052-.04.106-.081.163-.12q.21-.15.453-.3l.129-.081c.045-.027.089-.054.135-.081s.092-.054.14-.08l.071-.041c.023-.014.048-.027.072-.04.1-.054.2-.107.3-.162.049-.026.1-.051.15-.077l.245-.124.258-.123.13-.061.267-.122.139-.062c.113-.05.226-.1.345-.149l.136-.057.222-.092.184-.075.168-.066c.022-.01.044-.018.066-.026s.045-.018.068-.027l.176-.069.455-.171c.155-.057.314-.115.476-.172q.116-.042.235-.083l.173-.061c.073-.026.146-.05.22-.075.147-.052.3-.1.448-.152l.23-.075.261-.085h0c.176-.056.356-.114.537-.17s.366-.114.554-.17l.571-.17h0l.292-.084c.086-.026.174-.05.262-.075l.29-.084.245-.067.313-.087c.078-.023.156-.044.236-.065l.338-.092c.148-.04.3-.08.449-.119.307-.081.617-.161.934-.242l.3-.075c.413-.1.835-.207,1.266-.311q.5-.12,1.019-.24.594-.139,1.21-.276l.163-.037.163-.035.208-.047.21-.046c.3-.066.6-.129.9-.194l.052-.011.664-.14.4-.083q.893-.185,1.826-.368l.187-.037.188-.037c.375-.073.754-.146,1.138-.219l.385-.072.387-.073.391-.073q1.234-.229,2.524-.453l.866-.148c.222-.038.445-.077.669-.114l.421-.071c.141-.023.283-.048.423-.07l.427-.071.724-.118.477-.077.484-.077c.162-.025.324-.05.487-.076l.441-.069.445-.069.9-.136.908-.136c.227-.034.457-.069.686-.1l.694-.1,1.078-.155.743-.1.9-.125,1.112-.151.56-.075,1.131-.149.569-.074c.571-.073,1.148-.147,1.729-.219q.58-.074,1.168-.145l.56-.068.563-.069.565-.067.57-.068.29-.033.291-.033.783-.092.789-.088q1.919-.217,3.9-.425l.815-.085.384-.039.385-.039.3-.03.3-.031,1.219-.121.553-.054.03,0,.029,0,.4-.039.4-.038q1.453-.139,2.933-.274l.956-.085,1.2-.106c.4-.035.8-.069,1.207-.1l1.1-.093q.968-.08,1.946-.157l.653-.051.655-.051c.523-.041,1.047-.08,1.574-.119l.6-.045.3-.023.3-.022q1.264-.092,2.541-.179.485-.034.971-.065l.384-.026c.127-.01.254-.018.383-.025l.618-.04c.206-.014.413-.028.62-.04l1.236-.078h0q.619-.04,1.243-.076.95-.058,1.906-.111.632-.037,1.267-.072l.333-.019,1-.054,1.781-.092.082,0q1.287-.065,2.585-.126c.65-.03,1.3-.059,1.953-.088l1.968-.083,1.148-.046,1.493-.056.333-.012.332-.012.179-.007c.384-.014.768-.027,1.153-.04l2.007-.066.671-.021,1.708-.05,1.237-.032.421-.01h.014l.182,0,.9-.022,1.181-.027q1.045-.023,2.1-.042h0q1.367-.027,2.745-.048l1.389-.02,1.387-.017.9-.009.217,0,1.116-.011,1.117-.007,2.172-.012q1.159,0,2.327,0,6.715,0,13.247.125,1.4.027,2.786.059l.925.022.922.023.921.024,1.832.052.4.011.43.014.145,0,.73.023.118,0q.909.029,1.813.061l.417.014.487.018.9.033.49.018.031,0,.5.019.769.03.432.018.461.019.4.016.491.021,1.033.045.739.033.446.02.384.018.774.037,1.036.05.874.043.46.023.412.02.08,0,1.2.063.453.025.743.041.121.006.031,0,.527.03.511.029.529.03.371.022.284.017.318.019.817.049,1.653.1.074.005.755.048.114.007.812.053.835.056.545.037.154.01.133.01.829.057.548.04.277.02.823.059.349.025.223.017.211.014.853.065.066.005.175.012.571.044.648.05.662.052.185.014.1.009h.018l.978.08.624.051.8.066.792.067c7.666,2,11.964,4.033,11.964,5.812" transform="translate(-54.861 -1896.098)" fill="#91d1d1"/>
      <rect id="Rectangle_7817" data-name="Rectangle 7817" width="248.512" height="193.651" transform="translate(0 0)" fill="none"/>
      <rect id="Rectangle_7818" data-name="Rectangle 7818" width="248.512" height="193.651" transform="translate(0 0)" fill="none"/>
    </g>
    <path id="Path_30066" data-name="Path 30066" d="M335.066,715.66a3.035,3.035,0,1,1-3.035-3.035,3.035,3.035,0,0,1,3.035,3.035" transform="translate(-227.274 -378.419)" fill="#d6f4f4"/>
    <path id="Path_30068" data-name="Path 30068" d="M249.145,899.476a5.674,5.674,0,1,1-5.674-5.674,5.674,5.674,0,0,1,5.674,5.674" transform="translate(-143.389 -545.062)" fill="#d6f4f4"/>
    <path id="Path_30093" data-name="Path 30093" d="M460.547,1472.535a4.647,4.647,0,0,1-.918,1.194c-1.645,1.617-5.153,2.289-8.467,2.619-1.651.164-3.254.244-4.556.313q-1.339.071-2.686.083-.725.007-1.451,0c-1.567-.023-3.132-.106-4.684-.252a55.382,55.382,0,0,1-6.269-.946c-.321-.067-.666-.144-1.023-.229-2.592-.619-5.862-1.718-6.053-3.592a1.9,1.9,0,0,1,.126-.877c1.1-2.907,7.134-4.12,17.912-3.962.359.006.723.012,1.092.021,1.549.034,12.777.452,16.217,3.053a1.908,1.908,0,0,1,.76,2.579" transform="translate(-315.054 -1072.158)" fill="#d6f4f4"/>
    <g id="Group_19894" data-name="Group 19894" transform="translate(192.287 426.71)">
      <path id="Path_30095" data-name="Path 30095" d="M1457.989,2022.875l1.021,4.165c.388,1.581,1.622,4.944,3.764,5.641,2.746.894,7.624,1.849,15.021,1.65,4.953-.133,9.7-.292,12.081-.895,3.191-.807,4.05-5.257,4.207-7.549l.236-3.471Z" transform="translate(-1457.989 -2009.853)" fill="#5ca6b1"/>
      <path id="Path_30096" data-name="Path 30096" d="M1494.932,1970.71c-3.44-2.6-14.668-3.018-16.217-3.053-11.463-.258-17.87.937-19,3.941-1.021,2.707,3.951,4.065,6.949,4.7a58.573,58.573,0,0,0,15.089,1.119c3.917-.207,10.558-.509,13.023-2.932,1.629-1.6,1.405-2.831.159-3.773" transform="translate(-1459.448 -1959.454)" fill="#91d1d1"/>
      <path id="Path_30097" data-name="Path 30097" d="M1508.091,1988.6c-1.543-1.446,2.238-3.317,12.156-3.458s15.564,1.628,16.183,3.27c.813,2.156-24.383,3.893-28.339.188" transform="translate(-1503.765 -1975.564)" fill="#fff"/>
      <path id="Path_30098" data-name="Path 30098" d="M1459.189,1921.043l1.021,4.165c.387,1.58,1.621,4.944,3.764,5.641,2.746.894,7.624,1.849,15.021,1.651,4.954-.133,9.7-.292,12.082-.895,3.191-.807,4.05-5.257,4.206-7.549l.237-3.472Z" transform="translate(-1459.092 -1916.189)" fill="#5ca6b1"/>
      <path id="Path_30099" data-name="Path 30099" d="M1496.132,1868.878c-3.44-2.6-14.668-3.018-16.217-3.053-11.463-.257-17.871.937-19,3.941-1.021,2.707,3.951,4.066,6.949,4.7a58.553,58.553,0,0,0,15.089,1.119c3.916-.207,10.558-.509,13.023-2.932,1.629-1.6,1.406-2.831.159-3.773" transform="translate(-1460.551 -1865.791)" fill="#7ebac4"/>
      <path id="Path_30100" data-name="Path 30100" d="M1509.291,1886.771c-1.543-1.445,2.238-3.317,12.155-3.458s15.564,1.628,16.183,3.271c.813,2.156-24.384,3.894-28.338.187" transform="translate(-1504.87 -1881.9)" fill="#d6f4f4"/>
    </g>
    <path id="Path_30101" data-name="Path 30101" d="M769.232,1737.048c-.1.026-.214.052-.327.076l3.012-2.2a4.462,4.462,0,0,1-2.685,2.128" transform="translate(-631.894 -1318.708)" fill="#4c969b"/>
    <path id="Path_30115" data-name="Path 30115" d="M759.973,1356.831H711.994a.633.633,0,1,1,0-1.266h47.979a.633.633,0,1,1,0,1.266" transform="translate(-578.966 -969.783)" fill="#d6f4f4"/>
    <path id="Path_30116" data-name="Path 30116" d="M725.407,1426.454H677.428a.633.633,0,1,1,0-1.266h47.979a.633.633,0,0,1,0,1.266" transform="translate(-547.173 -1033.821)" fill="#d6f4f4"/>
    <path id="Path_30117" data-name="Path 30117" d="M782.928,1556.854H745.941a.633.633,0,1,1,0-1.266h36.987a.633.633,0,0,1,0,1.266" transform="translate(-610.191 -1153.761)" fill="#d6f4f4"/>
    <g id="Group_19895" data-name="Group 19895" transform="translate(254.214 410.065)">
      <path id="Path_30120" data-name="Path 30120" d="M2232.224,2204.146l.1,1.493.176,2.588c.021.3.052.63.1.983v0c.348,2.821,1.516,7.045,4.85,7.889a33.771,33.771,0,0,0,5.432.7c2.593.177,5.645.269,8.769.354,2.037.055,3.913.035,5.63-.041a46.041,46.041,0,0,0,12.027-1.9c.093-.029.184-.064.274-.1,2.349-1,3.712-4.737,4.151-6.529l1.2-4.9-.161,0h0l-3.115-.039h0l-1.723-.021h0l-2.52-.032-7.182-.09-11.116-.14-12.427-.157h0l-2.817-.035h0l-1.348-.017Z" transform="translate(-2232.044 -2160.358)" fill="#8edaea"/>
      <path id="Path_30121" data-name="Path 30121" d="M2230.264,2146.394a5.5,5.5,0,0,0,1.08,1.4c2.822,2.774,10.3,3.184,14.946,3.427l.363.02a71.04,71.04,0,0,0,10.338-.2,65.034,65.034,0,0,0,7.4-1.115c3.12-.66,8.061-1.987,8.316-4.492a2.228,2.228,0,0,0-.148-1.031,4.048,4.048,0,0,0-1.492-1.829c-1.432-1.039-3.76-1.776-6.972-2.241q-2.173-.313-4.885-.461-3.934-.218-8.989-.1c-.455.01-1.619.048-3.173.148a79.95,79.95,0,0,0-8.473.957c-3.026.534-5.858,1.319-7.393,2.467l-.024.018a2.244,2.244,0,0,0-.894,3.031" transform="translate(-2229.984 -2101.114)" fill="#d6f4f4"/>
      <path id="Path_30122" data-name="Path 30122" d="M2319,2164.4c1.813-1.7-2.631-3.9-14.289-4.065s-18.3,1.914-19.023,3.844c-.955,2.535,28.663,4.577,33.312.221" transform="translate(-2281.199 -2120.05)" fill="#fff"/>
      <path id="Path_30123" data-name="Path 30123" d="M2232.224,2083.779l.1,1.494.176,2.587a17.67,17.67,0,0,0,.741,4.019,11.684,11.684,0,0,0,.622,1.576,5.653,5.653,0,0,0,3.582,3.279c2.354.6,6.663.823,11.432.972.911.03,1.837.055,2.77.08a75.333,75.333,0,0,0,7.81-.173,42.921,42.921,0,0,0,9.847-1.767,4.925,4.925,0,0,0,2.348-1.915,12.735,12.735,0,0,0,1.476-2.821,16.084,16.084,0,0,0,.6-1.9l1.2-4.9-.16,0-3.117-.039-1.722-.022h0l-7.855-.1-12.963-.164-12.427-.157h0l-2.817-.036Z" transform="translate(-2232.044 -2049.647)" fill="#8edaea"/>
      <path id="Path_30124" data-name="Path 30124" d="M2230.264,2026.037a5.5,5.5,0,0,0,1.08,1.4c1.485,1.459,4.26,2.264,7.231,2.735a78.225,78.225,0,0,0,7.984.705h.006l.087,0c.132.008.264.014.4.02a71.1,71.1,0,0,0,9.02-.14h0q1.452-.116,2.892-.293c1.733-.213,3.448-.492,5.135-.84l.3-.061c3.119-.66,8.06-1.987,8.316-4.492a2.217,2.217,0,0,0-.148-1.032,4.05,4.05,0,0,0-1.492-1.83c-1.432-1.038-3.76-1.776-6.972-2.24a60.985,60.985,0,0,0-6.264-.526q-3.419-.13-7.61-.035c-.455.01-1.619.048-3.173.148a79.73,79.73,0,0,0-8.469.956h0c-3.027.534-5.86,1.319-7.4,2.468a.257.257,0,0,0-.024.016,2.246,2.246,0,0,0-.894,3.032" transform="translate(-2229.984 -1990.411)" fill="#d6f4f4"/>
      <path id="Path_30125" data-name="Path 30125" d="M2319,2044.035c1.813-1.7-2.631-3.9-14.289-4.065s-18.3,1.914-19.023,3.844c-.955,2.535,28.663,4.577,33.312.221" transform="translate(-2281.199 -2009.344)" fill="#fff"/>
      <path id="Path_30126" data-name="Path 30126" d="M2232.224,1963.425l.1,1.494.176,2.586a17.67,17.67,0,0,0,.741,4.02,11.739,11.739,0,0,0,.622,1.575,5.653,5.653,0,0,0,3.582,3.279c2.392.6,6.8.829,11.664.98.836.026,1.684.049,2.538.072a71.894,71.894,0,0,0,9.743-.352,39.939,39.939,0,0,0,7.914-1.588,4.928,4.928,0,0,0,2.348-1.913,12.736,12.736,0,0,0,1.476-2.823,16.032,16.032,0,0,0,.6-1.9l.646-2.638.554-2.258-.159,0h0l-4.839-.061h0l-12.743-.162-8.073-.1-4.347-.054-8.08-.1h0Z" transform="translate(-2232.044 -1938.947)" fill="#8edaea"/>
      <path id="Path_30127" data-name="Path 30127" d="M2230.176,1905.466c.029.068.06.137.094.208a5.476,5.476,0,0,0,1.081,1.4c1.485,1.461,4.261,2.265,7.233,2.736h0a77.984,77.984,0,0,0,7.984.706h0l.084,0c.132.008.265.014.4.02,2,.1,4.014.108,6.019.033q1.5-.054,2.994-.173h.007q1.332-.107,2.653-.263c1.815-.217,3.61-.506,5.374-.869l.3-.061a24.36,24.36,0,0,0,6.086-1.969h0c1.232-.667,2.125-1.5,2.23-2.522a2.239,2.239,0,0,0-.15-1.033c-.665-1.76-2.872-2.993-6.59-3.749h0a71.145,71.145,0,0,0-14.332-.909q-.7.008-1.414.025c-.361.008-1.166.034-2.26.094h-.005c-.283.015-.588.032-.907.054-1.682.108-3.823.286-6.016.578h0c-.75.1-1.5.214-2.249.341-3.119.537-6.058,1.336-7.625,2.521a3.107,3.107,0,0,0-1.015,1.191,2.021,2.021,0,0,0,.026,1.633" transform="translate(-2229.99 -1879.702)" fill="#d6f4f4"/>
      <path id="Path_30128" data-name="Path 30128" d="M2319,1923.673c1.813-1.7-2.631-3.9-14.289-4.065s-18.3,1.914-19.023,3.844c-.955,2.535,28.663,4.577,33.312.22" transform="translate(-2281.199 -1898.637)" fill="#fff"/>
      <path id="Path_30129" data-name="Path 30129" d="M2361.121,1832.523l.1,1.5h0l.175,2.584c.017.237.04.494.069.765.044.392.1.815.183,1.255a16.36,16.36,0,0,0,.4,1.714h0a10.592,10.592,0,0,0,1.266,2.845,5.139,5.139,0,0,0,3.022,2.3c.391.1.833.186,1.325.265.841.137,1.821.249,2.9.34h.007c2.08.175,4.544.281,7.145.364.927.03,1.871.055,2.821.08a70.307,70.307,0,0,0,10.551-.446h0c.645-.08,1.256-.168,1.836-.263a35.464,35.464,0,0,0,5.269-1.231c2.52-.82,3.969-4.774,4.426-6.632l1.2-4.9-.161,0-4.839-.061h0l-8-.1h0l-21.916-.277-1.239-.016-2.089-.026Z" transform="translate(-2350.601 -1818.546)" fill="#8edaea"/>
      <path id="Path_30130" data-name="Path 30130" d="M2360.052,1771.741c4.044-3.058,17.243-3.548,19.063-3.589,13.475-.3,21.007,1.1,22.339,4.632,1.2,3.182-4.645,4.779-8.169,5.524a68.861,68.861,0,0,1-17.737,1.315c-4.6-.244-12.412-.6-15.308-3.446-1.915-1.883-1.652-3.328-.187-4.435" transform="translate(-2348.538 -1759.302)" fill="#d6f4f4"/>
      <path id="Path_30131" data-name="Path 30131" d="M2447.9,1792.775c1.813-1.7-2.631-3.9-14.289-4.065s-18.3,1.914-19.023,3.844c-.956,2.534,28.663,4.577,33.311.22" transform="translate(-2399.755 -1778.24)" fill="#fff"/>
      <path id="Path_30132" data-name="Path 30132" d="M2232.224,1722.691l.1,1.493h0l.112,1.631.064.955a14.853,14.853,0,0,0,1.789,6.373,5.24,5.24,0,0,0,3.156,2.5c.122.031.252.061.384.09a37.481,37.481,0,0,0,5.079.61h0c1.658.113,3.5.191,5.433.255h0l.762.024c.836.027,1.685.05,2.538.073q1.014.028,1.972.03c7.6.029,12.708-1,15.686-1.97a3.436,3.436,0,0,0,.652-.294h0a6.69,6.69,0,0,0,2.307-2.587h0a15.8,15.8,0,0,0,1.365-3.37h0c.036-.133.07-.259.1-.377l.361-1.472.84-3.424-.161,0-4.84-.061h0l-2.7-.034-.87-.011-17.245-.219-12.427-.157Z" transform="translate(-2232.044 -1717.525)" fill="#8edaea"/>
      <path id="Path_30133" data-name="Path 30133" d="M2230.266,1664.949h0a5.449,5.449,0,0,0,1.08,1.4c2.321,2.281,7.794,2.963,12.246,3.269,1.1.076,2.146.128,3.062.178q1.774.093,3.555.1a68.348,68.348,0,0,0,12.84-1.147c.45-.085.9-.174,1.343-.268a30.932,30.932,0,0,0,4.558-1.276c1.968-.756,3.615-1.8,3.76-3.216a2.245,2.245,0,0,0-.149-1.031c-.588-1.56-2.386-2.7-5.371-3.469-3.773-.969-9.445-1.332-16.968-1.162-1.82.041-15.019.531-19.063,3.589a2.243,2.243,0,0,0-.893,3.03" transform="translate(-2229.986 -1658.289)" fill="#d6f4f4"/>
      <path id="Path_30134" data-name="Path 30134" d="M2319,1682.952c1.813-1.7-2.631-3.9-14.289-4.065s-18.3,1.914-19.023,3.844c-.955,2.534,28.663,4.577,33.312.221" transform="translate(-2281.199 -1677.227)" fill="#fff"/>
      <g id="Group_19221" data-name="Group 19221" transform="translate(0.001 0)" opacity="0.2">
        <g id="Group_19220" data-name="Group 19220">
          <g id="Group_19219" data-name="Group 19219" clip-path="url(#clip-path-2)">
            <path id="Path_30136" data-name="Path 30136" d="M2230.443,1686.849a17.617,17.617,0,0,0,.741,4.02l-.024.017a2.246,2.246,0,0,0-.936,2.944.552.552,0,0,1,.049.185l.17,2.49a17.612,17.612,0,0,0,.741,4.018l-.024.017a2.245,2.245,0,0,0-.936,2.943.555.555,0,0,1,.049.185l.17,2.49c.021.3.052.63.095.983v0c.348,2.822,1.517,7.046,4.85,7.889.448.113.967.213,1.546.3,1.1.169,2.42.3,3.886.4,2.592.177,5.645.268,8.769.354,1.888.051,3.638.038,5.252-.025a.506.506,0,0,0,.472-.383c.5-1.957,1.085-4.612,1.679-7.454.136-.647.272-1.3.406-1.965.083-.406.166-.814.248-1.22.178-.873.351-1.746.52-2.605.248-1.246.484-2.461.7-3.606.031-.159.063-.317.091-.472q.13-.671.25-1.3.061-.32.119-.629.118-.621.224-1.186c.182-.957.337-1.784.458-2.436,0-.01,0-.02.006-.031a4.011,4.011,0,0,0-.564-2.892l-.443-.7-.289-.455-.89-1.4-.727-1.138-.269-.423-1.714-2.687-2.44-3.828-.619-.97-.427-.67-.077-.121-1.955-3.065-1.315-2.065-1.005-1.574-.126-.2a.511.511,0,0,1,.427-.785,26.68,26.68,0,0,0,11.974-2.634,21.106,21.106,0,0,0,1.972-1.126,19.5,19.5,0,0,0,2.764-2.158,17.429,17.429,0,0,0,2.025-2.25,12.635,12.635,0,0,0,.957-1.464.51.51,0,0,0-.323-.741c-3.773-.924-9.364-1.269-16.732-1.1-.7.016-3.12.1-6.049.373-4.627.434-10.538,1.343-13.015,3.215a2.244,2.244,0,0,0-.893,3.031h0l.111,1.631.065.955a14.833,14.833,0,0,0,1.789,6.373,5.239,5.239,0,0,0,3.155,2.5c.122.032.252.061.384.09a35.367,35.367,0,0,0,4.662.58.508.508,0,0,1,.467.438c.016.11.032.222.048.335a.51.51,0,0,1-.434.582c-.578.082-1.156.172-1.73.27-3.119.537-6.058,1.336-7.626,2.522a3.106,3.106,0,0,0-1.014,1.191,2.016,2.016,0,0,0,.027,1.633c.016.04.034.08.052.121a.54.54,0,0,1,.048.183Z" transform="translate(-2229.986 -1658.291)" fill="#4c969b"/>
          </g>
        </g>
      </g>
    </g>
    <g id="Group_19896" data-name="Group 19896" transform="translate(199.132 311.735)">
      <path id="Path_30118" data-name="Path 30118" d="M2714.757,432.489c-.009.083-.021.165-.034.247a.958.958,0,0,1,.034-.247" transform="translate(-2620.756 -432.489)" fill="#521213"/>
      <path id="Path_30119" data-name="Path 30119" d="M1699.9,1066.6l-.378.152a.917.917,0,0,1-1.193-.509l-7.241-18.012a.917.917,0,0,1,.509-1.193l.378-.152a.917.917,0,0,1,1.193.509l7.24,18.012a.917.917,0,0,1-.509,1.193" transform="translate(-1679.171 -997.538)" fill="#00d6bc"/>
      <path id="Path_30135" data-name="Path 30135" d="M2257.986,1853.018a5.242,5.242,0,0,0,3.156,2.5c.122.031.251.061.384.09Z" transform="translate(-2200.658 -1739.067)" fill="#4c969b"/>
      <g id="Group_19224" data-name="Group 19224" transform="translate(55.083 98.743)" opacity="0.2">
        <g id="Group_19223" data-name="Group 19223">
          <g id="Group_19222" data-name="Group 19222" clip-path="url(#clip-path-3)">
            <path id="Path_30137" data-name="Path 30137" d="M2230.443,1691.587a17.617,17.617,0,0,0,.741,4.019l-.024.016a2.247,2.247,0,0,0-.936,2.944.553.553,0,0,1,.049.185l.17,2.49a17.609,17.609,0,0,0,.741,4.018l-.024.018a2.245,2.245,0,0,0-.936,2.943.556.556,0,0,1,.049.186l.17,2.49c.021.3.052.63.095.983v0c.348,2.821,1.517,7.046,4.85,7.889.448.113.967.213,1.546.3,2.038-6.312,6.058-18.868,6.2-20.163.186-1.736-.427-12.243-.427-12.243l.888-13.3.582-10.92c-4.627.433-10.538,1.343-13.015,3.215a2.244,2.244,0,0,0-.893,3.03h0l.111,1.631.065.955a14.832,14.832,0,0,0,1.789,6.373,5.238,5.238,0,0,0,3.155,2.5c.122.032.252.061.384.09a35.344,35.344,0,0,0,4.662.58.508.508,0,0,1,.467.438c.016.11.032.221.048.335a.511.511,0,0,1-.434.582c-.578.081-1.156.172-1.73.269-3.119.537-6.058,1.336-7.626,2.521a3.109,3.109,0,0,0-1.014,1.191,2.017,2.017,0,0,0,.027,1.633c.016.04.034.08.052.121a.539.539,0,0,1,.048.183Z" transform="translate(-2229.986 -1663.443)" fill="#4c969b"/>
          </g>
        </g>
      </g>
      <path id="Path_30138" data-name="Path 30138" d="M1934.866,2307.681c.7,1.822,4.369,4.84,5.939,6.17a34.131,34.131,0,0,1-16.02.444,28.6,28.6,0,0,0,2.4-3.021,32.889,32.889,0,0,0,7.676-3.594" transform="translate(-1894.184 -2157.257)"/>
      <path id="Path_30139" data-name="Path 30139" d="M1882.942,2338.524c.685-.155.7-.1.789.1a6.132,6.132,0,0,1,.575,2.29c.013.22.042.256-.658.414-13.41,3.025-18.176,4.06-32.031,2.34-.719-.09-.663-.125-.668-.347a6.232,6.232,0,0,1,.4-2.355c.075-.213.062-.273.762-.188,13.486,1.62,17.706.707,30.827-2.258" transform="translate(-1826.27 -2185.545)"/>
      <path id="Path_30140" data-name="Path 30140" d="M1878.213,2191.445c.1-.114.126-.233.49-.159,1,.2,1.578,1.414,1.831,2.484.029.123.182.678.22.862-1.161.279-2.33.538-3.492.823q.18.719.361,1.439,1.745-.422,3.5-.817.878,3.479,1.757,6.956c-4.394.982-8.655,2.484-13.028,3.392a66.307,66.307,0,0,1-4.27-5.461c-.554.06-1.107.107-1.663.146,1.23,1.953,2.573,3.843,3.982,5.67-.709.121-1.432.212-2.15.264-.924-1.191-1.823-2.4-2.683-3.633-.592.008-1.186.03-1.778.024q1.176,1.9,2.436,3.754c-.709.043-1.419,0-2.128-.005-.394-.63-.783-1.263-1.135-1.918-.532-.048-1.07-.07-1.6-.153.339.689.664,1.289,1.041,2.019a68.23,68.23,0,0,1-9.962-2.041c-.005,0-1.019-4.351,2.108-3.457,6.766.207,10.759-1.3,14.595-7.387.884-2.381,2.238-5.081,2.624-3.241Z" transform="translate(-1825.194 -2049.381)" fill="#c2172a"/>
      <path id="Path_30141" data-name="Path 30141" d="M2189.856,2223.224q.518,2.039,1.031,4.081c-1.249.279-2.494.564-3.737.866q.013-.546.025-1.092c-.3-.076-.6-.155-.9-.228.134-.671.265-1.342.4-2.012,1.056-.546,2.12-1.076,3.179-1.615" transform="translate(-2134.701 -2079.576)"/>
      <path id="Path_30142" data-name="Path 30142" d="M1618.548,2112.382c-.2.243,1.165,8.118,1.165,8.118l-12.068-5.121,3.033-2.525Z" transform="translate(-1602.485 -1977.626)"/>
      <path id="Path_30143" data-name="Path 30143" d="M1863.2,2139.391l-1.61,3.793-3.015-1.28.636-.863-.479-.666,1.4-1.377Z" transform="translate(-1833.286 -2002.108)"/>
      <path id="Path_30144" data-name="Path 30144" d="M1569.045,2128.381c.315.134.528.356.469.5l-.893,2.1c-.058.137-.367.139-.682.006l-24.144-10.244c-.313-.133-.523-.356-.465-.493l.893-2.1c.059-.139.365-.143.678-.01Z" transform="translate(-1543.319 -1982.83)"/>
      <path id="Path_30145" data-name="Path 30145" d="M1569.206,2056.96c2.863.992,7.069,5.5,10.124,4.584a.413.413,0,0,1,.408.1c.352.336.618,1.113-.123,2.95l-.355.837-2.823-1.2-.567,1.336,2.823,1.2-2.743,6.465-10.236-4.343-.433-6.621-1.347-.571.3,6.562-1.627-.69-.369-4.224-1.44-.612.3,4.2-1.612-.685-.116-2.085-1.255-.533.1,2.076-7.549-3.2s-.86-3.672,2.53-3.216c0,0,8.893,2.341,16.013-2.324" transform="translate(-1549.983 -1926.65)" fill="#840f20"/>
      <path id="Path_30146" data-name="Path 30146" d="M2017,625.442a15.3,15.3,0,0,1-5.879-10.733c.617-.791,2.252-.488,3.211-.194a21.393,21.393,0,0,1,3.2,1.27,6.569,6.569,0,0,1,3.177,2.73c.8,1.639.348,3.611-.36,5.293a3.631,3.631,0,0,1-.8,1.294,3.483,3.483,0,0,1-2.55.339" transform="translate(-1973.596 -599.629)" fill="#521213"/>
      <path id="Path_30147" data-name="Path 30147" d="M2015.1,961.03c.094,1.5.146,3.023.26,4.529a22.788,22.788,0,0,0,1.352,6.731c2.136,5.38,7.4,9.083,13,10.531a39.454,39.454,0,0,0,13.784.741,69.5,69.5,0,0,0,12.693-2.62c2.942-.886,5.839-3.33,5.649-6.4a9.207,9.207,0,0,0-.9-2.994q-10.83-25.278-21.662-50.558c-.639-1.492-1.37-3.089-2.786-3.882-2.561-1.434-5.665.5-7.834,2.477-7.182,6.55-13.105,15.08-14.227,24.735-.018.149-.033.3-.048.446-.545,5.4.376,10.838.715,16.261" transform="translate(-1976.441 -877.779)" fill="#ffa710"/>
      <rect id="Rectangle_7815" data-name="Rectangle 7815" width="11.006" height="12.573" transform="translate(52.176 33.607) rotate(-23.181)" fill="#f5785c"/>
      <path id="Path_30148" data-name="Path 30148" d="M2074.35,568.951a2.459,2.459,0,0,1-2.746,3,10.158,10.158,0,0,1-19.911,3.966l-1.241-5.188-2.392-10,5.525-1.321,11.709-2.8,2.526-.6,1.193,4.99h0v0l1.553,6.5a2.446,2.446,0,0,1,.82-.365.557.557,0,0,1,.07-.014l.086-.016.085-.013.085-.011c.042,0,.084-.007.127-.009.022,0,.044,0,.066,0h.061c.029,0,.057,0,.083,0h.021c.066,0,.131.008.2.016a2.418,2.418,0,0,1,.51.121h0c.038.014.075.027.113.043s.064.027.094.042a2.338,2.338,0,0,1,.235.124l.026.016.03.019a2.445,2.445,0,0,1,1.072,1.5" transform="translate(-2007.571 -546.096)" fill="#ff8e69"/>
      <path id="Path_30149" data-name="Path 30149" d="M2137.7,568.951a2.458,2.458,0,0,1-2.746,3,7.326,7.326,0,1,1-14.386,2.645l-1.935-8.092-1.7-7.1h0l11.71-2.8,2.526-.6,1.193,4.99h0v0l1.554,6.5a2.441,2.441,0,0,1,.819-.365.573.573,0,0,1,.07-.014l.086-.016.085-.013.085-.011c.042,0,.084-.007.126-.009.023,0,.044,0,.068,0h.06c.029,0,.056,0,.084,0h.02c.066,0,.132.008.2.016a2.4,2.4,0,0,1,.51.121h0c.038.014.076.027.114.043l.095.042a2.372,2.372,0,0,1,.234.124.207.207,0,0,1,.027.016l.03.019a2.445,2.445,0,0,1,1.072,1.5" transform="translate(-2070.917 -546.096)" fill="#ff9e83"/>
      <path id="Path_30150" data-name="Path 30150" d="M2204.743,820.256h0a1.857,1.857,0,0,0,1.516-2.13,1.045,1.045,0,0,0-1.26-.774l-1.8.43a1.046,1.046,0,0,0-.774,1.26,1.858,1.858,0,0,0,2.315,1.214" transform="translate(-2149.53 -786.454)" fill="#642425"/>
      <path id="Path_30151" data-name="Path 30151" d="M2108.567,756.749a.861.861,0,1,0,.637-1.038.861.861,0,0,0-.637,1.038" transform="translate(-2063.202 -729.762)" fill="#642425"/>
      <path id="Path_30152" data-name="Path 30152" d="M2216,731.061a.861.861,0,1,0,.638-1.038.862.862,0,0,0-.638,1.038" transform="translate(-2162.019 -706.134)" fill="#642425"/>
      <path id="Path_30153" data-name="Path 30153" d="M2203.948,698.282a.45.45,0,0,0-.272-.857l-4.255,1.161a.45.45,0,1,0,.236.868l4.255-1.16.036-.011" transform="translate(-2146.484 -676.159)" fill="#642425"/>
      <g id="Group_19227" data-name="Group 19227" transform="translate(11.99 9.907)" opacity="0.4">
        <g id="Group_19226" data-name="Group 19226">
          <g id="Group_19225" data-name="Group 19225" clip-path="url(#clip-path-4)">
            <path id="Path_30154" data-name="Path 30154" d="M1692.794,596.975,1708.289,556s36.973,15.969,42.4,52.216l-49.352,7.012Z" transform="translate(-1692.794 -556.003)" fill="#fefefe"/>
          </g>
        </g>
      </g>
      <path id="Path_30155" data-name="Path 30155" d="M2084.52,728.669l.041-.017,3.006-1.4a.45.45,0,1,0-.38-.815l-3.006,1.4a.45.45,0,0,0,.339.832" transform="translate(-2040.554 -702.817)" fill="#642425"/>
      <path id="Path_30156" data-name="Path 30156" d="M1729.3,1219.825c.021.028.043.056.066.083a11.451,11.451,0,0,0,7.375,3.815,24.787,24.787,0,0,0,4.143.053c1.635-.106,3.226-.372,3.811-.907a3.762,3.762,0,0,0,.769-3.492q-.316-.968-.631-1.934c-.179-.549-1.689-2.323-2.266-2.357a8.528,8.528,0,0,1-3.552-1.291c-.524-.287-1.048-.583-1.581-.837a10.7,10.7,0,0,0-1.459-.558,20.114,20.114,0,0,0-6.659-.907c-1.112.122-1.638,1.446-1.714,2.562a8.185,8.185,0,0,0,1.7,5.771" transform="translate(-1712.8 -1148.964)" fill="#ff9e83"/>
      <path id="Path_30157" data-name="Path 30157" d="M1749.047,1246.706c.022.028.043.056.066.083a11.449,11.449,0,0,0,7.375,3.814,24.771,24.771,0,0,0,4.143.053c1.635-.106,3.225-.372,3.811-.908a3.762,3.762,0,0,0,.769-3.492q-.316-.968-.631-1.933c-.179-.549-1.689-2.323-2.267-2.358a8.535,8.535,0,0,1-3.552-1.291,36.35,36.35,0,0,0-9.713,6.031" transform="translate(-1732.544 -1175.845)" fill="#f5785c"/>
      <path id="Path_30158" data-name="Path 30158" d="M1868.326,1246.19a5.533,5.533,0,0,0-6.144,4.958c-.194,3.079,2.259,5.16,5.334,5.408Z" transform="translate(-1836.594 -1180.906)" fill="#c2172a"/>
      <path id="Path_30159" data-name="Path 30159" d="M2134.271,954.8a15.733,15.733,0,0,0,13.228,7.6,23.937,23.937,0,0,0,9.692-2.135l17.122-7.332-19.891-46.451a8.245,8.245,0,0,0-6.286-4.965,6.266,6.266,0,0,1-.171,1.778,6.07,6.07,0,0,1-3.508,4.175,5.99,5.99,0,0,1-2.9.463,6.245,6.245,0,0,1-4.191-2.179c-8.044,6.127-9.96,14.571-7.413,24.277.018.068.035.135.054.2a45.67,45.67,0,0,0,2.15,6.129c.342.8-.644,3.541-.779,4.529a23.231,23.231,0,0,0-.228,5.136q.066.765.206,1.526a20.833,20.833,0,0,0,2.914,7.247" transform="translate(-2081.924 -863.892)" fill="#fff"/>
      <path id="Path_30160" data-name="Path 30160" d="M2234.688,987.295a10.423,10.423,0,0,0,9.923-8.34l4.417-23.224-4.4-10.277a5.455,5.455,0,0,0-.923-.123,5.686,5.686,0,0,0-5.546,3.526l-6.937,16.981q.1,1.452.34,2.9l2.747,16.745c.1.613.228,1.216.38,1.808" transform="translate(-2176.04 -904.186)" fill="#eaa837"/>
      <path id="Path_30161" data-name="Path 30161" d="M1763.382,1505.8l14.079,7.21,1.258-3.156,12.351-30.986s35.713-8.534,35.466-9.011-16.8-11.8-16.8-11.8c-.931-.133-16.5,3.494-25.546,5.634a12.042,12.042,0,0,0-8.578,7.69L1765,1501.247Z" transform="translate(-1745.729 -1375.778)" fill="#521213"/>
      <path id="Path_30162" data-name="Path 30162" d="M1986.974,1506.232l4.909,34.028.98,6.786H2007.9l-.141-4.213-.609-18.095-.431-12.817s13.7-3.651,23.828-6.583c5.71-1.654,10.287-3.078,10.643-3.494,0,0-5.974-3.856-12.057-7.457-5.98-3.541-12.065-6.834-12.674-5.965-.584.834-7.6,2.808-14.791,4.647-2.378.608-4.775,1.2-6.965,1.734a10.254,10.254,0,0,0-7.724,11.429" transform="translate(-1951.286 -1403.59)" fill="#642425"/>
      <path id="Path_30163" data-name="Path 30163" d="M2176.148,1524.739l-.431-12.817s13.7-3.651,23.827-6.583a29.359,29.359,0,0,0-1.414-10.952c-5.98-3.541-12.065-6.834-12.674-5.965-.585.834-7.6,2.808-14.791,4.647-.446,10.615,1.785,21.642,5.482,31.67" transform="translate(-2120.29 -1403.59)" fill="#521213"/>
      <path id="Path_30164" data-name="Path 30164" d="M2135.619,940.911c.068,1.1.114,2.209.18,3.315q.034.609.08,1.215a22.772,22.772,0,0,0,1.352,6.731c2.136,5.38,7.4,9.083,13,10.531a39.466,39.466,0,0,0,13.785.741,69.51,69.51,0,0,0,12.692-2.62c2.942-.886,5.839-3.33,5.649-6.4a9.2,9.2,0,0,0-.9-2.994q-10.83-25.278-21.661-50.558c-.64-1.492-1.37-3.089-2.786-3.882-2.561-1.434-5.665.5-7.834,2.477-7.011,6.395-12.824,14.677-14.138,24.051-.032.227-.062.456-.088.684-.018.149-.033.3-.048.446-.546,5.4.376,10.838.715,16.261" transform="translate(-2087.293 -859.274)" fill="#ffbc5a"/>
      <path id="Path_30165" data-name="Path 30165" d="M2135.619,985.821c.068,1.1.114,2.209.18,3.314a61.791,61.791,0,0,0,10.607-1.539c5.094-1.328,9.458-3.8,9.458-8.643l4.416-23.224.249-1.315a6.926,6.926,0,0,0-.178-3.434,9.721,9.721,0,0,0-3.488-5.216c-.015-.008-.031-.013-.045-.02a5.735,5.735,0,0,0-.938-.293,5.53,5.53,0,0,0-.924-.123,5.686,5.686,0,0,0-5.544,3.526l-3.687,9.026c-1.776,4.347-1.991,9.009-7.375,10.232a14.208,14.208,0,0,1-3.309.317q-.049.341-.088.684c-.018.149-.033.3-.048.446-.546,5.4.376,10.838.715,16.261" transform="translate(-2087.293 -904.183)" fill="#eaa837"/>
      <path id="Path_30166" data-name="Path 30166" d="M1913.442,977.483a10.935,10.935,0,0,0,11.436-8.05l5.867-21.736a5.68,5.68,0,1,0-10.922-3.12l-5.216,18.261a4.447,4.447,0,0,1-4.556,3.217l-18.362-1.155a5.4,5.4,0,0,0-.772,10.767Z" transform="translate(-1858.467 -899.708)" fill="#ffbc5a"/>
      <path id="Path_30167" data-name="Path 30167" d="M2336.417,710.541a1.3,1.3,0,0,0-.224.61,1.46,1.46,0,0,0,.16,1.185,1.286,1.286,0,0,0,1.249.288c.437-.086.921-.336.972-.778-.015.13-.619-.216-.666-.266-.279-.291-.112-.56-.248-.868a.718.718,0,0,0-1.244-.173" transform="translate(-2272.545 -687.971)" fill="#f5785c"/>
      <path id="Path_30168" data-name="Path 30168" d="M2391.493,1437.134l-8.713.81s4.594,17.321,15.584,11.61Z" transform="translate(-2315.441 -1356.544)" fill="#ff6a0d"/>
      <path id="Path_30169" data-name="Path 30169" d="M2403.223,1402.33l-9.379,3.221s4.2,15.759,14.1,10.606Z" transform="translate(-2325.617 -1324.532)" fill="#ffa710"/>
      <path id="Path_30170" data-name="Path 30170" d="M2069.013,567.917h0v0l.208,7.839-2.982-3.625a3.081,3.081,0,0,0-3.576-.885,34.037,34.037,0,0,1-7.381,2.181c-2.92.511-4.8.441-4.935.564-.247.228.163,3.906.1,3.662l-2.392-10,5.525-1.321h0l11.709-2.8Z" transform="translate(-2007.571 -553.02)" fill="#f5785c"/>
      <path id="Path_30171" data-name="Path 30171" d="M1976.8,444.9a12.188,12.188,0,0,0,3.238,8.053,8.66,8.66,0,0,0,1.6,1.324c2.528,1.615,6.354.869,9.076.262.621-.139,5.856-1.554,8.163-2.035.367-.077.658-.128.847-.149.137-.016.22-.013.234.011l0,.006a42.117,42.117,0,0,0,2.673,4.341c1.108,1.352.568,1.518,2.132.773a7.436,7.436,0,0,0,2.331-2.349c.206-.29.39-.567.544-.8a6.808,6.808,0,0,0,.988-5.863c-.009-.024-.018-.049-.028-.074a4.162,4.162,0,0,0-4.833-2.656,9.257,9.257,0,0,0-3.807-4.944h0a9.135,9.135,0,0,0-5.19-1.533c-1.715.042-3.7.806-4.227,2.593a8.545,8.545,0,0,0-.28-2.186c-.574-2.083-2.083-3.445-4.972-3.37-4.239.112-8.482,4.329-8.488,8.6" transform="translate(-1942.031 -435.991)" fill="#642425"/>
      <path id="Path_30172" data-name="Path 30172" d="M2049.4,2136.257l.979,6.786h15.033l-.141-4.212a140.509,140.509,0,0,1-15.871-2.574" transform="translate(-2008.799 -1999.585)" fill="#521213"/>
      <path id="Path_30173" data-name="Path 30173" d="M1763.382,2001.153l14.079,7.21,1.258-3.156q-6.685-4.573-13.721-8.6Z" transform="translate(-1745.729 -1871.137)" fill="#3f0d0f"/>
    </g>
    <g id="Group_19891" data-name="Group 19891" transform="translate(57.414 277.042)">
      <g id="Group_19890" data-name="Group 19890" clip-path="url(#clip-path-5)">
        <g id="Group_19837" data-name="Group 19837">
          <g id="Group_19836" data-name="Group 19836" clip-path="url(#clip-path-5)">
            <path id="Path_31407" data-name="Path 31407" d="M247.564,132.96l3.852,1.936,5.963,5.74h38.589l31.838,67.794,11.969,11.522,3.678,1.748-5.811,7.676H301.264a28.082,28.082,0,0,1-25.418-16.145l-34.093-72.6Z" transform="translate(-241.753 -106.416)" fill="#065484"/>
          </g>
        </g>
        <g id="Group_19839" data-name="Group 19839" transform="translate(0 26.544)">
          <g id="Group_19838" data-name="Group 19838" transform="translate(0)" clip-path="url(#clip-path-7)">
            <path id="Path_31408" data-name="Path 31408" d="M236.853,561.9l2.254-3.952,5.263-7.676,4.314-6.783,50.448,3.389.978,12.168-9.9,6.183-19.276.634Z" transform="translate(-197.433 -461.534)" fill="#075584"/>
          </g>
        </g>
        <g id="Group_19841" data-name="Group 19841">
          <g id="Group_19840" data-name="Group 19840" clip-path="url(#clip-path-5)">
            <path id="Path_31410" data-name="Path 31410" d="M301.264,221.7h36.378l-35.133-74.81a24.23,24.23,0,0,0-21.931-13.93H241.753l34.093,72.6A28.082,28.082,0,0,0,301.264,221.7" transform="translate(-235.942 -106.416)" fill="#1075b2"/>
            <path id="Path_31411" data-name="Path 31411" d="M331.853,235.011H358.7l-30.59-65.271a24.23,24.23,0,0,0-21.94-13.947h-29.3l29.551,63.053a28.081,28.081,0,0,0,25.427,16.165" transform="translate(-264.014 -124.691)" fill="#065484"/>
          </g>
        </g>
        <g id="Group_19843" data-name="Group 19843" transform="translate(12.861 31.102)">
          <g id="Group_19842" data-name="Group 19842" clip-path="url(#clip-path-9)">
            <path id="Path_31412" data-name="Path 31412" d="M319.975,241.454h44.7l-30.59-65.271a24.229,24.229,0,0,0-21.939-13.947h-29.3Z" transform="translate(-284.041 -160.95)" fill="#fff7e9"/>
          </g>
        </g>
        <g id="Group_19845" data-name="Group 19845" transform="translate(13.464 32.388)">
          <g id="Group_19844" data-name="Group 19844" clip-path="url(#clip-path-10)">
            <path id="Path_31414" data-name="Path 31414" d="M504.62,154.843H455.394l-4.122-7.927,52.08.317Z" transform="translate(-458.212 -149.975)" fill="#fff"/>
          </g>
        </g>
        <g id="Group_19847" data-name="Group 19847">
          <g id="Group_19846" data-name="Group 19846" clip-path="url(#clip-path-5)">
            <path id="Path_31416" data-name="Path 31416" d="M208.112,27.61s2.3-1.11,2.854-4.8-.555-5.232-.555-5.232,2.775-1.308,2.339-5.43-4.083-6.54-8.957-6.421A19.689,19.689,0,0,0,196.3,7.119a17.09,17.09,0,0,0-8.839-.317c-4.954,1.11-8.561,7.253-7.095,14.7s7,16.191,11.4,15.418Z" transform="translate(-98.775 -4.584)" fill="#764153"/>
          </g>
        </g>
        <g id="Group_19852" data-name="Group 19852" transform="translate(81.262 1.144)">
          <g id="Group_19851" data-name="Group 19851" transform="translate(0)" clip-path="url(#clip-path-12)">
            <path id="Path_31417" data-name="Path 31417" d="M185.65,0s-6.4,7.372-1.379,10.7,13.282.832,13.282.832a19.213,19.213,0,0,0,6.8,1.843c4.374.476,5.653-.55,5.653-.55l1.515,1.03,2.5,10.437-9.665,10.039a37.371,37.371,0,0,1-6.149,2.527c-2.675.714-8.858.059-8.858.059l-10-9.81-8.9-18.192,9.394-7.774Z" transform="translate(-179.348 -1.144)" fill="#5b2c3e"/>
            <g id="Group_19850" data-name="Group 19850" transform="translate(18.171 1.38)" opacity="0.11">
              <g id="Group_19849" data-name="Group 19849" transform="translate(0)">
                <g id="Group_19848" data-name="Group 19848" clip-path="url(#clip-path-13)">
                  <path id="Path_31418" data-name="Path 31418" d="M206.3,13.723c-2.531-1.423-9.116-1.506-10.266.119s3.012,4.954,8.125,3.527,2.465-3.464,2.14-3.646" transform="translate(-195.846 -12.64)" fill="#fcf1db"/>
                </g>
              </g>
            </g>
          </g>
        </g>
        <g id="Group_19854" data-name="Group 19854">
          <g id="Group_19853" data-name="Group 19853" clip-path="url(#clip-path-5)">
            <path id="Path_31420" data-name="Path 31420" d="M251.317,145.463h0a3.85,3.85,0,0,0,5.21-1.581l6.223-11.643-6.791-3.63-6.223,11.644a3.85,3.85,0,0,0,1.581,5.21" transform="translate(-162.554 -102.934)" fill="#d16319"/>
            <path id="Path_31421" data-name="Path 31421" d="M220.26,78.81v9.75c0,5.39-2.22,10.147-8.244,10.147s-8.125-6.223-8.125-9.671c0,0-3.171.4-3.171-3.29s4.2-3.567,4.2-1.586l.4,2.537h1.744s.674-5.272,4.122-7.531c0,0,.594,1.189,4.241,1.031s4.835-1.387,4.835-1.387" transform="translate(-110.369 -63.077)" fill="#fe964f"/>
          </g>
        </g>
        <g id="Group_19859" data-name="Group 19859" transform="translate(90.351 15.733)">
          <g id="Group_19858" data-name="Group 19858" transform="translate(0)" clip-path="url(#clip-path-15)">
            <g id="Group_19857" data-name="Group 19857" transform="translate(5.945 6.977)" opacity="0.54">
              <g id="Group_19856" data-name="Group 19856" transform="translate(0)">
                <g id="Group_19855" data-name="Group 19855" transform="translate(0)" clip-path="url(#clip-path-16)">
                  <path id="Path_31422" data-name="Path 31422" d="M234.669,117.17a3.409,3.409,0,1,0,3.409-3.409,3.409,3.409,0,0,0-3.409,3.409" transform="translate(-234.669 -113.761)" fill="#ef5330"/>
                </g>
              </g>
            </g>
            <path id="Path_31423" data-name="Path 31423" d="M213.836,71.884a10.218,10.218,0,0,1-7.187,2.378,17.1,17.1,0,0,1-3.964-.608,12.879,12.879,0,0,0-3.9,5.521L196,80.1s-.634-2.816-2.325-2.98-2.22-.006-2.22-.111,3.884-4.545,3.884-4.545l7.953-3.054h9.169Z" transform="translate(-192.446 -71.287)" fill="#ce641d"/>
          </g>
        </g>
        <g id="Group_19861" data-name="Group 19861">
          <g id="Group_19860" data-name="Group 19860" clip-path="url(#clip-path-5)">
            <path id="Path_31425" data-name="Path 31425" d="M221.662,103.244h0a1.222,1.222,0,0,0,1.222-1.222v-.738a1.222,1.222,0,0,0-2.444,0v.738a1.222,1.222,0,0,0,1.222,1.222" transform="translate(-116.93 -80.086)" fill="#63300e"/>
            <path id="Path_31426" data-name="Path 31426" d="M224.752,149.653a2.021,2.021,0,0,0,2.127-1.816.515.515,0,0,0-1.026-.1,1,1,0,0,1-1.1.884h-.033a1.125,1.125,0,0,1-1.161-1.041.515.515,0,0,0-1.026.1,2.152,2.152,0,0,0,2.169,1.975h.053" transform="translate(-121.344 -117.749)" fill="#63300e"/>
            <path id="Path_31427" data-name="Path 31427" d="M192.982,101.707l2.391,5.42a1.057,1.057,0,0,1-.439,1.343l-2.111,1.217Z" transform="translate(-83.996 -81.403)" fill="#c1391e"/>
            <path id="Path_31428" data-name="Path 31428" d="M276.185,181.777a4.17,4.17,0,0,0,3.016-1.367,1.308,1.308,0,0,0,.31-1.3,2.243,2.243,0,0,0-1.753-1.385c-1.435-.327-3.636-2.619-3.658-2.642l-.029-.031-.04-.015c-.018-.007-1.761-.645-2.626.653a2.416,2.416,0,0,0-.2,1.9,5.908,5.908,0,0,0,2.849,3.6,4.314,4.314,0,0,0,2.128.592m-2.325-6.406c.29.3,2.352,2.382,3.814,2.716a1.908,1.908,0,0,1,1.478,1.13.929.929,0,0,1-.225.938,3.677,3.677,0,0,1-4.686.7,5.522,5.522,0,0,1-2.668-3.362,2.057,2.057,0,0,1,.143-1.6,1.867,1.867,0,0,1,2.145-.523" transform="translate(-183.732 -139.96)"/>
            <path id="Path_31429" data-name="Path 31429" d="M88.4,277.444a35.179,35.179,0,0,0,5.656-.456,29.567,29.567,0,0,0,10.217-3.493l-5.72-9.239.046-.028a20.119,20.119,0,0,1-6.76,2.107,27.208,27.208,0,0,1-16.677-3.223,26.635,26.635,0,0,1-11.654-11.14,18.418,18.418,0,0,1-2.068-6.208c0,.041,0,.062,0,.062L50.6,246.5a27.821,27.821,0,0,0,2.948,9.852,34.6,34.6,0,0,0,5.9,8.415A42.342,42.342,0,0,0,83.3,277.082a36.272,36.272,0,0,0,5.1.363" transform="translate(35.583 -196.701)" fill="#d61e1e"/>
          </g>
        </g>
        <g id="Group_19863" data-name="Group 19863" transform="translate(86.185 49.063)">
          <g id="Group_19862" data-name="Group 19862" clip-path="url(#clip-path-18)">
            <path id="Path_31430" data-name="Path 31430" d="M48.71,252.456s1.605,15.557,20.63,23.484,29.1-1.665,29.1-1.665l1.64,4.448L92.169,284.5l-23.385-2.014L48.928,271.263l-6.54-12.517s.05-8.59,6.322-6.29" transform="translate(-44.762 -250.807)" fill="#a30404"/>
            <path id="Path_31431" data-name="Path 31431" d="M34.108,325.835s-1.644,5.6,2.121,9.754,5.939,5.154,5.939,5.154l5.377-6.684s-5.854-10.068-6.421-10.072-7.015,1.848-7.015,1.848" transform="translate(9.494 -308.371)" fill="#f0f0f0"/>
            <path id="Path_31432" data-name="Path 31432" d="M106.416,361.948a1.308,1.308,0,1,0,1.308-1.308,1.308,1.308,0,0,0-1.308,1.308" transform="translate(-66.499 -337.707)" fill="#f0f0f0"/>
            <path id="Path_31433" data-name="Path 31433" d="M129.446,361.551a1.308,1.308,0,1,0,1.308-1.308,1.308,1.308,0,0,0-1.308,1.308" transform="translate(-94.127 -337.389)" fill="#f0f0f0"/>
          </g>
        </g>
        <g id="Group_19865" data-name="Group 19865">
          <g id="Group_19864" data-name="Group 19864" clip-path="url(#clip-path-5)">
            <path id="Path_31435" data-name="Path 31435" d="M271.037,212.988h0a12.238,12.238,0,0,0,16.974-3.38l21.057-31.531a16.343,16.343,0,0,0-4.514-22.668,16.019,16.019,0,0,0-22.217,4.425l-16.858,25.243a20.124,20.124,0,0,0,5.559,27.911" transform="translate(-214.182 -122.224)" fill="#ff5155"/>
          </g>
        </g>
        <g id="Group_19867" data-name="Group 19867" transform="translate(47.905 30.487)">
          <g id="Group_19866" data-name="Group 19866" clip-path="url(#clip-path-20)">
            <path id="Path_31436" data-name="Path 31436" d="M368.538,268.07l-3.329-39.952s-14.454,25.683-23.636,32.461-8.825,10.7-8.825,10.7,10.226,11.534,11.177,11.534,11.732,1.665,14.269-3.329,10.345-11.415,10.345-11.415" transform="translate(-332.91 -213.064)" fill="#ef333c"/>
          </g>
        </g>
        <g id="Group_19869" data-name="Group 19869">
          <g id="Group_19868" data-name="Group 19868" clip-path="url(#clip-path-5)">
            <path id="Path_31438" data-name="Path 31438" d="M299.46,536.141s6.974,3.274,7.33,7.188,1.139,10.96-4.982,10.533-5.836-8.54-5.836-8.54-4.057-1-4.839-3.345.356-5.836.356-5.836Z" transform="translate(-215.133 -429.108)" fill="#fe964f"/>
          </g>
        </g>
        <g id="Group_19871" data-name="Group 19871" transform="translate(75.726 107.033)">
          <g id="Group_19870" data-name="Group 19870" transform="translate(0)" clip-path="url(#clip-path-22)">
            <path id="Path_31439" data-name="Path 31439" d="M333.811,524.73s-1.249,5.232,1.248,8.026c.268.3.523.571.766.817a10.663,10.663,0,0,1,3.1,7.616l-.058,5-3.151-1.011-7.669-5.707-1.249-8.858,3.686-5.47Z" transform="translate(-329.927 -527.008)" fill="#d16319"/>
          </g>
        </g>
        <g id="Group_19873" data-name="Group 19873">
          <g id="Group_19872" data-name="Group 19872" clip-path="url(#clip-path-5)">
            <path id="Path_31441" data-name="Path 31441" d="M321.829,268.053h3.865a3.973,3.973,0,0,0,3.973-3.973V203.25a5.906,5.906,0,1,0-11.811,0v60.83a3.973,3.973,0,0,0,3.973,3.973" transform="translate(-243.16 -157.947)" fill="#d61e1e"/>
          </g>
        </g>
        <g id="Group_19875" data-name="Group 19875" transform="translate(74.695 39.397)">
          <g id="Group_19874" data-name="Group 19874" transform="translate(0)" clip-path="url(#clip-path-24)">
            <path id="Path_31442" data-name="Path 31442" d="M343.155,178.474v37.378l4.777,1.744-4.69,1.823V257.31l-11.029-1.03,3.386-76.369Z" transform="translate(-338.986 -182.242)" fill="#a30404"/>
            <rect id="Rectangle_8163" data-name="Rectangle 8163" width="18.584" height="5.208" transform="translate(-4.036 65.715)" fill="#f0f0f0"/>
            <path id="Path_31443" data-name="Path 31443" d="M352.223,505.072a1.744,1.744,0,1,0,1.737-1.585,1.666,1.666,0,0,0-1.737,1.585" transform="translate(-350.747 -442.37)" fill="#f0f0f0"/>
            <path id="Path_31444" data-name="Path 31444" d="M352.223,482.836a1.744,1.744,0,1,0,1.737-1.585,1.666,1.666,0,0,0-1.737,1.585" transform="translate(-350.747 -424.573)" fill="#f0f0f0"/>
          </g>
        </g>
        <g id="Group_19877" data-name="Group 19877">
          <g id="Group_19876" data-name="Group 19876" clip-path="url(#clip-path-5)">
            <path id="Path_31446" data-name="Path 31446" d="M5.162,314.665a7.828,7.828,0,1,0,7.828-7.828,7.828,7.828,0,0,0-7.828,7.828" transform="translate(128.114 -245.581)" fill="#fe964f"/>
          </g>
        </g>
        <g id="Group_19879" data-name="Group 19879" transform="translate(133.276 61.256)">
          <g id="Group_19878" data-name="Group 19878" transform="translate(0)" clip-path="url(#clip-path-26)">
            <path id="Path_31447" data-name="Path 31447" d="M7.214,302.767s-2.448,6.54,3.136,9.948a7.9,7.9,0,0,0,9.666-.541L20.452,317l-9.2,7.174-4.989-3.448L0,315.569s2.5-6.3,2.814-7.214,4.4-5.589,4.4-5.589" transform="translate(-3.765 -303.58)" fill="#d8661a"/>
          </g>
        </g>
        <g id="Group_19881" data-name="Group 19881">
          <g id="Group_19880" data-name="Group 19880" clip-path="url(#clip-path-5)">
            <path id="Path_31449" data-name="Path 31449" d="M46.064,285.832Z" transform="translate(97.722 -219.057)" fill="#4496d3"/>
          </g>
        </g>
        <g id="Group_19889" data-name="Group 19889">
          <g id="Group_19888" data-name="Group 19888" clip-path="url(#clip-path-5)">
            <path id="Path_31457" data-name="Path 31457" d="M494.015,290.511s-6.778,2.526-7.729,11.682,6.54,19.263,6.54,19.263-8.977-7.61-8.145-19.144,9.334-11.8,9.334-11.8" transform="translate(-440.801 -232.514)" fill="#ffc35a"/>
            <path id="Path_31458" data-name="Path 31458" d="M402.7,443.923s-2.616,5.945-11.89,5.39a18.851,18.851,0,0,1-13.793-6.976s2.775,8.719,13.555,9.037,11.653-6.9,12.128-7.451" transform="translate(-328.008 -354.031)" fill="#ffc35a"/>
            <path id="Path_31459" data-name="Path 31459" d="M489.125,274.286s-14.982-1.486-13.555,17.657c0,0-5.945-8.621,4.637-17.419,3.567-2.556,8.918-.238,8.918-.238" transform="translate(-433.771 -218.757)" fill="#ffc35a"/>
            <path id="Path_31460" data-name="Path 31460" d="M157.695,375.165q1.768,0,3.613-.15a.515.515,0,0,0-.084-1.027c-9.858.8-16.169-1.877-19.726-4.267a17.6,17.6,0,0,1-5.414-5.431.515.515,0,0,0-.908.487,18.212,18.212,0,0,0,5.692,5.762,25.97,25.97,0,0,0,8.06,3.573,34.9,34.9,0,0,0,8.766,1.054" transform="translate(-38.793 -291.347)" fill="#1075b2"/>
            <path id="Path_31461" data-name="Path 31461" d="M207.978,391.12a.515.515,0,0,0,.072-1.025c-6.719-.96-10.786-3.384-13.016-5.249A12.514,12.514,0,0,1,191.778,381a.515.515,0,0,0-.94.422,13.173,13.173,0,0,0,3.479,4.167c2.335,1.969,6.588,4.526,13.588,5.526a.51.51,0,0,0,.073.005" transform="translate(-96.62 -304.695)" fill="#1075b2"/>
            <g id="Group_19892" data-name="Group 19892" transform="translate(137.519 57.618)">
              <path id="Path_29962" data-name="Path 29962" d="M1399.4,395.026a.476.476,0,0,1,.057.038.111.111,0,0,1-.042.193.439.439,0,0,0-.322.415.111.111,0,0,1-.176.089h0a.441.441,0,0,1,.485-.733" transform="translate(-1392.052 -393.826)" fill="#fff"/>
              <path id="Path_29992" data-name="Path 29992" d="M707.077,276.612l-.015,3.535-.022,5.236,0,1.1-.009,2.149L707,294.338a1.542,1.542,0,0,1-1.552,1.534l-7.09-.033a1.54,1.54,0,0,1-1.537-1.547l.019-4.521.017-4.137.007-1.631.01-2.512,0-.444.019-4.481a1.542,1.542,0,0,1,1.552-1.534l4.793.022,2.2.01h.1a1.54,1.54,0,0,1,1.537,1.547" transform="translate(-696.823 -275.032)" fill="#197daf"/>
              <g id="Group_19001" data-name="Group 19001" transform="translate(0.054 0)" opacity="0.89">
                <g id="Group_19000" data-name="Group 19000" transform="translate(0)">
                  <g id="Group_18999" data-name="Group 18999" clip-path="url(#clip-path-29)">
                    <path id="Path_29993" data-name="Path 29993" d="M796.334,1701.111l-.024,5.707a1.542,1.542,0,0,1-1.552,1.534l-7.09-.033a1.543,1.543,0,0,1-.678-.159,19.614,19.614,0,0,0,7.451-4.659,17.565,17.565,0,0,0,1.892-2.391" transform="translate(-786.184 -1687.513)" fill="#05517f"/>
                    <path id="Path_29994" data-name="Path 29994" d="M711.07,275.066a10.436,10.436,0,0,1-3.4,4.007,17.337,17.337,0,0,1-5.169,2.419l0-.444.019-4.481a1.542,1.542,0,0,1,1.552-1.534l4.793.022Z" transform="translate(-702.502 -275.033)" fill="#66ade1"/>
                    <path id="Path_29995" data-name="Path 29995" d="M754.426,339.233l-1.375-.006a.341.341,0,0,0-.335.346v.249a.341.341,0,0,1-.335.346l-2.68-.012a.341.341,0,0,1-.332-.35v-.249a.341.341,0,0,0-.332-.35l-.484,0-1.2-.006a1.08,1.08,0,0,0-1.087,1.074l-.073,17.3a1.08,1.08,0,0,0,1.077,1.083l7.076.033a1.08,1.08,0,0,0,1.087-1.074l.073-17.3a1.08,1.08,0,0,0-1.077-1.083" transform="translate(-745.773 -338.589)" fill="#fefefe"/>
                  </g>
                </g>
              </g>
              <g id="Group_19089" data-name="Group 19089" transform="translate(0.009 0.022)" opacity="0.48">
                <g id="Group_19088" data-name="Group 19088" transform="translate(0 0)">
                  <g id="Group_19087" data-name="Group 19087" clip-path="url(#clip-path-30)">
                    <path id="Path_30046" data-name="Path 30046" d="M709.71,277.51l-.5.475-8.356,7.868-.471.444.013-2.956.471-.444,4.247-4,1.645-1.549,2.3.011a1.542,1.542,0,0,1,.658.15" transform="translate(-700.354 -277.35)" fill="#fefefe"/>
                    <path id="Path_30047" data-name="Path 30047" d="M708.056,386.869l-.015,3.535-.472.445-9.277,8.736-.471.444.018-4.137.471-.444,9.242-8.7.417-.393a1.536,1.536,0,0,1,.087.518" transform="translate(-697.821 -385.312)" fill="#fefefe"/>
                    <path id="Path_30048" data-name="Path 30048" d="M718.358,1360.468l0,1.1-.472.444-8.6,8.1-.533.5a1.545,1.545,0,0,1-.491-.633l.448-.422,9.178-8.643Z" transform="translate(-708.159 -1350.14)" fill="#fefefe"/>
                  </g>
                </g>
              </g>
            </g>
            <path id="Path_31456" data-name="Path 31456" d="M41.271,322.181l2.55-1.668a1.687,1.687,0,0,1,2.235,2.474l-1.918,2.368a2.164,2.164,0,1,1-2.867-3.174" transform="translate(95.486 -256.307)" fill="#fe964f"/>
          </g>
        </g>
      </g>
    </g>
  </g>
</svg>
