<svg id="Claims" xmlns="http://www.w3.org/2000/svg" width="16" height="13" viewBox="0 0 16 13">
  <g id="Scan">
    <path id="Scan-2" data-name="Scan" d="M10.619,13a.539.539,0,1,1,0-1.078h1.159a1.769,1.769,0,0,0,1.79-1.743V7.608H11.66v.716a1.644,1.644,0,0,1-1.651,1.637H5.991a1.645,1.645,0,0,1-1.65-1.637V7.608H2.434v2.574a1.766,1.766,0,0,0,1.784,1.739H5.4A.539.539,0,1,1,5.4,13H4.217a2.86,2.86,0,0,1-2.891-2.818V7.608H.554a.539.539,0,1,1,0-1.078H15.447a.539.539,0,1,1,0,1.078h-.772v2.571A2.863,2.863,0,0,1,11.777,13ZM4.538,5.433a.2.2,0,0,1-.2-.194v-.9A1.644,1.644,0,0,1,5.992,2.7h4.018a1.656,1.656,0,0,1,1.17.478,1.63,1.63,0,0,1,.481,1.158v.9a.2.2,0,0,1-.2.194Zm9.029-1.271V2.821a1.769,1.769,0,0,0-1.79-1.743H10.619A.546.546,0,0,1,10.065.54.547.547,0,0,1,10.619,0h1.159a2.862,2.862,0,0,1,2.9,2.821V4.162a.554.554,0,0,1-1.107,0Zm-12.241,0V2.818A2.86,2.86,0,0,1,4.217,0H5.4a.547.547,0,0,1,.554.539.546.546,0,0,1-.554.539H4.217A1.766,1.766,0,0,0,2.434,2.818V4.161a.554.554,0,0,1-1.108,0Z" fill="#3b3e4f"/>
  </g>
</svg>
