<svg id="add_product"  xmlns="http://www.w3.org/2000/svg" xmlns:xlink="http://www.w3.org/1999/xlink" width="28" height="28" viewBox="0 0 28 28">
  <defs>
    <clipPath id="clip-path">
      <rect id="Rectangle_148"  width="24" height="24" transform="translate(397 977)" fill="#fff" stroke="#707070" stroke-width="1"/>
    </clipPath>
  </defs>
  <circle id="Ellipse_9925"  cx="14" cy="14" r="14" fill="#2bafb7"/>
  <g id="plus" transform="translate(2 2)">
    <g id="Mask_Group_162"  transform="translate(-397 -977)" clip-path="url(#clip-path)">
      <g id="plus-2"  transform="translate(402 982)">
        <path id="Shape" d="M-.119,13A.878.878,0,0,1-1,12.125V-.125A.878.878,0,0,1-.119-1a.878.878,0,0,1,.881.875v12.25A.878.878,0,0,1-.119,13Z" transform="translate(7.119 1)" fill="#fff"/>
        <path id="Shape-2"  d="M12.125.762H-.125A.878.878,0,0,1-1-.119.878.878,0,0,1-.125-1h12.25A.878.878,0,0,1,13-.119.878.878,0,0,1,12.125.762Z" transform="translate(1 7.119)" fill="#fff"/>
      </g>
    </g>
  </g>
</svg>
