<svg xmlns="http://www.w3.org/2000/svg" width="108.273" height="68.364" viewBox="0 0 108.273 68.364">
    <g data-name="receipt and documents icon">
        <g data-name="Group 17847">
            <g data-name="Group 17348">
                <path data-name="Path 28533" d="M0 0v53.389h42.376V11.074L32.62 0z" transform="rotate(14.98 11.46 258.357)" style="fill:#2399ff"/>
                <path data-name="Path 28534" d="M75.584 0v11.116h9.794z" transform="rotate(14.98 33.017 95.283)" style="fill:#1b75c3"/>
            </g>
            <text transform="rotate(14.98 -116.286 265.38)" style="font-size:12px;fill:#fff;font-family:Poppins-Medium,Poppins;font-weight:500;letter-spacing:-.024em"><tspan x="0" y="0">DOC</tspan></text>
        </g>
        <g data-name="Group 17846">
            <g data-name="Group 17348">
                <path data-name="Path 28533" d="M0 0v53.389h42.376V11.074L32.62 0z" transform="rotate(-16 60.634 8.521)" style="fill:#fec735"/>
                <path data-name="Path 28534" d="M75.584 0v11.116h9.794z" transform="rotate(-16 82.116 161.374)" style="fill:#b58300"/>
            </g>
            <text transform="rotate(-16 173.114 -38.828)" style="font-size:12px;fill:#fff;font-family:Poppins-Medium,Poppins;font-weight:500;letter-spacing:-.024em"><tspan x="0" y="0">JPG</tspan></text>
        </g>
        <g data-name="Group 17845">
            <g data-name="Group 17348">
                <path data-name="Path 28533" d="M0 0v68.362h54.26V14.179L41.768 0z" transform="translate(25.744)" style="fill:#e2564c"/>
                <path data-name="Path 28534" d="M75.584 0v14.234h12.541z" transform="translate(-8.072)" style="fill:#c44643"/>
            </g>
            <text transform="translate(37.944 40.402)" style="font-size:14px;fill:#fff;font-family:Poppins-Medium,Poppins;font-weight:500;letter-spacing:-.024em"><tspan x="0" y="0">PDF</tspan></text>
        </g>
    </g>
</svg>
