<svg xmlns="http://www.w3.org/2000/svg" width="51" height="48" viewBox="0 0 51 48">
  <g id="Apple_Sign_Up" data-name="Apple Sign Up" transform="translate(0.25)">
    <rect id="Rectangle_1328" data-name="Rectangle 1328" width="51" height="48" rx="5" transform="translate(-0.25)" fill="rgba(226,232,240,0.5)"/>
    <path id="Apple_Logo" data-name="Apple Logo" d="M14.714,11.495a4.782,4.782,0,0,0,2.9,4.378,11.842,11.842,0,0,1-1.5,3.077c-.9,1.318-1.838,2.631-3.312,2.659-1.449.027-1.915-.859-3.571-.859s-2.173.832-3.545.886c-1.423.054-2.507-1.425-3.416-2.739C.418,16.211-1,11.306.9,8A5.3,5.3,0,0,1,5.382,5.284c1.4-.027,2.717.94,3.571.94s2.457-1.163,4.142-.992a5.054,5.054,0,0,1,3.957,2.146,4.893,4.893,0,0,0-2.338,4.117m-2.723-8.04A4.766,4.766,0,0,0,13.116,0,4.85,4.85,0,0,0,9.929,1.64,4.528,4.528,0,0,0,8.781,4.987a4.013,4.013,0,0,0,3.21-1.532" transform="translate(16.691 13.182)" fill="#0f172a"/>
  </g>
</svg>
