<svg id="Iconly_Bold_Image_2" data-name="Iconly/Bold/Image 2" xmlns="http://www.w3.org/2000/svg" width="66" height="66" viewBox="0 0 66 66">
  <g id="Image_2" data-name="Image 2">
    <path id="Image_2-2" data-name="Image 2" d="M18.6,66a21.917,21.917,0,0,1-3.57-.312c-.036-.009-.071-.012-.1-.018A17.266,17.266,0,0,1,4.146,59.493c-.018,0-.024-.012-.036-.03a.176.176,0,0,0-.024-.033A20.454,20.454,0,0,1,0,46.537V19.43C0,7.808,7.476,0,18.6,0H47.369C58.513,0,66,7.808,66,19.43V46.537a7.606,7.606,0,0,1-.062.843c-.021.19-.042.383-.053.582-.006.113-.009.223-.012.336-.006.166-.009.339-.024.5a1.774,1.774,0,0,1-.03.181,1.3,1.3,0,0,0-.033.187,22.139,22.139,0,0,1-.511,2.985c-.045.2-.1.392-.148.579l-.05.178a20,20,0,0,1-.947,2.664c-.068.154-.143.3-.217.454-.045.086-.083.166-.122.247a17.742,17.742,0,0,1-1.342,2.3c-.1.143-.2.276-.309.4-.062.077-.122.154-.181.232a16.215,16.215,0,0,1-1.693,1.919c-.122.116-.252.223-.38.327-.086.068-.175.14-.258.214a17.311,17.311,0,0,1-2,1.521c-.154.1-.321.178-.481.258-.11.053-.217.107-.324.166a17.238,17.238,0,0,1-2.266,1.1,6.1,6.1,0,0,1-.615.181c-.14.039-.285.074-.425.119l-.249.077a17.14,17.14,0,0,1-2.168.567,12.391,12.391,0,0,1-1.387.137c-.208.015-.416.027-.621.045-.223.015-.446.045-.659.068A8.605,8.605,0,0,1,47.369,66Zm-14-46.57V46.537a17.584,17.584,0,0,0,1.271,6.727L7.06,51.827c1.856-2.266,5.316-6.478,5.343-6.5,2.824-3.231,5.762-4.868,8.729-4.868a8.943,8.943,0,0,1,3.466.728,21.3,21.3,0,0,1,3.332,1.85l.3.19C29.985,44.4,31.072,45,32.142,45c.08,0,.16-.006.244-.012a3.431,3.431,0,0,0,1.354-.472c1.063-.656,3.419-3.564,7.006-8.643.187-.267.312-.443.353-.5a11.037,11.037,0,0,1,8.643-4.624A9.845,9.845,0,0,1,54.859,32.2c.642.383,5.064,3.472,6.537,4.722V19.43C61.4,10.422,55.89,4.6,47.369,4.6H18.6C10.1,4.6,4.607,10.422,4.607,19.43ZM13.4,23.077a7.934,7.934,0,0,1-.2-1.732,8.252,8.252,0,0,1,16.5.151A8.232,8.232,0,0,1,13.4,23.077Z" fill="#e2e8f0"/>
  </g>
</svg>
