<svg xmlns="http://www.w3.org/2000/svg" width="32" height="32" viewBox="0 0 32 32">
  <g id="Photo_of_your_item" data-name="Photo of your item" transform="translate(15433 -12887)">
    <g id="Group_16691" data-name="Group 16691" transform="translate(-15449 12375)">
      <circle id="Ellipse_9923" data-name="Ellipse 9923" cx="16" cy="16" r="16" transform="translate(16 512)" fill="#3b3e4f" opacity="0.2"/>
    </g>
    <g id="Iconly_Bold_Camera" data-name="Iconly/Bold/Camera" transform="translate(-15424 12897)">
      <g id="Camera">
        <path id="Camera-2" data-name="Camera" d="M10.948,12h-7.9A2.984,2.984,0,0,1,0,9.1V5.141a2.984,2.984,0,0,1,3.052-2.9.139.139,0,0,0,.134-.08l.042-.08.058-.117c.183-.367.39-.782.516-1.022A1.711,1.711,0,0,1,5.348,0h3.3A1.717,1.717,0,0,1,10.2.939c.11.21.277.546.439.872l.1.2.071.146a.159.159,0,0,0,.14.08A2.984,2.984,0,0,1,14,5.141V9.1A2.984,2.984,0,0,1,10.948,12ZM7,4.268a2.816,2.816,0,0,0-1.953.773,2.517,2.517,0,0,0-.8,1.844,2.562,2.562,0,0,0,.805,1.852A2.834,2.834,0,0,0,7,9.5a2.8,2.8,0,0,0,1.939-.766,2.524,2.524,0,0,0,.007-3.7A2.8,2.8,0,0,0,7,4.268Zm3.927-.16a.6.6,0,1,0,.638.606A.619.619,0,0,0,10.927,4.109ZM7,8.5a1.734,1.734,0,0,1-1.2-.473,1.569,1.569,0,0,1-.5-1.145V6.879a1.521,1.521,0,0,1,.49-1.132A1.769,1.769,0,0,1,8.2,5.74a1.571,1.571,0,0,1,.5,1.145A1.672,1.672,0,0,1,7,8.5Z" fill="#3b3e4f"/>
      </g>
    </g>
  </g>
</svg>
