<svg xmlns="http://www.w3.org/2000/svg" xmlns:xlink="http://www.w3.org/1999/xlink" width="241.157" height="244" viewBox="0 0 241.157 244">
  <defs>
    <clipPath id="clip-path">
      <rect id="Rectangle_2423" data-name="Rectangle 2423" width="241.157" height="244" fill="none"/>
    </clipPath>
    <clipPath id="clip-path-2">
      <rect id="Rectangle_2396" data-name="Rectangle 2396" width="24.427" height="15.167" fill="none"/>
    </clipPath>
    <clipPath id="clip-path-3">
      <rect id="Rectangle_2397" data-name="Rectangle 2397" width="20.249" height="17.129" fill="none"/>
    </clipPath>
    <clipPath id="clip-path-4">
      <rect id="Rectangle_2398" data-name="Rectangle 2398" width="23.763" height="16.142" fill="none"/>
    </clipPath>
    <clipPath id="clip-path-5">
      <rect id="Rectangle_2399" data-name="Rectangle 2399" width="22.95" height="17.148" fill="none"/>
    </clipPath>
    <clipPath id="clip-path-6">
      <rect id="Rectangle_2400" data-name="Rectangle 2400" width="12.489" height="12.489" fill="none"/>
    </clipPath>
    <clipPath id="clip-path-7">
      <rect id="Rectangle_2401" data-name="Rectangle 2401" width="9.198" height="9.198" fill="none"/>
    </clipPath>
    <clipPath id="clip-path-8">
      <rect id="Rectangle_2410" data-name="Rectangle 2410" width="23.774" height="37.598" fill="none"/>
    </clipPath>
    <clipPath id="clip-path-9">
      <rect id="Rectangle_2411" data-name="Rectangle 2411" width="38.528" height="17.968" fill="none"/>
    </clipPath>
    <clipPath id="clip-path-10">
      <rect id="Rectangle_2412" data-name="Rectangle 2412" width="21.574" height="14.701" fill="none"/>
    </clipPath>
    <clipPath id="clip-path-11">
      <rect id="Rectangle_2413" data-name="Rectangle 2413" width="15.903" height="4.027" fill="none"/>
    </clipPath>
    <clipPath id="clip-path-12">
      <rect id="Rectangle_2414" data-name="Rectangle 2414" width="16.224" height="3.73" fill="none"/>
    </clipPath>
    <clipPath id="clip-path-13">
      <rect id="Rectangle_2415" data-name="Rectangle 2415" width="33.092" height="28.506" fill="none"/>
    </clipPath>
    <clipPath id="clip-path-14">
      <rect id="Rectangle_2416" data-name="Rectangle 2416" width="53.056" height="30.538" fill="none"/>
    </clipPath>
    <clipPath id="clip-path-15">
      <rect id="Rectangle_2417" data-name="Rectangle 2417" width="42.988" height="70.555" fill="none"/>
    </clipPath>
    <clipPath id="clip-path-16">
      <rect id="Rectangle_2419" data-name="Rectangle 2419" width="65.211" height="10.477" fill="none"/>
    </clipPath>
    <clipPath id="clip-path-17">
      <rect id="Rectangle_2421" data-name="Rectangle 2421" width="12.181" height="22.434" fill="none"/>
    </clipPath>
    <clipPath id="clip-path-18">
      <rect id="Rectangle_2422" data-name="Rectangle 2422" width="21.037" height="9.653" fill="none"/>
    </clipPath>
  </defs>
  <g id="Create_Collection_illustration" data-name="Create Collection illustration" clip-path="url(#clip-path)">
    <path id="Path_27822" data-name="Path 27822" d="M1515.078,2143.376c-20.492,0-37.1,2.555-37.1,5.7s16.612,5.705,37.1,5.705,37.1-2.554,37.1-5.705-16.612-5.7-37.1-5.7" transform="translate(-1328.09 -1926.012)" fill="#fff3dd"/>
    <path id="Path_27823" data-name="Path 27823" d="M1350.042,2293.511c-20.492,0-37.1,2.554-37.1,5.7s16.612,5.705,37.1,5.705,37.1-2.554,37.1-5.705-16.612-5.7-37.1-5.7" transform="translate(-1179.79 -2060.922)" fill="#fff3dd"/>
    <path id="Path_27824" data-name="Path 27824" d="M37.1,2153.2c-20.492,0-37.1,2.554-37.1,5.7s16.612,5.705,37.1,5.705,37.1-2.554,37.1-5.705-16.612-5.7-37.1-5.7" transform="translate(0 -1934.838)" fill="#fff3dd"/>
    <path id="Path_27825" data-name="Path 27825" d="M356.579,293.239a42.815,42.815,0,0,1-9.419-20.523l-1.131-6.86a42.817,42.817,0,0,0-25.145-32.287l-25.206-10.982a42.817,42.817,0,0,0-36.228.946l-85.7,42.789a42.817,42.817,0,0,0-22.453,48.529l8.713,35.442a42.817,42.817,0,0,0,42.686,32.581l39.628-1.024a42.792,42.792,0,0,1,4.707.137l72.889,6.151a42.817,42.817,0,0,0,38.418-17.745l9.657-13.492A42.817,42.817,0,0,0,366,304.492Z" transform="translate(-134.835 -196.813)" fill="#fff3dd"/>
    <path id="Path_27826" data-name="Path 27826" d="M1578.344,384.521l.241-.417-.484,0Z" transform="translate(-1418.063 -345.15)" fill="#fad6a2"/>
    <path id="Path_27827" data-name="Path 27827" d="M1603.766,386.859v.269h.267Z" transform="translate(-1441.125 -347.627)" fill="#fad6a2"/>
    <path id="Path_27828" data-name="Path 27828" d="M1639.293,277.563l.264.456.263-.456Z" transform="translate(-1473.049 -249.415)" fill="#fad6a2"/>
    <path id="Path_27829" data-name="Path 27829" d="M1583.778,276.113l-3.227-5.607-.264-.458-.263.459-3.227,5.622-3.22,5.626-.241.421.483,0,2.6-.01v-.269l.268.268h-.267l.036,6.712.022,3.491.032,3.491c.018,2.327.048,4.654.077,6.981l.044,3.491.055,3.491.056-3.491.044-3.491c.029-2.327.06-4.654.077-6.981l.031-3.491.023-3.491.037-6.982v-.267h-.27l-2.387-.009-.241.417-.242-.419.484,0,3.007-5.193,2.979-5.158-.264-.456h.527l-.263.456,2.978,5.143,3.009,5.182.479-.007-.239.42-.24-.412-2.256.034-.268,0v.265l.037,6.982.023,3.491.031,3.491c.018,2.327.048,4.654.078,6.981l.044,3.491.056,3.491.056-3.491.044-3.491c.03-2.327.06-4.654.078-6.981l.031-3.491.023-3.491.036-6.714-.265,0,.266-.269v.267l2.47-.018.478,0-.239-.416Z" transform="translate(-1413.779 -242.662)" fill="#fad6a2"/>
    <path id="Path_27830" data-name="Path 27830" d="M1678.742,387.128l.264,0v-.267Z" transform="translate(-1508.497 -347.627)" fill="#fad6a2"/>
    <path id="Path_27831" data-name="Path 27831" d="M1701.408,383.794l-.479.007.239.412Z" transform="translate(-1528.434 -344.873)" fill="#fad6a2"/>
    <path id="Path_27832" data-name="Path 27832" d="M1280.3,190.546v.269h.268Z" transform="translate(-1150.462 -171.223)" fill="#fad6a2"/>
    <path id="Path_27833" data-name="Path 27833" d="M1236.036,188.209l.241-.418h-.483Z" transform="translate(-1110.469 -168.746)" fill="#fad6a2"/>
    <path id="Path_27834" data-name="Path 27834" d="M1339.438,7.517l.264.456.263-.456Z" transform="translate(-1203.603 -6.755)" fill="#fad6a2"/>
    <path id="Path_27835" data-name="Path 27835" d="M1242.547.462,1242.283,0l-.263.458-10.753,18.725-.241.42h.483l4.515-.011v-.269l.268.268h-.267l.037,11.359.054,11.628.078,11.628.043,5.814.056,5.814.056-5.814.044-5.814.077-11.628.054-11.628.038-11.628v-.268h-.269l-4.3-.01-.241.418-.242-.419h.484l10.291-17.827-.264-.456h.527l-.263.456L1252.576,19l.478-.006-.239.42-.239-.413-4.076.056-.267,0v.265l.038,11.628.054,11.628.078,11.628.044,5.814.056,5.814.056-5.814.044-5.814.078-11.628.054-11.628.036-11.361-.265,0,.266-.269v.267l4.29-.039.478,0-.239-.415Z" transform="translate(-1106.185 -0.004)" fill="#fad6a2"/>
    <path id="Path_27836" data-name="Path 27836" d="M1444.008,187.277l-.479.007.239.413Z" transform="translate(-1297.138 -168.285)" fill="#fad6a2"/>
    <path id="Path_27837" data-name="Path 27837" d="M1403.391,190.816l.265,0v-.267Z" transform="translate(-1261.07 -171.223)" fill="#fad6a2"/>
    <path id="Path_27838" data-name="Path 27838" d="M573.184,1032.614l.264.456.263-.456Z" transform="translate(-515.056 -927.894)" fill="#fad6a2"/>
    <path id="Path_27839" data-name="Path 27839" d="M469.782,1213.305l.241-.418h-.484Z" transform="translate(-421.923 -1089.885)" fill="#fad6a2"/>
    <path id="Path_27840" data-name="Path 27840" d="M514.046,1215.643v.269h.267Z" transform="translate(-461.916 -1092.362)" fill="#fad6a2"/>
    <path id="Path_27841" data-name="Path 27841" d="M476.292,1025.558l-.264-.458-.263.458-10.753,18.726-.241.42h.484l4.514-.01v-.269l.268.268h-.267l.037,11.359.054,11.628.077,11.628.044,5.814.056,5.814.056-5.814.044-5.814.078-11.628.054-11.628.038-11.628v-.268h-.269l-4.3-.01-.241.418-.242-.419h.484l10.291-17.827-.264-.456h.527l-.263.456,10.292,17.781.478-.006-.239.42-.239-.413-4.076.056-.267,0v.265l.038,11.628.054,11.628.078,11.628.044,5.814.056,5.814.056-5.814.044-5.814.078-11.628.054-11.628.037-11.361-.265,0,.266-.269v.267l4.29-.039.478,0-.239-.415Z" transform="translate(-417.637 -921.143)" fill="#fad6a2"/>
    <path id="Path_27842" data-name="Path 27842" d="M677.754,1212.374l-.478.007.239.413Z" transform="translate(-608.592 -1089.425)" fill="#fad6a2"/>
    <path id="Path_27843" data-name="Path 27843" d="M637.137,1215.911l.265,0v-.267Z" transform="translate(-572.524 -1092.362)" fill="#fad6a2"/>
    <g id="Group_16222" data-name="Group 16222" transform="translate(199.868 152.997)" opacity="0.5">
      <g id="Group_16221" data-name="Group 16221">
        <g id="Group_16220" data-name="Group 16220" clip-path="url(#clip-path-2)">
          <path id="Path_27844" data-name="Path 27844" d="M1995.183,1519.867a1.656,1.656,0,0,0-2.106-1.007l-3.531,1.247-1.247-3.531a2.012,2.012,0,0,0-2.344-1.12l-3.531,1.247-1.247-3.531a2.013,2.013,0,0,0-2.344-1.121l-3.531,1.247-1.247-3.531a1.65,1.65,0,1,0-3.112,1.1l1.769,5.007a1.812,1.812,0,0,0,2.214,1.058l3.627-1.281,1.281,3.627a1.812,1.812,0,0,0,2.214,1.058l3.627-1.281,1.281,3.627a1.812,1.812,0,0,0,2.214,1.058l5.007-1.769A1.655,1.655,0,0,0,1995.183,1519.867Z" transform="translate(-1970.849 -1508.668)" fill="#fec337"/>
        </g>
      </g>
    </g>
    <g id="Group_16225" data-name="Group 16225" transform="translate(192.293 39.023)" opacity="0.5">
      <g id="Group_16224" data-name="Group 16224">
        <g id="Group_16223" data-name="Group 16223" clip-path="url(#clip-path-3)">
          <path id="Path_27845" data-name="Path 27845" d="M1915.048,384.814h0a1.543,1.543,0,0,0-1.712,1.341l-.42,3.464-3.464-.42a1.876,1.876,0,0,0-1.905,1.493l-.42,3.464-3.463-.42a1.875,1.875,0,0,0-1.905,1.493l-.42,3.463-3.464-.42a1.538,1.538,0,1,0-.37,3.053l4.911.6a1.689,1.689,0,0,0,1.8-1.41l.431-3.557,3.558.432a1.689,1.689,0,0,0,1.8-1.41l.432-3.557,3.557.432a1.689,1.689,0,0,0,1.8-1.41l.6-4.912a1.542,1.542,0,0,0-1.341-1.712" transform="translate(-1896.15 -384.802)" fill="#fec337"/>
        </g>
      </g>
    </g>
    <g id="Group_16228" data-name="Group 16228" transform="translate(45.859 28.105)" opacity="0.5">
      <g id="Group_16227" data-name="Group 16227">
        <g id="Group_16226" data-name="Group 16226" clip-path="url(#clip-path-4)">
          <path id="Path_27846" data-name="Path 27846" d="M474.449,286.074a1.812,1.812,0,0,0-2.144-1.193l-3.7,1.054-1.054-3.7a1.813,1.813,0,0,0-2.145-1.193l-3.7,1.054-1.054-3.7a1.813,1.813,0,0,0-2.145-1.193L453.4,278.66a1.65,1.65,0,1,0,.9,3.174l3.6-1.026,1.026,3.6a2.013,2.013,0,0,0,2.27,1.263l3.6-1.026,1.026,3.6a2.013,2.013,0,0,0,2.27,1.263l3.6-1.026,1.026,3.6a1.65,1.65,0,1,0,3.175-.9Z" transform="translate(-452.204 -277.141)" fill="#fec337"/>
        </g>
      </g>
    </g>
    <g id="Group_16231" data-name="Group 16231" transform="translate(25.629 146.979)" opacity="0.5">
      <g id="Group_16230" data-name="Group 16230">
        <g id="Group_16229" data-name="Group 16229" clip-path="url(#clip-path-5)">
          <path id="Path_27847" data-name="Path 27847" d="M274.367,1449.364h0a1.656,1.656,0,0,0-1.958,1.27l-.781,3.662-3.662-.781a2.013,2.013,0,0,0-2.18,1.414L265,1458.59l-3.662-.781a2.013,2.013,0,0,0-2.18,1.414l-.781,3.662-3.662-.781a1.651,1.651,0,0,0-.689,3.229l5.193,1.108a1.813,1.813,0,0,0,2.059-1.335l.8-3.762,3.762.8a1.813,1.813,0,0,0,2.059-1.335l.8-3.762,3.762.8a1.813,1.813,0,0,0,2.059-1.335l1.108-5.193a1.655,1.655,0,0,0-1.27-1.958" transform="translate(-252.723 -1449.327)" fill="#fec337"/>
        </g>
      </g>
    </g>
    <g id="Group_16234" data-name="Group 16234" transform="translate(186.75 16.309)" opacity="0.5">
      <g id="Group_16233" data-name="Group 16233">
        <g id="Group_16232" data-name="Group 16232" clip-path="url(#clip-path-6)">
          <path id="Path_27848" data-name="Path 27848" d="M1847.738,160.823a6.244,6.244,0,1,0,6.244,6.244,6.244,6.244,0,0,0-6.244-6.244m0,9.2a2.954,2.954,0,1,1,2.954-2.954,2.954,2.954,0,0,1-2.954,2.954" transform="translate(-1841.493 -160.823)" fill="#fec337"/>
        </g>
      </g>
    </g>
    <g id="Group_16237" data-name="Group 16237" transform="translate(9.073 78.593)" opacity="0.5">
      <g id="Group_16236" data-name="Group 16236">
        <g id="Group_16235" data-name="Group 16235" clip-path="url(#clip-path-7)">
          <path id="Path_27849" data-name="Path 27849" d="M94.071,774.992a4.6,4.6,0,1,0,4.6,4.6,4.6,4.6,0,0,0-4.6-4.6m0,6.775a2.176,2.176,0,1,1,2.176-2.176,2.176,2.176,0,0,1-2.176,2.176" transform="translate(-89.472 -774.992)" fill="#fec337"/>
        </g>
      </g>
    </g>
    <path id="Path_27861" data-name="Path 27861" d="M723.86,1305.4l-23.5,18.753-1.783-1.5-3.46-2.911-41.282-34.716,10.858-.516.056.052c1.417.06,2.861.119,4.312.177l-.137-.43,2.478-.118a4.192,4.192,0,0,1-.028.638c2.638.1,5.261.189,7.737.262l-.465-1.243,29.107-1.383,1.9,2.712,9.222,13.128Z" transform="translate(-587.526 -1152.41)" fill="#d3b4a3"/>
    <g id="Group_16255" data-name="Group 16255" transform="translate(107.576 132.77)" opacity="0.37">
      <g id="Group_16254" data-name="Group 16254">
        <g id="Group_16253" data-name="Group 16253" clip-path="url(#clip-path-8)">
          <path id="Path_27862" data-name="Path 27862" d="M1084.551,1322.336a54.941,54.941,0,0,1-3.056,8.811,32.793,32.793,0,0,1-16.032,15.131,8.172,8.172,0,0,1-1.214.408,2.908,2.908,0,0,1-2.11-.16,3.116,3.116,0,0,1-1.35-2.75,11.172,11.172,0,0,1,.038-1.572q.353-4.1.7-8.2a6.751,6.751,0,0,1,.523-2.449,7.4,7.4,0,0,1,1.692-1.979,38.781,38.781,0,0,0,9.439-14.569c.585-1.527,1.24-3.71,2.141-5.8Z" transform="translate(-1060.776 -1309.208)" fill="#4d1b1c"/>
        </g>
      </g>
    </g>
    <path id="Path_27863" data-name="Path 27863" d="M665.909,1393.851c-3.708-2.342-41.431-8.914-42.288-10.039-.411-.538-.586-14.245-.657-28.47-.077-15.678-.028-31.984-.028-31.984l-4.674-8.084-5.208-9.011-3.18-5.5c.255-1.491.512-2.964.759-4.322,1.643.081,3.8.189,6.285.305,2.514.119,5.359.248,8.329.375,1.417.06,2.861.119,4.312.178q1.154.047,2.312.09h.015c2.633.1,5.251.188,7.722.261,7.222.208,13.188.26,14.617-.065,0,0,9.949,23.973,10.424,26.817.023.139.064.189.12.158a1.752,1.752,0,0,0,.368-.694l.041,3.683.014,1.242.537,48.566Z" transform="translate(-548.024 -1164.963)" fill="#bf9e88"/>
    <path id="Path_27864" data-name="Path 27864" d="M1221.02,1339.908c-.284.664-62.073,11.144-65.389,8.842-.02-.013-.041-.028-.064-.041l-.652-58.864c4.6-3.056,10.649-3.606,16.28-3.981l38.565-2.572c2.3-.154,8.326.162,9.792-1.781.967-1.279.573-5.092-1.455-5.064l-36.347.528c-5.842.084-11.692.169-17.507.735-3.145.306-6.42.809-8.971,2.672-.156.115-.309.235-.457.363l-.022-2.024c1.8-4.668,7.887-31.011,10.126-32.254,2.559-1.422,37.716,3.317,41.886,3.222s25.114-1.515,25.4.379-11.372,26.681-11.751,29.356.853,59.82.568,60.482" transform="translate(-1037.683 -1119.822)" fill="#d3b4a3"/>
    <path id="Path_27865" data-name="Path 27865" d="M1219.75,1549.51c-1.466,1.943-7.49,1.626-9.792,1.781l-38.565,2.572c-5.63.375-11.682.925-16.28,3.981l-.1-9.1c.148-.128.3-.249.458-.363,2.55-1.863,5.826-2.366,8.971-2.672,5.815-.566,11.666-.651,17.507-.735l36.347-.528c2.028-.029,2.422,3.784,1.455,5.063" transform="translate(-1037.881 -1387.821)" fill="#d3b4a3"/>
    <g id="Group_16258" data-name="Group 16258" transform="translate(134.482 166.12)" opacity="0.53">
      <g id="Group_16257" data-name="Group 16257">
        <g id="Group_16256" data-name="Group 16256" clip-path="url(#clip-path-9)">
          <path id="Path_27866" data-name="Path 27866" d="M1326.827,1640.854q18.61-1.212,37.2-2.786a90.586,90.586,0,0,1,.561,12.743.45.45,0,0,1-.492.532c-11.206,1.643-22.414,3.285-33.659,4.641a2.416,2.416,0,0,1-1.686-.208,2.345,2.345,0,0,1-.753-1.3,42.928,42.928,0,0,1-1.906-12.886Z" transform="translate(-1326.087 -1638.068)" fill="#fff"/>
        </g>
      </g>
    </g>
    <path id="Path_27867" data-name="Path 27867" d="M1230.9,2034.576a6.754,6.754,0,0,1,.906-.274c1.907-.391,21.043-1.949,20.976-3.667a80.609,80.609,0,0,1,.591-13.381l-25.645,2.807a.654.654,0,0,0-.289.078c-.2.128-.2.412-.178.647a88.953,88.953,0,0,1,.216,10.88c-.064,1.872-.74,3.073,1.229,3.364a4.727,4.727,0,0,0,2.2-.453" transform="translate(-1102.793 -1812.679)" fill="#fff"/>
    <g id="Group_16261" data-name="Group 16261" transform="translate(126.732 206.123)" opacity="0.58">
      <g id="Group_16260" data-name="Group 16260">
        <g id="Group_16259" data-name="Group 16259" clip-path="url(#clip-path-10)">
          <path id="Path_27868" data-name="Path 27868" d="M1270.726,2042.523c.007.352.018.705.031,1.057.056,1.419-15.749,2.705-17.325,3.029a5.552,5.552,0,0,0-.748.226,3.9,3.9,0,0,1-1.813.375c-1.627-.242-1.068-1.233-1.015-2.779.079-2.285.087-4.573-.029-6.857q-.055-1.066-.148-2.131c-.017-.194-.017-.429.147-.534a.548.548,0,0,1,.239-.064l21.182-2.318a66.4,66.4,0,0,0-.519,10" transform="translate(-1249.67 -2032.528)" fill="#fdb23d"/>
        </g>
      </g>
    </g>
    <g id="Group_16264" data-name="Group 16264" transform="translate(154.951 204.109)" opacity="0.2">
      <g id="Group_16263" data-name="Group 16263">
        <g id="Group_16262" data-name="Group 16262" clip-path="url(#clip-path-11)">
          <path id="Path_27869" data-name="Path 27869" d="M1528.2,2016.633a4.261,4.261,0,0,0,1.906-.18c.681-.115,1.363-.213,2.041-.344q2.148-.412,4.3-.781c1.4-.24,2.789-.5,4.186-.726.667-.11,1.339-.248,2.011-.32.505-.054.96-.025,1.151-.585a.785.785,0,0,0-.54-.95,3.665,3.665,0,0,0-1.726.113q-.956.164-1.91.336c-1.352.244-2.7.493-4.047.781q-1.955.418-3.9.872c-.629.147-1.249.332-1.871.5a3.946,3.946,0,0,0-1.765.664.372.372,0,0,0,.162.615" transform="translate(-1527.928 -2012.674)" fill="#4d1b1c"/>
        </g>
      </g>
    </g>
    <g id="Group_16267" data-name="Group 16267" transform="translate(155.481 209.884)" opacity="0.2">
      <g id="Group_16266" data-name="Group 16266">
        <g id="Group_16265" data-name="Group 16265" clip-path="url(#clip-path-12)">
          <path id="Path_27870" data-name="Path 27870" d="M1533.568,2073.331a6.576,6.576,0,0,0,1.882-.324q.995-.206,2-.389c1.371-.251,2.744-.5,4.12-.722q2.025-.324,4.064-.548c.672-.073,1.345-.132,2.018-.2a2.092,2.092,0,0,0,1.65-.653.323.323,0,0,0,0-.446,1.863,1.863,0,0,0-1.65-.409c-.674.055-1.346.139-2.018.224q-2.109.267-4.2.632c-1.371.241-2.733.511-4.083.856q-.982.25-1.958.524a6.6,6.6,0,0,0-2.025.686.419.419,0,0,0,.209.773" transform="translate(-1533.163 -2069.61)" fill="#4d1b1c"/>
        </g>
      </g>
    </g>
    <path id="Path_27871" data-name="Path 27871" d="M705.285,1354.344q4.515,7.118,8.35,14.637a1.72,1.72,0,0,0,.625.789,1.873,1.873,0,0,0,1.286,0,10.526,10.526,0,0,1,5.751.362,102.5,102.5,0,0,1-5.744-17.763,47.348,47.348,0,0,0-9.287.233Z" transform="translate(-633.76 -1215.108)" fill="#9e7e6c"/>
    <g id="Group_16270" data-name="Group 16270" transform="translate(83.65 132.424)" opacity="0.6">
      <g id="Group_16269" data-name="Group 16269">
        <g id="Group_16268" data-name="Group 16268" clip-path="url(#clip-path-13)">
          <path id="Path_27872" data-name="Path 27872" d="M857.945,1332.968l-.493,1.336c-4.063-6.109-8.406-12.1-13.736-17.137s-11.732-9.127-18.863-10.856c.069-.173.139-.345.21-.513,2.633.1,5.251.188,7.722.261,7.223.208,13.188.259,14.617-.065,0,0,9.949,23.973,10.424,26.816.023.139.064.19.12.158" transform="translate(-824.853 -1305.798)" fill="#9e7e6c"/>
        </g>
      </g>
    </g>
    <g id="Group_16273" data-name="Group 16273" transform="translate(61.849 131.475)" opacity="0.37">
      <g id="Group_16272" data-name="Group 16272">
        <g id="Group_16271" data-name="Group 16271" clip-path="url(#clip-path-14)">
          <path id="Path_27873" data-name="Path 27873" d="M662.929,1326.976a198.445,198.445,0,0,1-25.535-2.2c-2.479-.375-11.979-1.8-14.458-1.424l-4.674-8.084-5.208-9.011-3.18-5.5c.255-1.491.512-2.964.759-4.322,1.643.081,3.8.189,6.285.305a59.291,59.291,0,0,0,4.217,6.366c16.393,21.58,41.8,23.866,41.8,23.866" transform="translate(-609.873 -1296.438)" fill="#4d1b1c"/>
        </g>
      </g>
    </g>
    <g id="Group_16276" data-name="Group 16276" transform="translate(74.896 158.332)" opacity="0.2">
      <g id="Group_16275" data-name="Group 16275">
        <g id="Group_16274" data-name="Group 16274" clip-path="url(#clip-path-15)">
          <path id="Path_27874" data-name="Path 27874" d="M781.522,1631.826c-3.708-2.342-41.431-8.913-42.288-10.039-.411-.538-.586-14.245-.657-28.471-.077-15.678-.028-31.984-.028-31.984,2.479-.372,11.979,1.048,14.458,1.424q7.352,1.113,14.773,1.675c3.743.283,8.649-.254,11.945,1.832-5.393-.448-10.88,1.708-16.144,2.574a27.509,27.509,0,0,0-14.63,6.96c-4.122,4.021-5.448,7.283-5.185,13.227a29.381,29.381,0,0,0,6.511,17.271c6.954,8.451,20.616,13.566,31.063,9.035Z" transform="translate(-738.534 -1561.271)" fill="#4d1b1c"/>
        </g>
      </g>
    </g>
    <rect id="Rectangle_2418" data-name="Rectangle 2418" width="0.287" height="41.471" transform="translate(74.894 158.536) rotate(-83.172)" fill="#4d1b1c"/>
    <g id="Group_16279" data-name="Group 16279" transform="translate(117.163 159.546)" opacity="0.37">
      <g id="Group_16278" data-name="Group 16278">
        <g id="Group_16277" data-name="Group 16277" clip-path="url(#clip-path-16)">
          <path id="Path_27875" data-name="Path 27875" d="M1220.522,1573.542a3.31,3.31,0,0,1-.5,1.849c-1.466,1.943-7.49,1.627-9.792,1.781l-38.565,2.572c-5.631.375-11.682.925-16.28,3.981l-.069-6.212v-.13c.795-.032,56.659-2.335,65.207-4.135,0,.1,0,.2,0,.294" transform="translate(-1155.313 -1573.248)" fill="#4d1b1c"/>
        </g>
      </g>
    </g>
    <path id="Path_27876" data-name="Path 27876" d="M1220.918,1572.707c-.128.033-.273.065-.432.1-8.813,1.807-64.628,4.1-65.2,4.13l-.007-.158-.005-.13h0c.795-.032,56.659-2.335,65.207-4.135.133-.027.255-.056.364-.083Z" transform="translate(-1038.114 -1412.965)" fill="#4d1b1c"/>
    <rect id="Rectangle_2420" data-name="Rectangle 2420" width="0.287" height="65.209" transform="translate(117.015 163.684) rotate(-0.638)" fill="#4d1b1c"/>
    <g id="Group_16282" data-name="Group 16282" transform="translate(148.859 133.101)" opacity="0.5">
      <g id="Group_16281" data-name="Group 16281">
        <g id="Group_16280" data-name="Group 16280" clip-path="url(#clip-path-17)">
          <path id="Path_27877" data-name="Path 27877" d="M1467.858,1319.411a39.963,39.963,0,0,0,12.181,15.5,60.1,60.1,0,0,1-2.964-11.117,21.379,21.379,0,0,1,1.209-11.317,46.557,46.557,0,0,1-5.872,4.531Z" transform="translate(-1467.858 -1312.475)" fill="#9e7e6c"/>
        </g>
      </g>
    </g>
    <g id="Group_16285" data-name="Group 16285" transform="translate(126.782 211.17)" opacity="0.15">
      <g id="Group_16284" data-name="Group 16284">
        <g id="Group_16283" data-name="Group 16283" clip-path="url(#clip-path-18)">
          <path id="Path_27878" data-name="Path 27878" d="M1271.2,2088.3c.056,1.419-15.75,2.705-17.325,3.029a5.589,5.589,0,0,0-.748.226,3.9,3.9,0,0,1-1.813.375c-1.626-.241-1.068-1.233-1.015-2.778.079-2.285.087-4.574-.029-6.857q.149.222.316.427a10.183,10.183,0,0,0,3.7,2.6,27.3,27.3,0,0,0,16.879,1.917c.007.352.018.705.031,1.057" transform="translate(-1250.163 -2082.298)" fill="#330406"/>
        </g>
      </g>
    </g>
  </g>
</svg>
