<svg xmlns="http://www.w3.org/2000/svg" width="20.305" height="19.202" viewBox="0 0 20.305 19.202">
  <g id="bankid-vector-logo" transform="translate(97.9 -25)">
    <path id="Path_47" data-name="Path 47" d="M-70.627,77.907l.837-5.342H-70.7a1.251,1.251,0,0,1-1.141-.664c-.058-.154-.173-.664.534-1.16a.952.952,0,0,0,.438-.515.394.394,0,0,0-.115-.4,1.231,1.231,0,0,0-.818-.227,1.134,1.134,0,0,0-1.141.645c-.038.207.134.361.265.457a.835.835,0,0,1,.246,1.16,1.681,1.681,0,0,1-1.406.7h-.933c-.077.515-1.333,8.5-1.425,9.125h5.023c.019-.265.246-1.786.549-3.783Z" transform="translate(-20.867 -42.887)" fill="#459bbe"/>
    <path id="Path_48" data-name="Path 48" d="M98.98,25h-5.1L93.2,29.317h.876a1.3,1.3,0,0,0,1.121-.534.574.574,0,0,0,.1-.265.484.484,0,0,0-.246-.4.832.832,0,0,1-.4-.7v-.1a1.465,1.465,0,0,1,1.5-.952,1.572,1.572,0,0,1,1.083.323.783.783,0,0,1,.227.722,1.441,1.441,0,0,1-.588.722c-.5.342-.438.645-.4.741a.894.894,0,0,0,.8.438H98.6c1.805.019,2.777.837,2.454,2.777a3.04,3.04,0,0,1-3.287,2.585L97.087,38.8h.952a7.832,7.832,0,0,0,8-6.694C106.849,27.035,103.619,25,98.98,25Z" transform="translate(-183.761)" fill="#235971"/>
    <g id="Group_35" data-name="Group 35" transform="translate(-97.9 40.646)">
      <g id="Group_33" data-name="Group 33" transform="translate(0 0)">
        <path id="Path_49" data-name="Path 49" d="M-97.347,432.4h2.055c.876,0,1.083.438,1.025.856a.935.935,0,0,1-.664.722c.5.192.684.476.607.933a1.2,1.2,0,0,1-1.237.987H-97.9ZM-96,433.863a.554.554,0,0,0,.626-.457c.038-.265-.077-.457-.476-.457h-.361l-.154.914Zm-.227,1.521c.419,0,.645-.173.7-.515.038-.284-.115-.476-.515-.476h-.4l-.154.987h.365Z" transform="translate(97.9 -432.4)" fill="#235971"/>
        <path id="Path_50" data-name="Path 50" d="M3.88,454.5c-.534.038-.8-.019-.914-.246a1.748,1.748,0,0,1-.933.265c-.607,0-.818-.3-.76-.664a.68.68,0,0,1,.284-.457c.323-.284,1.16-.323,1.482-.553.019-.246-.077-.342-.38-.342a1.98,1.98,0,0,0-1.16.457l.115-.8a2.151,2.151,0,0,1,1.348-.457c.626,0,1.179.246,1.064.933l-.115.78c-.038.265-.038.361.265.361Zm-.91-1.2c-.284.173-.818.154-.876.515a.247.247,0,0,0,.246.3.964.964,0,0,0,.534-.192.583.583,0,0,1,.019-.246Z" transform="translate(2.545 -450.959)" fill="#235971"/>
        <path id="Path_51" data-name="Path 51" d="M84.738,452.238H85.8l-.058.361a1.349,1.349,0,0,1,.933-.4c.588,0,.876.361.78.968l-.288,1.79H86.105l.227-1.482c.038-.265-.038-.4-.246-.4a.624.624,0,0,0-.476.284l-.246,1.578H84.3Z" transform="translate(-77.303 -451.44)" fill="#235971"/>
        <path id="Path_52" data-name="Path 52" d="M173.968,432.4h1.068l-.265,1.728,1.025-.933h1.313l-1.313,1.16,1.045,1.563h-1.348l-.818-1.256h-.019l-.192,1.256H173.4Z" transform="translate(-162.981 -432.4)" fill="#235971"/>
      </g>
      <g id="Group_34" data-name="Group 34" transform="translate(0 0)">
        <path id="Path_53" data-name="Path 53" d="M-97.347,432.4h2.055c.876,0,1.083.438,1.025.856a.935.935,0,0,1-.664.722c.5.192.684.476.607.933a1.2,1.2,0,0,1-1.237.987H-97.9ZM-96,433.863a.554.554,0,0,0,.626-.457c.038-.265-.077-.457-.476-.457h-.361l-.154.914Zm-.227,1.521c.419,0,.645-.173.7-.515.038-.284-.115-.476-.515-.476h-.4l-.154.987h.365Z" transform="translate(97.9 -432.4)" fill="#235971"/>
        <path id="Path_54" data-name="Path 54" d="M3.88,454.5c-.534.038-.8-.019-.914-.246a1.748,1.748,0,0,1-.933.265c-.607,0-.818-.3-.76-.664a.68.68,0,0,1,.284-.457c.323-.284,1.16-.323,1.482-.553.019-.246-.077-.342-.38-.342a1.98,1.98,0,0,0-1.16.457l.115-.8a2.151,2.151,0,0,1,1.348-.457c.626,0,1.179.246,1.064.933l-.115.78c-.038.265-.038.361.265.361Zm-.91-1.2c-.284.173-.818.154-.876.515a.247.247,0,0,0,.246.3.964.964,0,0,0,.534-.192.583.583,0,0,1,.019-.246Z" transform="translate(2.545 -450.959)" fill="#235971"/>
        <path id="Path_55" data-name="Path 55" d="M84.738,452.238H85.8l-.058.361a1.349,1.349,0,0,1,.933-.4c.588,0,.876.361.78.968l-.288,1.79H86.105l.227-1.482c.038-.265-.038-.4-.246-.4a.624.624,0,0,0-.476.284l-.246,1.578H84.3Z" transform="translate(-77.303 -451.44)" fill="#235971"/>
        <path id="Path_56" data-name="Path 56" d="M173.968,432.4h1.068l-.265,1.728,1.025-.933h1.313l-1.313,1.16,1.045,1.563h-1.348l-.818-1.256h-.019l-.192,1.256H173.4Z" transform="translate(-162.981 -432.4)" fill="#235971"/>
      </g>
    </g>
    <g id="Group_36" data-name="Group 36" transform="translate(-83.698 40.646)">
      <path id="Path_57" data-name="Path 57" d="M272.453,432.4h1.237l-.553,3.5H271.9Z" transform="translate(-271.9 -432.4)" fill="#459bbe"/>
      <path id="Path_58" data-name="Path 58" d="M320.434,432.4h1.747a1.488,1.488,0,0,1,1.617,1.8,1.949,1.949,0,0,1-1.939,1.713H319.9Zm1.141,2.681a.936.936,0,0,0,1.025-.914c.077-.457-.077-.914-.722-.914h-.342l-.284,1.843.323-.015Z" transform="translate(-318.057 -432.4)" fill="#459bbe"/>
    </g>
  </g>
</svg>
