<svg data-name="Claim is processing" xmlns="http://www.w3.org/2000/svg" width="247.937" height="176.409" viewBox="0 0 247.937 176.409">
    <defs>
        <clipPath id="6t4x28ki2a">
            <path data-name="Rectangle 2543" style="fill:none" d="M0 0h247.937v176.409H0z"/>
        </clipPath>
        <clipPath id="cbdclswlob">
            <path data-name="Rectangle 2532" style="fill:none" d="M0 0h130.953v171.818H0z"/>
        </clipPath>
        <clipPath id="itkueviipc">
            <path data-name="Rectangle 2533" style="fill:none" d="M0 0h183.502v148.787H0z"/>
        </clipPath>
        <clipPath id="kgmc6wx2ed">
            <path data-name="Rectangle 2534" style="fill:none" d="M0 0h134.593v105.221H0z"/>
        </clipPath>
        <clipPath id="0rdd80vmqe">
            <path data-name="Rectangle 2537" style="fill:none" d="M0 0h158.339v112.304H0z"/>
        </clipPath>
        <clipPath id="879mxr8mqf">
            <path data-name="Rectangle 2535" style="fill:none" d="M0 0h77.35v98.022H0z"/>
        </clipPath>
        <clipPath id="op0k0forjg">
            <path data-name="Rectangle 2536" style="fill:none" d="M0 0h114.431v112.304H0z"/>
        </clipPath>
        <clipPath id="smmi61dw0h">
            <path data-name="Rectangle 2538" style="fill:none" d="M0 0h34.229v52.985H0z"/>
        </clipPath>
        <clipPath id="j73d6btwoi">
            <path data-name="Rectangle 2539" style="fill:none" d="M0 0h13v51.89H0z"/>
        </clipPath>
        <clipPath id="t62v8ocluj">
            <path data-name="Rectangle 2541" style="fill:none" d="M0 0h53.052v54.271H0z"/>
        </clipPath>
    </defs>
    <g data-name="Group 16564" style="clip-path:url(#6t4x28ki2a)">
        <g data-name="Group 16563">
            <g data-name="Group 16562" style="clip-path:url(#6t4x28ki2a)">
                <path data-name="Path 28000" d="M2732.6 898.21a5.813 5.813 0 1 1 1.7-8.042 5.781 5.781 0 0 1-1.7 8.042" transform="translate(-2523.416 -822.291)" style="fill:#d6f4f4"/>
                <path data-name="Path 28001" d="M254.607 724.48a5.813 5.813 0 1 1 1.7-8.043 5.784 5.784 0 0 1-1.7 8.043" transform="translate(-227.568 -661.331)" style="fill:#d6f4f4"/>
                <path data-name="Path 28002" d="M2911.851 1073.74a3.109 3.109 0 1 1-3.108-3.109 3.109 3.109 0 0 1 3.108 3.109" transform="translate(-2692.059 -991.935)" style="fill:#d6f4f4"/>
                <path data-name="Path 28003" d="M431.869 474.7a3.109 3.109 0 1 1-3.109-3.109 3.109 3.109 0 0 1 3.109 3.109" transform="translate(-394.365 -436.929)" style="fill:#d6f4f4"/>
                <path data-name="Path 28004" d="M236 136.235a48.98 48.98 0 0 1-26.555 36.983c-11.075.994-24.1 1.795-38.465 2.345a48.716 48.716 0 0 1-16.536-9.954 49.283 49.283 0 0 1-6.811-7.68 82.037 82.037 0 0 1-32.744 6.769q-2.761 0-5.476-.181-1.334-.088-2.655-.217-1.525 1.54-3.154 2.972-.562.5-1.137.977-1.117.937-2.278 1.821a62.569 62.569 0 0 1-9.338 5.887c-12.222-.334-23.664-.842-34.005-1.495-5.948-.375-11.531-.8-16.689-1.264q-2.636-.237-5.12-.49-.923-.093-1.824-.189l-.449-.048-.168-.018-.423-.046-.409-.045q-.635-.069-1.258-.14l-.657-.075-.835-.1-.592-.07-.5-.061-.72-.088h-.022l-.124-.015a62.546 62.546 0 0 1-5.473-4.235q-1.59-1.377-3.084-2.857a17.27 17.27 0 0 1-.235-.234 62.87 62.87 0 0 1-4.881-5.5 62.43 62.43 0 0 1 21.079-94.42A82.413 82.413 0 0 1 105.366.544 83.278 83.278 0 0 1 114.885 0a82.31 82.31 0 0 1 82.342 81.4A48.965 48.965 0 0 1 236 136.235" style="fill:#d6f4f4"/>
                <g data-name="Group 16537" style="opacity:.3">
                    <g data-name="Group 16536">
                        <g data-name="Group 16535" style="clip-path:url(#cbdclswlob)" transform="translate(0 .545)">
                            <path data-name="Path 28005" d="M130.953 75.616a103.706 103.706 0 0 1-99.2 103.608q-.635-.069-1.258-.14l-.657-.075-.835-.1-.592-.07-.5-.061-.72-.088h-.022l-.124-.015a62.546 62.546 0 0 1-5.473-4.235q-1.59-1.377-3.084-2.858a17.27 17.27 0 0 1-.235-.234 62.87 62.87 0 0 1-4.881-5.5 62.43 62.43 0 0 1 21.09-94.419 82.413 82.413 0 0 1 70.9-64.023 103.308 103.308 0 0 1 25.587 68.21" transform="translate(0 -7.406)" style="fill:#fff"/>
                        </g>
                    </g>
                </g>
                <g data-name="Group 16540" style="opacity:.4">
                    <g data-name="Group 16539">
                        <g data-name="Group 16538" style="clip-path:url(#itkueviipc)" transform="translate(31.248 18.7)">
                            <path data-name="Path 28006" d="M591.095 317.107a81.944 81.944 0 0 0-10.9-40.037h-74.118l-9.147-1.287s.5-10.866-4.419-7.73a11.406 11.406 0 0 0 1.567-5.579c-.005-4-3.985-7.96-7.96-8.065-2.71-.071-4.125 1.206-4.663 3.16a7.986 7.986 0 0 0-.263 2.05c-.5-1.676-2.355-2.392-3.963-2.432a8.569 8.569 0 0 0-4.868 1.438 8.681 8.681 0 0 0-3.57 4.636 3.9 3.9 0 0 0-4.533 2.491l-.025.068a6.385 6.385 0 0 0 .926 5.5c.145.223.318.482.51.755a7.926 7.926 0 0 0 1.953 2.073l-.011.043a2.253 2.253 0 0 0-.768-.342.573.573 0 0 0-.065-.013l-.081-.015-.079-.013-.08-.01-.119-.008a.479.479 0 0 0-.063 0h-.156c-.062 0-.123.007-.183.015a2.3 2.3 0 0 0-.479.113l-.106.04-.089.04a2.227 2.227 0 0 0-.219.116l-.025.015-.029.018a2.3 2.3 0 0 0-.848 2.924h-8.995a11.555 11.555 0 0 0-11.555 11.556V328.2l-5.293 12.353a8.614 8.614 0 0 0-.84 2.807 5.231 5.231 0 0 0 2.068 4.254c-2.48.715-3.987 1.742-4.5 3.108a2.108 2.108 0 0 0-.139.967h-.151l.787 3.211c-5.937.551-9.359 1.872-10.193 4.08a2.1 2.1 0 0 0-.139.968h-.151l1.126 4.591c.428 1.743 1.788 5.45 4.15 6.219a33.233 33.233 0 0 0 4.941 1.154l.606 2.475a14.989 14.989 0 0 0 .563 1.777 3.806 3.806 0 0 0-1.4 1.717 2.084 2.084 0 0 0-.138.967h-.151l1.126 4.592a15.054 15.054 0 0 0 .563 1.777 3.8 3.8 0 0 0-1.4 1.716 2.1 2.1 0 0 0-.138.967h-.151l1.126 4.591c.411 1.68 1.69 5.181 3.892 6.122.084.036.171.069.258.1a43.217 43.217 0 0 0 11.279 1.781l.348.014h.126l.283.01.355.011.229.006.413.009h.2l.451.005h1.505c.172 0 .347 0 .521-.007h.159l.691-.016c2.929-.08 5.792-.165 8.224-.331l.466-.034.113-.008.356-.029.113-.009.418-.036h.022l.433-.041.092-.009.326-.035.109-.012.344-.04.051-.006.393-.051.039-.005.34-.049h.03l.062-.01.124-.019.226-.038.075-.014.173-.031.077-.014.218-.043.05-.011.172-.038.068-.015c.069-.016.138-.032.2-.049a4.82 4.82 0 0 0 2.832-2.149q-.1.377-.19.755a5.574 5.574 0 0 0-.349 1.68c-.012.206-.039.241.617.389 10.642 2.4 15.48 3.464 24.59 2.757a118.55 118.55 0 0 0 5.45-.563c.675-.083.622-.118.626-.325a5.587 5.587 0 0 0-.267-1.866.1.1 0 0 0 0-.016l.21-.062s.956-4.081-1.977-3.241c-5.511.168-9.061-.875-12.256-4.894h13.264l.446 1.05c.055.128.344.131.64.005l2.489-1.055h90.973a11.555 11.555 0 0 0 11.556-11.556v-56.05a48.7 48.7 0 0 0-17.522-7.3m-113.581 75.353-.043-.011.049-.012-.005.022" transform="translate(-425.115 -254.407)" style="fill:#91d1d1"/>
                        </g>
                    </g>
                </g>
                <path data-name="Path 28007" d="M271.59 2037.731c0 2.053-5.6 3.983-15.42 5.659-6.148 1.048-13.951 2-23.075 2.816-11.075.994-24.1 1.795-38.465 2.344-14.23.546-29.78.846-46.07.846q-2.915 0-5.795-.012-4.451-.022-8.816-.07-5.42-.06-10.688-.165-4.443-.088-8.763-.2c-12.222-.334-23.664-.842-34.005-1.495-5.948-.375-11.531-.8-16.689-1.264q-2.636-.237-5.12-.49-.923-.093-1.824-.189l-.449-.048-.168-.018-.423-.046q-.844-.09-1.666-.185l-.657-.074-.835-.1-.592-.07-.5-.061-.72-.088h-.022l-.124-.015-.493-.062-.4-.051-.669-.086-.143-.019-.845-.111-.494-.066-.244-.033-.11-.015-.359-.05-.464-.065-.378-.053-.375-.053-.371-.054-.326-.048-.515-.076-.277-.041-.128-.02-.419-.064q-.544-.084-1.074-.169l-.285-.047-.217-.035-.542-.089-.1-.016-.157-.027-.507-.086-.5-.086-.413-.074-.323-.058-.242-.044-.24-.044q-.6-.109-1.169-.221l-.4-.078-.5-.1-.655-.136-.466-.1-.555-.122q-.639-.142-1.237-.286l-.2-.047-.1-.024-.1-.024-.148-.037-.147-.037c-.127-.032-.252-.063-.376-.1l-.4-.106-.349-.094q-.6-.166-1.159-.333a19.314 19.314 0 0 1-4-1.607 5.261 5.261 0 0 1-.926-.664.965.965 0 0 1-.057-.053l-.018-.018-.019-.018-.02-.019a2.907 2.907 0 0 1-.077-.08q-.059-.063-.11-.127l-.049-.063c-.02-.027-.039-.052-.056-.079a1.336 1.336 0 0 1-.075-.12 1.731 1.731 0 0 1-.062-.121l-.028-.064a.5.5 0 0 1-.021-.057v-.007c-.006-.018-.012-.034-.016-.051s-.008-.026-.012-.039-.006-.027-.009-.042a.07.07 0 0 1-.005-.02.17.17 0 0 1 0-.02.017.017 0 0 1 0-.006.038.038 0 0 1 0-.013.027.027 0 0 1 0-.006.05.05 0 0 0 0-.012c0-.024-.007-.048-.009-.072v-.108a.725.725 0 0 1 0-.075c0-.021 0-.041.005-.061a.1.1 0 0 1 0-.016.025.025 0 0 0 0-.008.033.033 0 0 1 0-.009.025.025 0 0 1 0-.008.088.088 0 0 1 0-.015.211.211 0 0 1 .006-.033c0-.021.008-.041.013-.061a.11.11 0 0 1 0-.016.22.22 0 0 1 .007-.026.188.188 0 0 1 .006-.023l.01-.031a.141.141 0 0 1 .007-.021.034.034 0 0 1 0-.009 1.748 1.748 0 0 1 .083-.195l.043-.078.023-.039.024-.04.038-.058.041-.058q.043-.059.092-.119l.066-.079c.023-.027.048-.053.073-.079l.066-.068.083-.082.064-.059.017-.015.013-.011.025-.021.037-.033.038-.033q.085-.073.178-.147c.026-.02.053-.04.079-.062l.082-.061.085-.061c.143-.1.3-.206.464-.31l.132-.083.056-.033.013-.007a.1.1 0 0 1 .02-.011.526.526 0 0 1 .05-.03l.07-.041.073-.042.036-.02.037-.021a12.193 12.193 0 0 1 .381-.207l.154-.079.125-.063.127-.064c.086-.042.173-.084.263-.126l.133-.063.225-.1.049-.022.142-.063.136-.059.039-.017.1-.042.08-.034c.046-.021.093-.04.139-.058l.112-.047.115-.048.189-.077.086-.034.086-.035.067-.025a.983.983 0 0 1 .069-.027l.089-.035.092-.036.465-.176.241-.087.079-.029.167-.059.162-.057.078-.028.088-.031.089-.031.225-.077.228-.077.232-.077.234-.077.268-.086.1-.031.1-.032.142-.045.208-.065.567-.174.517-.154.068-.02c.1-.031.2-.059.3-.088l.134-.038.135-.039c.044-.014.088-.026.132-.038l.132-.038.032-.009.023-.006.026-.007.076-.023.125-.035.159-.043.162-.044c.08-.023.16-.045.241-.066l.173-.048.111-.031.062-.017.168-.044.061-.016.232-.061.1-.025.428-.111.19-.049.242-.062.229-.057.077-.02.239-.059.159-.04.446-.109.226-.055.227-.055.258-.061.1-.023.159-.038.262-.062.261-.062.306-.07.28-.064.03-.006.109-.024.273-.062.243-.055.166-.037.084-.019.083-.019.106-.023.106-.023.108-.023.107-.024c.3-.067.61-.132.92-.2l.053-.012c.226-.047.452-.1.681-.143l.187-.039.163-.034.056-.012.46-.094.072-.015q.659-.135 1.338-.269l.04-.007h.021l.131-.027.1-.018.1-.019q.577-.112 1.165-.224l.2-.037.2-.038.2-.037.2-.037.4-.074q1.264-.235 2.584-.464l.442-.076.444-.076.687-.118.431-.072.325-.053.109-.018.031-.006.406-.067c.245-.041.492-.082.741-.121l.209-.034.07-.011.208-.034.248-.039.248-.041.249-.039.25-.04.452-.07.456-.071.2-.03.72-.11.464-.07.466-.07.175-.025.527-.078.473-.069.237-.035.481-.069.138-.02.485-.069.19-.026.19-.027.376-.054h.005l.431-.059.433-.06.057-.008.567-.077.571-.078.286-.038.288-.039 1.157-.153.291-.038.293-.039.881-.112.394-.049.495-.062.739-.093.457-.057.286-.035.287-.035.577-.069c.192-.022.385-.047.579-.068l.291-.035.293-.035.3-.034.149-.017.149-.018.8-.094.4-.045.405-.046q.86-.1 1.732-.192l.249-.027.5-.055.126-.013.376-.04.5-.053.506-.053.835-.088.393-.041.1-.01.105-.011.19-.02.31-.031.155-.015.155-.016q.621-.063 1.249-.124l.566-.056h.061l.2-.02.157-.015h.046l.409-.039q1.489-.143 3-.279l.374-.034.605-.054c.408-.036.817-.073 1.228-.108l1.236-.107.561-.047.563-.048 1.992-.161.669-.054.335-.025.335-.026.8-.061.807-.06.309-.023.307-.023.31-.022.31-.022.941-.068.356-.025.652-.047.653-.045.5-.033.173-.011.324-.023c.132-.01.262-.018.393-.026s.261-.018.392-.025l.633-.041.318-.021.318-.021.631-.04.634-.04c.423-.027.847-.052 1.273-.078q.973-.059 1.953-.114l1.3-.073.341-.019.512-.028.513-.028.91-.048.914-.048h.084q1.319-.067 2.647-.129l.2-.009c.346-.017.692-.032 1.039-.048l.76-.034 1.006-.042 1.008-.043.588-.023.588-.024q.763-.03 1.53-.058l.34-.012.34-.012.184-.006.59-.021.591-.021.512-.016.531-.018 1.013-.033.687-.021 1.749-.051 1.268-.033.216-.005.228-.006h.186l.925-.022.6-.014.259-.006h.044l.3-.006 1.62-.033.527-.011 1.106-.02h.273l.5-.009.929-.015 1.422-.021 1.421-.017.458-.005h.681l1.143-.011h.022l1.122-.007 1.073-.008H150.441l1.5.005h.239q.757 0 1.513.01l1.568.012h.2l1.357.014H157.12l1.654.021.849.013.832.014q.838.013 1.674.03l.715.013.714.014 1.425.031.947.022.944.023.678.017h.265l.461.011.571.016.844.025.411.012.22.007.219.007h.264l.633.021h.121l.189.006c.142 0 .284.01.426.013l.426.013.408.014.282.01h.126l.427.015.5.018.374.013h.087l.384.013h.1l.311.012.171.006h.032l.172.005h.181c.054 0 .108 0 .161.005l.393.016.394.015.442.018.473.019.409.017.5.022 1.059.046.757.034c.14.005.279.013.419.019h.038l.2.009.2.009q.2.008.4.019l.4.019 1.061.051.256.012h.006l.249.012.123.006.731.038.422.022h.083l.615.033.614.032.464.025.761.042.124.006h.032l.539.031.523.03.271.015.27.015.381.022.29.017.325.02.836.051.849.053.844.052h.077l.386.025.386.024h.116l.832.055.429.029.428.029.558.038.158.011.137.009.6.042.247.017.561.041.284.021.133.009.132.009.125.009.129.009.141.011.183.013.179.013.179.013.225.017.546.04.54.041.067.005h.025l.154.012.076.005.509.039.664.051.462.037.216.017.189.015h.125l.328.027.674.055.639.052.815.067.812.068c.517.044 1.032.087 1.544.134l1.049.093 1.044.094 1.037.1.874.082 1.552.149.644.063.744.074.739.074.531.054.75.077.746.078.342.036c.034 0 .067.006.1.011l.239.024.32.034.478.052.333.036.4.044.729.08.728.081.721.082.426.049.424.048.832.1q1.655.194 3.263.393l.315.04.374.047.678.086.348.044.163.021.7.091.313.041q.589.077 1.17.155 1.33.179 2.624.36l1.286.182 1.267.184 1.248.187.213.031.293.045.084.013.64.1.607.094.6.1.075.012.671.106.408.066.039.006.588.1q1.125.185 2.213.372l.209.036.1.019.34.059.17.03.206.036.154.026.051.01.05.009.1.018.569.1.953.173.67.124q.838.155 1.65.313l.271.053.823.162q.542.106 1.071.216l.19.039.486.1.906.19.739.159.322.07q.64.14 1.258.281 2.715.619 5.015 1.244 1.632.443 3.043.888c5.293 1.666 8.194 3.317 8.194 4.8" transform="translate(-23.653 -1872.988)" style="fill:#5ca6b1"/>
                <path data-name="Path 28008" d="M325.846 2030.8c-1.441 1.423-3.992 2.884-7.741 4.332a91.161 91.161 0 0 1-10.689 3.267q-1.636.408-3.414.808c-10.891 2.454-25.842 4.712-45.341 6.486-12.281 1.116-26.367 2.04-42.379 2.7l-1.632.066-1.218.047c-3.028.117-6.01.551-8.974.807q-5.42-.06-10.688-.165-4.443-.088-8.763-.2c-12.222-.334-23.664-.842-34.005-1.495-5.948-.375-11.531-.8-16.689-1.264q-2.636-.237-5.12-.49-.923-.093-1.824-.189l-.449-.048-.168-.018-.423-.046q-.844-.09-1.666-.185l-.657-.074-.835-.1-.592-.07-.5-.061-.72-.088h-.022l-.124-.015-.493-.062-.4-.051-.669-.086-.143-.019-.845-.111-.494-.067-.244-.033-.11-.015c-.405-.055-.807-.111-1.2-.167l-.375-.053-.371-.054q-.424-.062-.841-.125l-.277-.041-.128-.02-.419-.064q-.544-.084-1.074-.169l-.5-.082-.542-.089-.257-.043-.507-.086-.5-.086-.413-.074-.323-.058-.242-.044-.24-.044q-.6-.109-1.169-.221l-.4-.078-.5-.1q-.333-.067-.655-.135l-.466-.1-.555-.122q-.639-.142-1.237-.286l-.2-.047-.1-.024-.1-.024-.148-.037-.147-.037a7.682 7.682 0 0 1-.376-.1l-.4-.106-.349-.094q-.6-.166-1.159-.333 1.6-.578 3.388-1.171 2.358-.78 5.044-1.584 1.257-.375 2.582-.753l.7-.2q.574-.163 1.162-.325 2.179-.6 4.523-1.215a553.773 553.773 0 0 1 63.7-11.968 714.834 714.834 0 0 1 18.152-2.187h.199l.925-.022.6-.014.259-.006h.044l.3-.006 1.093-.022 1.054-.021 1.379-.024 1.433-.024h.313l1.109-.016 1.421-.017.458-.005h.681l1.143-.011c.38 0 .758-.005 1.14-.007l1.073-.008H220.933l1.5.005h.239q.757 0 1.513.01l1.568.012h.2l1.357.014H227.612q.829.009 1.654.021l.849.013q1.617.024 3.221.057l.714.014 1.425.031.947.022.944.023.678.017h.147l.579.015.571.016.844.025.411.012.524.016h.179l.633.021h.121l.189.006.426.013.427.014.407.013.282.01h.126l.427.015.5.018.374.013h.087l.384.013h.077l.15.005.181.006.171.007h.032c.173 0 .344.012.517.019l.393.016.394.015.442.018.472.019.409.017.5.022 1.059.046.757.034c.14.005.279.013.419.019h.038l.2.009.2.009q.2.008.4.019l.4.019 1.061.051.256.012h.006l.185.01.447.022.471.023.422.022h.083l.615.032.614.032.464.025.761.042.124.006h.032l.539.031.523.03.271.015.27.015.381.022.29.017.325.02.836.051.849.053.844.052h.077l.773.049h.116l.832.055.429.029.428.029.558.038.158.011.137.009.6.042.247.017.561.041.284.021.133.009.132.009.131.01h.037l.227.016.183.013.179.013.179.013.441.032.331.025.54.041.067.005h.025l.154.012.076.005.509.04.663.051.463.036.216.017.189.015h.125l.328.026.674.055.639.052.815.067.812.068c.517.044 1.032.087 1.544.134l1.049.093 1.044.094 1.037.1.874.082 1.552.149.644.063q.745.073 1.483.148l.531.054.75.077.746.078.342.036c.034 0 .067.006.1.011q.52.054 1.037.11l.333.036q.567.061 1.13.124l.728.081.721.082.426.049.424.048.832.1q1.655.194 3.264.393l.315.04.374.047.678.086.348.044.164.021.7.091.313.041 1.171.155q1.33.179 2.624.36l1.286.182 1.267.184 1.248.187.506.077.084.013.64.1.607.094.6.1.075.011 1.079.173.039.006.588.1q1.125.185 2.213.372l.209.036.445.077.17.03.41.072.05.009.1.018.569.1.953.173.67.124q.838.155 1.65.313l.271.053.823.162q.542.106 1.071.216l.19.039.486.1c.305.063.606.127.905.19l.739.159.322.07q.64.14 1.258.281" transform="translate(-94.162 -1872.988)" style="fill:#7ebac4"/>
                <path data-name="Path 28009" d="M218.789 2029.944c0 6.444-55.082 11.667-123.03 11.667-22.3 0-43.21-.563-61.245-1.546q-3.351-.183-6.567-.385a2.9 2.9 0 0 1-1.846-.8l-.1-.1a1.57 1.57 0 0 1-.11-.127l-.049-.063c-.019-.027-.039-.052-.056-.079a1.281 1.281 0 0 1-.075-.12 1.397 1.397 0 0 1-.062-.122l-.028-.064c-.009-.021-.016-.037-.021-.057v-.007c-.006-.018-.012-.034-.016-.051a.644.644 0 0 1-.021-.08.277.277 0 0 1-.009-.041.013.013 0 0 1 0-.006.158.158 0 0 1-.005-.031 1.1 1.1 0 0 1-.015-.179v-.076c0-.026 0-.041.005-.061a.237.237 0 0 1 .006-.041.086.086 0 0 1 0-.016.186.186 0 0 1 .006-.033.622.622 0 0 1 .013-.061c0-.014.007-.029.012-.043l.006-.023.02-.06a1.447 1.447 0 0 1 .085-.196c.013-.026.028-.051.043-.078l.047-.078a2.475 2.475 0 0 1 .171-.236l.066-.079.073-.079.065-.068.083-.082a5.71 5.71 0 0 1 .371-.322l.079-.062c.053-.041.109-.082.167-.123.143-.1.3-.205.464-.31l.132-.083.138-.082c.047-.027.094-.056.143-.082l.073-.042.074-.041c.1-.056.2-.11.308-.166.05-.027.1-.052.154-.079l.251-.127.264-.126.134-.063.273-.125.142-.063c.115-.051.232-.1.353-.153l.139-.059.227-.094.189-.077.172-.068.067-.027.069-.027.181-.07.466-.176a81.337 81.337 0 0 1 .727-.26l.177-.062c.075-.027.15-.051.225-.077.151-.052.3-.1.459-.155.078-.027.156-.051.235-.077l.267-.088a73.548 73.548 0 0 1 1.117-.348l.584-.174.3-.086c.088-.027.178-.051.268-.077l.3-.085.251-.069.32-.089c.08-.024.16-.045.241-.066l.346-.094.46-.123.957-.248.305-.077q.634-.159 1.3-.318.514-.123 1.043-.246.609-.143 1.239-.283l.167-.037.167-.036.212-.048.215-.047c.3-.067.61-.132.92-.2l.053-.012.68-.143.406-.084q.915-.189 1.87-.377l.191-.038.192-.037 1.165-.224.394-.074.4-.075.4-.075q1.264-.234 2.585-.464l.886-.152.686-.118.432-.073c.144-.023.289-.049.434-.072l.437-.073.741-.121.488-.079.5-.079.5-.078.452-.072.456-.071c.3-.047.61-.094.917-.14l.93-.139.7-.1.71-.1 1.1-.158.76-.107.921-.128 1.139-.155.573-.077 1.158-.153.583-.076c.585-.075 1.176-.151 1.771-.224l1.2-.148.574-.069.577-.071.579-.068.584-.069.3-.034.3-.034.8-.094.809-.091q1.966-.223 3.991-.435l.835-.087.393-.041.394-.039.31-.031.31-.032 1.249-.124.566-.055h.061l.407-.041.409-.038q1.488-.142 3-.28l.979-.088 1.228-.108 1.236-.106 1.124-.095 1.993-.161.669-.052.671-.052a379.39 379.39 0 0 1 1.612-.122l.617-.046.309-.024c.1-.006.207-.015.31-.022q1.295-.095 2.6-.184.5-.035.994-.067l.393-.027c.13-.01.261-.018.392-.026l.633-.042.636-.041 1.266-.08 1.273-.078q.973-.059 1.952-.114l1.3-.073.341-.019 1.024-.055 1.824-.095h.084q1.319-.067 2.648-.129c.665-.031 1.331-.061 2-.09l2.015-.085 1.176-.047q.763-.03 1.529-.058l.341-.013.34-.013.184-.006c.393-.015.787-.028 1.181-.042l2.056-.067.688-.021 1.749-.051 1.267-.033.431-.01h.014l.187-.005.925-.022 1.21-.028q1.07-.024 2.147-.044 1.4-.027 2.811-.049l1.423-.021 1.421-.017q.458-.007.917-.01h.222l1.143-.011 1.144-.007q1.11-.008 2.225-.012h2.383q6.878 0 13.567.128 1.432.027 2.854.06l.947.022.944.023.943.024 1.877.053.411.012.44.014h.148l.748.023h.121l1.857.062.427.015.5.018.922.034.5.018h.032c.173.005.345.012.517.019l.787.031.442.018.472.019.409.017.5.021 1.058.046.757.034.457.02.393.018.792.037 1.061.051.895.045.471.023.422.021h.082l1.23.065.464.026.76.042.124.006h.032l.539.03.523.03.542.031.38.022.29.017.326.019.836.05 1.693.106.076.005.773.049.116.007.832.054.856.058.559.037.158.011.137.01.849.059.562.041.284.02q.423.029.843.061l.358.026.229.017.216.015.874.066.067.005.179.013.585.045.663.051.678.053.189.015.107.009h.018l1 .081.639.052.815.067.812.069c7.851 2.05 12.254 4.131 12.254 5.953" transform="translate(-23.654 -1873.005)" style="fill:#91d1d1"/>
                <path data-name="Path 28010" d="M121.951 2038.588c0 3.344-7.189 6.358-18.708 8.484-10.682 1.973-25.088 3.182-40.937 3.182-3.593 0-7.113-.062-10.53-.181-5.879-.2-11.46-.579-16.607-1.094a5.811 5.811 0 0 1 .45-.384c.054-.04.11-.082.167-.122.143-.1.3-.206.464-.31l.132-.083c.046-.028.091-.056.138-.082s.093-.056.143-.083l.073-.042a9.646 9.646 0 0 1 .381-.206l.154-.079.252-.127.264-.127.133-.063.274-.125.142-.063c.115-.051.232-.1.353-.153.046-.021.093-.04.139-.059l.227-.094.189-.077.173-.068.067-.026a.983.983 0 0 1 .069-.027l.181-.071.465-.176c.16-.057.322-.118.488-.176l.24-.084.178-.062c.075-.027.149-.051.225-.076.151-.053.3-.105.46-.156.077-.027.155-.051.234-.076l.267-.088.55-.174.567-.174.585-.173.3-.087c.087-.026.178-.051.268-.076l.3-.085.251-.07.321-.088a28.95 28.95 0 0 1 .588-.16l.46-.122c.314-.083.632-.164.957-.248l.306-.077c.422-.106.855-.212 1.3-.318.343-.083.69-.164 1.044-.246q.608-.141 1.239-.283l.166-.037a9.99 9.99 0 0 1 .167-.037l.212-.047.215-.048c.3-.067.61-.132.92-.2l.053-.011.681-.143.406-.084q.914-.189 1.869-.377l.191-.039.192-.037 1.165-.225.394-.073.4-.075.4-.074q1.264-.234 2.584-.464l.887-.152.686-.118.431-.073.434-.071c.145-.023.29-.049.437-.073l.741-.121.488-.079c.165-.025.331-.052.5-.079l.5-.077.452-.072.456-.071.917-.139c.309-.048.619-.093.931-.139l.7-.1c.236-.036.472-.07.71-.1l1.1-.158.761-.107.921-.127 1.138-.156.574-.076 1.157-.153.584-.076q.877-.112 1.771-.224l1.2-.149.573-.069.577-.07c.192-.022.385-.047.579-.068l.584-.07.3-.034.3-.034c.267-.03.535-.063.8-.094l.808-.091q1.966-.223 3.991-.434l.835-.088.393-.041.393-.039.31-.031.31-.031q.621-.063 1.249-.124l.566-.056h.062l.407-.041.409-.039q1.489-.143 3-.279.486-.046.979-.088l1.228-.108 1.236-.106 1.124-.1 1.992-.161.669-.052.67-.053 1.612-.121.618-.046c.1-.009.206-.015.308-.023l.31-.022q1.295-.1 2.6-.184l.994-.067.394-.027c.13-.009.26-.018.392-.025l.633-.042.636-.041 1.266-.08 1.273-.078q.973-.059 1.953-.114l1.3-.073.34-.019 1.025-.056a8.686 8.686 0 0 1 1.359 1.422 4.848 4.848 0 0 1 .49.809 2.866 2.866 0 0 1 .294 1.215" transform="translate(-32.584 -1885.55)" style="fill:#d6f4f4"/>
                <path data-name="Path 28011" d="M495.275 2174.261c-7.169 0-14.024.123-20.33.348-21.035.751-35.951 2.632-35.951 4.834 0 1.767 9.6 3.327 24.269 4.263 7.307-1.994 11.868-4.821 11.868-7.957a3.464 3.464 0 0 0-.04-.512 3.453 3.453 0 0 1 .04.512c0 3.136-4.561 5.963-11.868 7.957 9.088.58 20.118.919 32.012.919 31.083 0 56.281-2.32 56.281-5.181s-25.2-5.182-56.281-5.182" transform="translate(-406.726 -2014.445)" style="fill:#4c969b"/>
                <path data-name="Path 28012" d="M730.624 624.218v89.722a11.29 11.29 0 0 1-11.291 11.291H580.748a11.291 11.291 0 0 1-11.29-11.291v-89.722a11.29 11.29 0 0 1 11.29-11.291h138.585a11.291 11.291 0 0 1 11.291 11.291" transform="translate(-527.601 -567.875)" style="fill:#197daf"/>
                <path data-name="Path 28013" d="M640.937 612.927q-3.6 1.706-7.141 3.542h-46.767a6.545 6.545 0 0 0-6.545 6.545v41.092q-2.544 4.4-4.638 9.023-.932 2.049-1.781 4.135-.737 1.808-1.412 3.642-1.8 4.884-3.194 9.925v-66.613a11.29 11.29 0 0 1 11.29-11.291z" transform="translate(-527.601 -567.875)" style="fill:#66ade1"/>
                <g data-name="Group 16543" style="opacity:.83">
                    <g data-name="Group 16542">
                        <g data-name="Group 16541" style="clip-path:url(#kgmc6wx2ed)" transform="translate(52.883 48.594)">
                            <path data-name="Path 28014" d="M854.053 667.657v92.131a6.545 6.545 0 0 1-6.545 6.545h-121.5a6.545 6.545 0 0 1-6.545-6.545v-92.131a6.545 6.545 0 0 1 6.545-6.545h121.5a6.545 6.545 0 0 1 6.545 6.545" transform="translate(-719.46 -661.112)" style="fill:#fefefe"/>
                        </g>
                    </g>
                </g>
                <path data-name="Path 28015" d="M1656.9 926.164h-11.95a.209.209 0 0 1-.213-.191.2.2 0 0 1 .2-.213h11.95a.209.209 0 0 1 .213.191.2.2 0 0 1-.2.213" transform="translate(-1523.842 -857.714)" style="fill:#0e2549"/>
                <path data-name="Path 28016" d="M1361.2 906.529h-46.686a2.671 2.671 0 0 1-2.671-2.671v-1.188a2.671 2.671 0 0 1 2.671-2.671h46.686a2.671 2.671 0 0 1 2.672 2.671v1.187a2.671 2.671 0 0 1-2.671 2.671" transform="translate(-1215.419 -833.846)" style="fill:#095996"/>
                <path data-name="Path 28017" d="M1430.018 942.827V990.1a4.269 4.269 0 0 1-4.269 4.269h-25.918a4.269 4.269 0 0 1-4.269-4.269v-47.2a3.022 3.022 0 0 0-3.022-3.022h34.531a2.949 2.949 0 0 1 2.947 2.949" transform="translate(-1290.183 -870.793)" style="fill:#fff"/>
                <path data-name="Path 28018" d="M1595.162 1612.858h-11.619a.207.207 0 0 1-.205-.162.2.2 0 0 1 .2-.242h11.618a.206.206 0 0 1 .205.162.2.2 0 0 1-.2.242" transform="translate(-1466.953 -1493.933)" style="fill:#ffa710"/>
                <path data-name="Path 28019" d="M1849.508 1015.549a.207.207 0 0 1-.162-.205v-38.351a.207.207 0 0 1 .162-.205.2.2 0 0 1 .242.2v38.366a.2.2 0 0 1-.242.2" transform="translate(-1713.412 -904.986)" style="fill:#ffa710"/>
                <path data-name="Path 28020" d="M1484.79 1017.709a.209.209 0 0 1-.191-.213v-38.343a.209.209 0 0 1 .191-.213.2.2 0 0 1 .213.2v38.366a.2.2 0 0 1-.213.2" transform="translate(-1375.475 -906.984)" style="fill:#ffa710"/>
                <path data-name="Path 28021" d="M1357.423 1814.672a3.195 3.195 0 0 1-3.2 3.172h-43.78a3.248 3.248 0 0 1-3.251-3.219 3.194 3.194 0 0 1 3.195-3.171h43.78a3.288 3.288 0 0 1 2.915 1.792 3.093 3.093 0 0 1 .337 1.427" transform="translate(-1211.112 -1678.305)" style="fill:#197daf"/>
                <path data-name="Path 28022" d="M1342.642 1814.675a3.194 3.194 0 0 1-3.2 3.171h-29a3.248 3.248 0 0 1-3.251-3.219 3.195 3.195 0 0 1 3.2-3.171h29a3.248 3.248 0 0 1 3.252 3.219" transform="translate(-1211.108 -1678.307)" style="fill:#ffa710"/>
                <path data-name="Path 28023" d="M931.474 1226.273v55.93a11.29 11.29 0 0 1-11.291 11.291h-133.94q1.679-1.815 3.449-3.541h119.69a6.545 6.545 0 0 0 6.545-6.545v-54.43q7.735-1.565 15.547-2.705" transform="translate(-728.451 -1136.137)" style="fill:#05517f"/>
                <path data-name="Path 28024" d="M633.189 1181.571h-.324a.728.728 0 0 1-.728-.728v-32.2a.728.728 0 0 1 .728-.728h.324a.728.728 0 0 1 .728.728v32.2a.728.728 0 0 1-.728.728" transform="translate(-585.672 -1063.538)" style="fill:#05517f"/>
                <path data-name="Path 28025" d="M1563.5 1124.4a.365.365 0 0 0-.267-.109h-.632a5.222 5.222 0 0 0-.415-1.749 3.952 3.952 0 0 0-.808-1.194l-.032-.031a3.153 3.153 0 0 0-1.146-.711 4.018 4.018 0 0 0-1.353-.228 3.706 3.706 0 0 0-1.69.356 4.072 4.072 0 0 0-1.2.919 5.945 5.945 0 0 0-.86 1.255q-.355.691-.632 1.383h-3.853a4.141 4.141 0 0 1 .395-1.245 5.466 5.466 0 0 1 .672-1.047.786.786 0 0 0 .247-.484.377.377 0 0 0-.208-.306l-1.185-.771q-.218-.139-.336-.089a.84.84 0 0 0-.257.188q-.119.138-.356.435a4.386 4.386 0 0 0-.474.771 7.43 7.43 0 0 0-.435 1.106 6.414 6.414 0 0 0-.257 1.443h-2.055a.274.274 0 0 0-.306.217 1.791 1.791 0 0 0-.05.4.42.42 0 0 0 .1.276.32.32 0 0 0 .257.119h2.055a4.478 4.478 0 0 0 1.2 3.053 3.7 3.7 0 0 0 2.7 1.057 3.4 3.4 0 0 0 1.689-.405 4.814 4.814 0 0 0 1.255-1.008 6.277 6.277 0 0 0 .9-1.324q.365-.721.642-1.373h3.616a4.845 4.845 0 0 1-.474 1.265q-.317.573-.593.988-.2.3.158.553l1.146.79a.509.509 0 0 0 .356.069.4.4 0 0 0 .3-.188q.1-.139.287-.445a7.226 7.226 0 0 0 .4-.76 7.6 7.6 0 0 0 .375-1.038 6.639 6.639 0 0 0 .227-1.235h.652a.371.371 0 0 0 .376-.376v-.257a.363.363 0 0 0-.109-.267m-10.384 2.065a1.876 1.876 0 0 1-1.086.356 1.266 1.266 0 0 1-1.028-.425 2.032 2.032 0 0 1-.435-1.1h3.478a3.094 3.094 0 0 1-.929 1.166m4.071-2.173a4.509 4.509 0 0 1 .78-1.126 1.448 1.448 0 0 1 1.946 0l.017.017a1.844 1.844 0 0 1 .477 1.109z" transform="translate(-1432.368 -1037.989)" style="fill:#ffa710"/>
                <path data-name="Path 28026" d="M1775.227 1533.088h-5.483a11.991 11.991 0 0 1 9.752-11.753v7.484a4.269 4.269 0 0 1-4.269 4.269" transform="translate(-1639.661 -1409.511)" style="fill:#fff"/>
                <path data-name="Path 28027" d="M1775.227 1533.088h-5.483a11.991 11.991 0 0 1 9.752-11.753v7.484a4.269 4.269 0 0 1-4.269 4.269" transform="translate(-1639.661 -1409.511)" style="fill:#ffa710"/>
                <path data-name="Path 28028" d="M1434.57 1533.088h5.483a11.99 11.99 0 0 0-9.752-11.753v7.484a4.269 4.269 0 0 0 4.269 4.269" transform="translate(-1325.168 -1409.511)" style="fill:#ffa710"/>
                <path data-name="Path 28029" d="M2597.572 1318.237a4.309 4.309 0 1 1-4.309 4.309 4.309 4.309 0 0 1 4.309-4.309" transform="translate(-2402.648 -1221.342)" style="fill:#197daf"/>
                <g data-name="Group 16552" style="opacity:.48">
                    <g data-name="Group 16551">
                        <g data-name="Group 16550" style="clip-path:url(#0rdd80vmqe)" transform="translate(41.857 45.053)">
                            <g data-name="Group 16546" style="opacity:.69">
                                <g data-name="Group 16545">
                                    <g data-name="Group 16544" style="clip-path:url(#879mxr8mqf)">
                                        <path data-name="Path 28030" d="m646.809 612.927-2.795 3.542-13.856 17.559-4.706 5.963-44.968 56.987-11.026 13.972v-26l3.194-4.047 1.412-1.791 1.781-2.256 4.638-5.878 30.562-38.73 12.455-15.779 2.8-3.542z" transform="translate(-569.458 -612.928)" style="fill:#fefefe"/>
                                    </g>
                                </g>
                            </g>
                            <g data-name="Group 16549" style="opacity:.73">
                                <g data-name="Group 16548">
                                    <g data-name="Group 16547" style="clip-path:url(#op0k0forjg)" transform="translate(2.953)">
                                        <path data-name="Path 28031" d="m724.062 612.927-2.795 3.542-13.856 17.559-3.3 4.178-1.856 2.352-1.1 1.395-.4.511-6.923 8.773-1.447 1.833-.876 1.109-.8 1.008-16.367 20.741-.4.512-2.8 3.548-.945 1.2-.247.313-31.714 40.189-2.795 3.541h-17.473a11.258 11.258 0 0 1-8.337-3.678l8.073-10.23L670.2 644.8l3.346-4.24.4-.5.174-.22 2.267-2.873 2.314-2.932 13.856-17.559 2.795-3.542z" transform="translate(-609.631 -612.927)" style="fill:#fefefe"/>
                                    </g>
                                </g>
                            </g>
                            <path data-name="Path 28032" d="m1548.394 623.431-12.72 16.12-53.786 68.159-2.186 2.77-2.844 3.6-.012.016-11.266 14.276-2.795 3.541h-7.628l2.795-3.541 11.266-14.276 5.042-6.39 7.553-9.572 6.219-7.881 47.641-60.372 7.686-9.74a11.3 11.3 0 0 1 5.035 3.287" transform="translate(-1390.056 -619.614)" style="fill:#fefefe"/>
                        </g>
                    </g>
                </g>
                <path data-name="Path 28033" d="m1408 940.311.346.139a.84.84 0 0 0 1.093-.466l6.635-16.5a.84.84 0 0 0-.466-1.093l-.346-.139a.84.84 0 0 0-1.093.466l-6.635 16.5a.84.84 0 0 0 .466 1.093" transform="translate(-1304.017 -854.402)" style="fill:#00d6bc"/>
                <path data-name="Path 28034" d="m490.857 2079.515-.093 1.368-.162 2.371c-.019.274-.048.578-.087.9-.319 2.585-1.39 6.456-4.444 7.229a30.958 30.958 0 0 1-4.978.639c-2.375.163-5.172.246-8.035.324a71.935 71.935 0 0 1-5.159-.038 42.217 42.217 0 0 1-11.02-1.741 2.944 2.944 0 0 1-.252-.094c-2.152-.92-3.4-4.341-3.8-5.982l-1.1-4.486h.147l2.854-.036 1.579-.02 2.309-.03 6.581-.083 10.186-.128 11.387-.144 2.581-.032 1.235-.015z" transform="translate(-418.521 -1926.662)" style="fill:#8edaea"/>
                <path data-name="Path 28035" d="M492.505 2021.206a5.028 5.028 0 0 1-.99 1.286c-2.585 2.542-9.442 2.917-13.695 3.14l-.332.018a65.091 65.091 0 0 1-9.473-.184 59.52 59.52 0 0 1-6.781-1.021c-2.859-.6-7.386-1.821-7.62-4.116a2.045 2.045 0 0 1 .136-.945 3.709 3.709 0 0 1 1.367-1.676 14.855 14.855 0 0 1 6.389-2.053q1.992-.287 4.476-.422 3.6-.2 8.237-.093c.417.009 1.483.044 2.907.136a73.178 73.178 0 0 1 7.764.877c2.773.489 5.367 1.208 6.775 2.26l.022.016a2.056 2.056 0 0 1 .819 2.778" transform="translate(-420.262 -1866.985)" style="fill:#d6f4f4"/>
                <path data-name="Path 28036" d="M510.594 2039.423c-1.662-1.557 2.411-3.573 13.093-3.725s16.764 1.754 17.431 3.523c.875 2.322-26.264 4.194-30.524.2" transform="translate(-472.731 -1886.059)" style="fill:#fff"/>
                <path data-name="Path 28037" d="m490.868 1959.148-.093 1.369-.162 2.371a16.148 16.148 0 0 1-.679 3.682 10.617 10.617 0 0 1-.57 1.444 5.177 5.177 0 0 1-3.281 3 60.551 60.551 0 0 1-10.475.891c-.834.027-1.683.05-2.539.073a68.943 68.943 0 0 1-7.156-.158 39.326 39.326 0 0 1-9.023-1.619 4.514 4.514 0 0 1-2.152-1.754 11.692 11.692 0 0 1-1.352-2.585 14.608 14.608 0 0 1-.551-1.736l-1.1-4.487h.147l2.856-.036 1.578-.02 7.2-.091 11.878-.15 11.388-.144 2.581-.033z" transform="translate(-418.533 -1815.143)" style="fill:#8edaea"/>
                <path data-name="Path 28038" d="M492.5 1900.848a5.022 5.022 0 0 1-.99 1.286c-1.36 1.338-3.9 2.075-6.626 2.506a71.646 71.646 0 0 1-7.316.647h-.085l-.363.018a65.219 65.219 0 0 1-8.264-.128q-1.33-.107-2.649-.269-2.382-.292-4.705-.77l-.271-.056c-2.858-.6-7.385-1.821-7.62-4.116a2.034 2.034 0 0 1 .136-.945 3.71 3.71 0 0 1 1.367-1.677 14.844 14.844 0 0 1 6.389-2.053 55.709 55.709 0 0 1 5.739-.482q3.133-.12 6.974-.032c.417.009 1.483.044 2.907.136a73.2 73.2 0 0 1 7.76.876c2.774.49 5.369 1.208 6.778 2.261l.022.015a2.057 2.057 0 0 1 .819 2.778" transform="translate(-420.261 -1755.474)" style="fill:#d6f4f4"/>
                <path data-name="Path 28039" d="M510.594 1919.062c-1.662-1.557 2.411-3.573 13.093-3.725s16.764 1.754 17.431 3.523c.875 2.322-26.264 4.194-30.524.2" transform="translate(-472.731 -1774.545)" style="fill:#fff"/>
                <path data-name="Path 28040" d="m490.868 1838.794-.093 1.369-.162 2.37a16.154 16.154 0 0 1-.679 3.683 10.664 10.664 0 0 1-.57 1.444 5.18 5.18 0 0 1-3.281 3 62.092 62.092 0 0 1-10.688.9c-.766.023-1.543.045-2.326.066a65.886 65.886 0 0 1-8.927-.322 36.583 36.583 0 0 1-7.251-1.455 4.516 4.516 0 0 1-2.151-1.754 11.683 11.683 0 0 1-1.353-2.586 14.56 14.56 0 0 1-.551-1.736l-.592-2.417-.508-2.069h.146l4.434-.056 11.677-.148 7.4-.093 3.984-.05 7.4-.093z" transform="translate(-418.533 -1703.635)" style="fill:#8edaea"/>
                <path data-name="Path 28041" d="M492.585 1780.3a3.5 3.5 0 0 1-.086.19 5.022 5.022 0 0 1-.991 1.285c-1.361 1.339-3.9 2.075-6.628 2.506a71.39 71.39 0 0 1-7.316.647h-.077l-.363.018c-1.835.088-3.679.1-5.516.031q-1.376-.05-2.743-.159h-.006q-1.221-.1-2.431-.241a58.535 58.535 0 0 1-4.924-.8l-.271-.056a22.3 22.3 0 0 1-5.577-1.8c-1.129-.611-1.947-1.371-2.044-2.311a2.048 2.048 0 0 1 .137-.946c.609-1.613 2.632-2.743 6.038-3.435a65.193 65.193 0 0 1 13.132-.833q.637.008 1.3.023c.331.007 1.069.031 2.071.086a83.34 83.34 0 0 1 6.344.579c.687.092 1.377.2 2.061.313 2.858.492 5.552 1.224 6.987 2.311a2.844 2.844 0 0 1 .93 1.091 1.851 1.851 0 0 1-.024 1.5" transform="translate(-420.256 -1643.958)" style="fill:#d6f4f4"/>
                <path data-name="Path 28042" d="M510.594 1798.7c-1.662-1.557 2.411-3.573 13.093-3.725s16.764 1.754 17.431 3.523c.875 2.322-26.264 4.194-30.524.2" transform="translate(-472.731 -1663.031)" style="fill:#fff"/>
                <path data-name="Path 28043" d="m361.971 1707.892-.093 1.37-.161 2.368c-.015.217-.036.453-.063.7-.04.359-.1.746-.168 1.15a14.946 14.946 0 0 1-.369 1.57 9.7 9.7 0 0 1-1.16 2.607 4.71 4.71 0 0 1-2.77 2.1c-.357.09-.764.171-1.214.244-.771.126-1.668.228-2.662.312h-.006c-1.906.161-4.164.258-6.547.333-.849.027-1.714.05-2.585.074a64.419 64.419 0 0 1-9.668-.409 47.574 47.574 0 0 1-1.683-.241 32.494 32.494 0 0 1-4.828-1.128c-2.309-.751-3.637-4.374-4.055-6.076l-1.1-4.486h.147l4.434-.056 7.331-.093 20.082-.254 1.135-.014 1.914-.023z" transform="translate(-299.11 -1582.355)" style="fill:#8edaea"/>
                <path data-name="Path 28044" d="M362.783 1646.806c-3.705-2.8-15.8-3.251-17.468-3.289-12.347-.277-19.249 1.01-20.469 4.245-1.1 2.916 4.256 4.379 7.485 5.061a63.089 63.089 0 0 0 16.253 1.205c4.219-.223 11.373-.548 14.027-3.158 1.755-1.725 1.514-3.049.171-4.064" transform="translate(-300.833 -1522.679)" style="fill:#d6f4f4"/>
                <path data-name="Path 28045" d="M381.7 1667.8c-1.662-1.557 2.411-3.573 13.093-3.725s16.764 1.754 17.431 3.523c.875 2.322-26.264 4.194-30.524.2" transform="translate(-353.31 -1541.754)" style="fill:#fff"/>
                <path data-name="Path 28046" d="m490.857 1598.06-.093 1.368-.1 1.495-.059.875a13.6 13.6 0 0 1-1.639 5.84 4.8 4.8 0 0 1-2.892 2.292c-.112.029-.231.056-.352.083a34.294 34.294 0 0 1-4.654.559c-1.519.1-3.209.175-4.978.234l-.7.022c-.766.024-1.544.046-2.326.067q-.928.025-1.807.028a46.838 46.838 0 0 1-14.373-1.806 3.114 3.114 0 0 1-.6-.27 6.135 6.135 0 0 1-2.114-2.37 14.452 14.452 0 0 1-1.251-3.088 17.079 17.079 0 0 1-.091-.346l-.331-1.349-.769-3.138h.147l4.435-.056 2.476-.031.8-.01 15.8-.2 11.388-.144z" transform="translate(-418.521 -1480.596)" style="fill:#8edaea"/>
                <path data-name="Path 28047" d="M492.5 1539.76a4.988 4.988 0 0 1-.99 1.286c-2.126 2.09-7.142 2.715-11.221 3-1.012.069-1.967.118-2.806.163q-1.625.086-3.257.092a62.655 62.655 0 0 1-11.765-1.051q-.618-.117-1.231-.246a28.309 28.309 0 0 1-4.176-1.17c-1.8-.693-3.313-1.646-3.446-2.947a2.058 2.058 0 0 1 .137-.945c.539-1.429 2.186-2.478 4.922-3.179 3.458-.887 8.654-1.22 15.548-1.065 1.668.038 13.762.487 17.468 3.289a2.056 2.056 0 0 1 .818 2.777" transform="translate(-420.257 -1420.928)" style="fill:#d6f4f4"/>
                <path data-name="Path 28048" d="M510.594 1557.98c-1.662-1.557 2.411-3.573 13.093-3.725s16.764 1.754 17.431 3.522c.875 2.323-26.264 4.194-30.524.2" transform="translate(-472.731 -1440.004)" style="fill:#fff"/>
                <path data-name="Path 28049" d="M917.456 1728.387a4.8 4.8 0 0 1-2.892 2.292c-.112.029-.231.056-.352.083z" transform="translate(-847.014 -1601.344)" style="fill:#4c969b"/>
                <g data-name="Group 16555" style="opacity:.2">
                    <g data-name="Group 16554">
                        <g data-name="Group 16553" style="clip-path:url(#smmi61dw0h)" transform="translate(38.271 112.73)">
                            <path data-name="Path 28050" d="M554.48 1559.828a16.159 16.159 0 0 1-.679 3.683l.022.015a2.058 2.058 0 0 1 .858 2.7.51.51 0 0 0-.045.17l-.155 2.282a16.154 16.154 0 0 1-.679 3.682l.022.016a2.057 2.057 0 0 1 .858 2.7.51.51 0 0 0-.045.17l-.155 2.282c-.019.274-.048.578-.087.9-.319 2.585-1.39 6.456-4.444 7.229-.411.1-.886.2-1.417.276-1.009.155-2.217.271-3.561.364-2.375.163-5.172.246-8.035.324-1.73.047-3.334.035-4.812-.023a.465.465 0 0 1-.433-.351c-.456-1.793-.994-4.226-1.539-6.831-.124-.593-.249-1.195-.372-1.8-.076-.372-.153-.746-.227-1.118a792.093 792.093 0 0 1-1.206-6.12q-.119-.614-.229-1.192-.055-.294-.11-.577l-.206-1.087-.42-2.232-.005-.028a3.679 3.679 0 0 1 .516-2.65l.406-.637.265-.417.816-1.279.666-1.043.247-.388 1.57-2.462 2.237-3.508.567-.889.392-.613.07-.111 1.791-2.808 1.206-1.892.921-1.443.116-.182a.468.468 0 0 0-.391-.719 24.451 24.451 0 0 1-10.974-2.421 19.418 19.418 0 0 1-1.807-1.032 17.962 17.962 0 0 1-2.533-1.977 16.035 16.035 0 0 1-1.855-2.062 11.639 11.639 0 0 1-.877-1.341.468.468 0 0 1 .3-.679c3.457-.847 8.58-1.162 15.331-1.011.646.014 2.859.091 5.543.342 4.24.4 9.656 1.231 11.925 2.946a2.056 2.056 0 0 1 .818 2.777l-.1 1.495-.059.875a13.6 13.6 0 0 1-1.639 5.84 4.8 4.8 0 0 1-2.892 2.292c-.112.029-.231.056-.352.083a32.394 32.394 0 0 1-4.272.532.466.466 0 0 0-.428.4l-.044.307a.468.468 0 0 0 .4.534c.529.074 1.059.157 1.585.247 2.859.492 5.552 1.224 6.987 2.311a2.842 2.842 0 0 1 .93 1.091 1.85 1.85 0 0 1-.024 1.5q-.023.055-.049.111a.5.5 0 0 0-.044.168z" transform="translate(-520.67 -1533.661)" style="fill:#4c969b"/>
                        </g>
                    </g>
                </g>
                <g data-name="Group 16558" style="opacity:.2">
                    <g data-name="Group 16557">
                        <g data-name="Group 16556" style="clip-path:url(#j73d6btwoi)" transform="translate(59.5 113.109)">
                            <path data-name="Path 28051" d="M822.058 1564.6a16.16 16.16 0 0 1-.679 3.683l.022.015a2.058 2.058 0 0 1 .858 2.7.513.513 0 0 0-.045.17l-.155 2.282a16.152 16.152 0 0 1-.679 3.682l.022.016a2.057 2.057 0 0 1 .858 2.7.515.515 0 0 0-.045.17l-.155 2.282c-.019.274-.048.578-.087.9-.319 2.585-1.39 6.456-4.444 7.229-.411.1-.886.195-1.417.276-1.868-5.783-5.551-17.289-5.678-18.475-.171-1.591.392-11.219.392-11.219l-.815-12.189-.533-10.006c4.24.4 9.656 1.231 11.925 2.947a2.056 2.056 0 0 1 .818 2.777l-.1 1.495-.059.875a13.6 13.6 0 0 1-1.639 5.84 4.8 4.8 0 0 1-2.892 2.292c-.112.029-.231.056-.352.083a32.375 32.375 0 0 1-4.272.532.466.466 0 0 0-.428.4l-.044.307a.468.468 0 0 0 .4.534c.529.074 1.059.157 1.585.247 2.858.492 5.552 1.224 6.987 2.31a2.843 2.843 0 0 1 .93 1.091 1.85 1.85 0 0 1-.024 1.5q-.023.055-.049.11a.5.5 0 0 0-.044.168z" transform="translate(-809.476 -1538.812)" style="fill:#4c969b"/>
                        </g>
                    </g>
                </g>
                <path data-name="Path 28052" d="M85.696 160.463c-.644 1.67-4 4.435-5.442 5.654a31.276 31.276 0 0 0 14.679.407 26.219 26.219 0 0 1-2.2-2.768 30.126 30.126 0 0 1-7.034-3.293"/>
                <path data-name="Path 28053" d="M71.043 162.804c-.628-.142-.639-.092-.723.1a5.623 5.623 0 0 0-.527 2.1c-.012.2-.038.235.6.38 12.287 2.771 16.655 3.72 29.35 2.144.659-.082.608-.115.612-.318a5.71 5.71 0 0 0-.37-2.158c-.069-.2-.057-.25-.7-.173-12.357 1.484-16.224.647-28.247-2.069"/>
                <path data-name="Path 28054" d="M958.2 2066.726c-.1-.1-.115-.214-.449-.146-.918.186-1.445 1.295-1.678 2.275-.027.112-.167.621-.2.79 1.064.256 2.135.493 3.2.754l-.331 1.319q-1.6-.387-3.2-.749l-1.61 6.374c4.026.9 7.931 2.276 11.938 3.108a60.882 60.882 0 0 0 3.913-5c.507.055 1.014.1 1.524.134a67.694 67.694 0 0 1-3.649 5.2c.65.111 1.313.195 1.97.242a80.86 80.86 0 0 0 2.458-3.33c.543.008 1.086.028 1.629.022q-1.077 1.744-2.232 3.44c.649.04 1.3 0 1.95 0 .361-.577.717-1.157 1.04-1.758.488-.043.981-.064 1.466-.14-.311.632-.608 1.181-.954 1.85a62.568 62.568 0 0 0 9.128-1.87s.934-3.987-1.932-3.167c-6.2.189-9.859-1.188-13.373-6.77-.81-2.182-2.051-4.656-2.4-2.969z" transform="translate(-883.81 -1913.922)" style="fill:#c2172a"/>
                <path data-name="Path 28055" d="M72.433 154.255q-.475 1.869-.944 3.739c1.144.256 2.286.517 3.424.794l-.023-1c.275-.069.548-.141.823-.208-.122-.615-.243-1.229-.367-1.844-.967-.5-1.942-.986-2.913-1.48"/>
                <path data-name="Path 28056" d="M108.254 146.107c.184.223-1.067 7.438-1.067 7.438l11.058-4.692-2.78-2.313z"/>
                <path data-name="Path 28057" d="m95.56 148.422 1.475 3.476 2.763-1.172-.583-.791.438-.611-1.285-1.261z"/>
                <path data-name="Path 28058" d="M99.4 156c-.289.122-.484.327-.43.455l.818 1.929c.053.126.336.128.625.006l22.124-9.387c.287-.122.48-.326.427-.452l-.818-1.929c-.054-.127-.335-.131-.622-.009z"/>
                <path data-name="Path 28059" d="M1307.678 1932.329c-2.623.909-6.478 5.036-9.277 4.2a.379.379 0 0 0-.374.091c-.323.308-.567 1.02.113 2.7l.325.766 2.587-1.1.519 1.224-2.587 1.1 2.514 5.924 9.379-3.979.4-6.067 1.234-.524-.272 6.013 1.491-.633.339-3.871 1.319-.56-.276 3.844 1.477-.627.106-1.911 1.15-.488-.091 1.9 6.918-2.935s.788-3.364-2.318-2.947c0 0-8.149 2.145-14.673-2.129" transform="translate(-1202.319 -1790.295)" style="fill:#840f20"/>
                <path data-name="Path 28060" d="M1084.164 499.871a14.014 14.014 0 0 0 5.387-9.834c-.565-.725-2.063-.447-2.943-.178a19.6 19.6 0 0 0-2.931 1.164 6.019 6.019 0 0 0-2.911 2.5c-.737 1.5-.319 3.309.33 4.85a3.326 3.326 0 0 0 .732 1.186 3.191 3.191 0 0 0 2.336.311" transform="translate(-1000.964 -453.588)" style="fill:#521213"/>
                <path data-name="Path 28061" d="M651.181 832.682c-.086 1.377-.134 2.769-.239 4.15A20.864 20.864 0 0 1 649.7 843c-1.957 4.93-6.777 8.323-11.912 9.65a36.158 36.158 0 0 1-12.631.679 63.7 63.7 0 0 1-11.63-2.4c-2.7-.812-5.35-3.052-5.176-5.862a8.44 8.44 0 0 1 .821-2.743l19.849-46.327a6.887 6.887 0 0 1 2.553-3.557c2.346-1.314 5.19.458 7.178 2.27 6.581 6 12.009 13.818 13.036 22.665.016.136.031.272.044.409.5 4.948-.345 9.931-.655 14.9" transform="translate(-563.63 -733.769)" style="fill:#ffa710"/>
                <path data-name="Rectangle 2540" transform="rotate(-66.819 76.193 -16.488)" style="fill:#f5785c" d="M0 0h11.521v10.084H0z"/>
                <path data-name="Path 28062" d="M839.752 443.236a2.252 2.252 0 0 0 2.516 2.752 9.308 9.308 0 0 0 18.245 3.634l1.137-4.754 2.192-9.167-5.062-1.21-10.729-2.566-2.315-.553-1.093 4.572-1.424 5.956a2.236 2.236 0 0 0-.751-.334.508.508 0 0 0-.064-.013l-.079-.015-.078-.012-.078-.01c-.039 0-.077-.007-.116-.008h-.212c-.061 0-.12.007-.179.015a2.217 2.217 0 0 0-.468.111.906.906 0 0 0-.1.04l-.087.038a2.187 2.187 0 0 0-.215.113.233.233 0 0 0-.024.015l-.028.017a2.24 2.24 0 0 0-.982 1.376" transform="translate(-777.97 -399.664)" style="fill:#ff8e69"/>
                <path data-name="Path 28063" d="M839.752 443.236a2.252 2.252 0 0 0 2.516 2.752 6.713 6.713 0 1 0 13.183 2.423l1.773-7.411 1.556-6.506-10.73-2.565-2.315-.553-1.093 4.572-1.424 5.956a2.236 2.236 0 0 0-.751-.334.508.508 0 0 0-.064-.013l-.079-.015-.078-.012-.078-.01c-.039 0-.077-.007-.116-.008h-.212c-.061 0-.12.007-.179.015a2.217 2.217 0 0 0-.468.111.906.906 0 0 0-.1.04l-.087.038a2.187 2.187 0 0 0-.215.113.233.233 0 0 0-.024.015l-.028.017a2.24 2.24 0 0 0-.982 1.376" transform="translate(-777.97 -399.664)" style="fill:#ff9e83"/>
                <path data-name="Path 28064" d="M966.719 695.379a1.7 1.7 0 0 1-1.389-1.951.958.958 0 0 1 1.155-.709l1.647.394a.958.958 0 0 1 .709 1.155 1.7 1.7 0 0 1-2.121 1.112" transform="translate(-894.339 -641.777)" style="fill:#642425"/>
                <path data-name="Path 28065" d="M1087.862 632.029a.789.789 0 1 1-.584-.951.789.789 0 0 1 .584.951" transform="translate(-1006.458 -584.671)" style="fill:#642425"/>
                <path data-name="Path 28066" d="M980.427 606.341a.789.789 0 1 1-.584-.951.789.789 0 0 1 .584.951" transform="translate(-906.92 -560.871)" style="fill:#642425"/>
                <path data-name="Path 28067" d="M953.245 573.578a.412.412 0 0 1 .249-.785l3.9 1.064a.412.412 0 1 1-.217.8l-3.9-1.064-.032-.01" transform="translate(-882.926 -530.677)" style="fill:#642425"/>
                <g data-name="Group 16561" style="opacity:.4">
                    <g data-name="Group 16560">
                        <g data-name="Group 16559" style="clip-path:url(#t62v8ocluj)" transform="translate(58.933 31.707)">
                            <path data-name="Path 28068" d="m854.821 468.915-14.2-37.543S806.744 446 801.768 479.218l45.222 6.425z" transform="translate(-801.768 -431.372)" style="fill:#fefefe"/>
                        </g>
                    </g>
                </g>
                <path data-name="Path 28069" d="m1086.75 603.848-.038-.015-2.754-1.285a.412.412 0 0 1 .349-.747l2.754 1.285a.412.412 0 0 1-.311.762" transform="translate(-1004.063 -557.53)" style="fill:#642425"/>
                <path data-name="Path 28070" d="m1278.954 1094.493-.06.076a10.492 10.492 0 0 1-6.758 3.5 22.734 22.734 0 0 1-3.8.048c-1.5-.1-2.955-.341-3.492-.832a3.447 3.447 0 0 1-.7-3.2l.578-1.771c.164-.5 1.548-2.129 2.077-2.16a7.821 7.821 0 0 0 3.255-1.183c.481-.263.96-.534 1.449-.767a9.789 9.789 0 0 1 1.337-.511 18.435 18.435 0 0 1 6.1-.831c1.019.111 1.5 1.325 1.57 2.347a7.5 7.5 0 0 1-1.557 5.288" transform="translate(-1171.103 -1006.933)" style="fill:#ff9e83"/>
                <path data-name="Path 28071" d="m1278.954 1121.57-.06.076a10.492 10.492 0 0 1-6.758 3.5 22.7 22.7 0 0 1-3.8.048c-1.5-.1-2.955-.341-3.492-.832a3.447 3.447 0 0 1-.7-3.2l.578-1.771c.164-.5 1.548-2.129 2.077-2.16a7.819 7.819 0 0 0 3.255-1.183 33.309 33.309 0 0 1 8.9 5.526" transform="translate(-1171.103 -1034.01)" style="fill:#f5785c"/>
                <path data-name="Path 28072" d="M1277.437 1121.559a5.07 5.07 0 0 1 5.629 4.543c.177 2.822-2.07 4.729-4.888 4.956z" transform="translate(-1183.54 -1039.109)" style="fill:#c2172a"/>
                <path data-name="Path 28073" d="M557.982 825.708a14.417 14.417 0 0 1-12.121 6.963 21.934 21.934 0 0 1-8.88-1.956L521.292 824l18.226-42.563a7.555 7.555 0 0 1 5.759-4.549 5.743 5.743 0 0 0 .157 1.629 5.561 5.561 0 0 0 3.214 3.825 5.491 5.491 0 0 0 2.658.424 5.723 5.723 0 0 0 3.841-2c7.371 5.614 9.127 13.352 6.793 22.246a5.586 5.586 0 0 1-.05.185 41.759 41.759 0 0 1-1.97 5.616c-.313.731.59 3.245.714 4.15a21.311 21.311 0 0 1 .208 4.706q-.06.7-.189 1.4a19.081 19.081 0 0 1-2.67 6.64" transform="translate(-482.975 -719.781)" style="fill:#fff"/>
                <path data-name="Path 28074" d="M776.277 859.151a9.551 9.551 0 0 1-9.093-7.642l-4.047-21.281 4.032-9.417a5.013 5.013 0 0 1 .846-.113 5.21 5.21 0 0 1 5.081 3.231l6.356 15.56q-.093 1.33-.311 2.662l-2.518 15.343q-.138.843-.347 1.656" transform="translate(-707.044 -760.368)" style="fill:#eaa837"/>
                <path data-name="Path 28075" d="m723.511 1377.168-12.9 6.607-1.152-2.892-11.319-28.393s-32.724-7.82-32.5-8.257 15.4-10.816 15.4-10.816c.853-.122 15.117 3.2 23.408 5.163a11.034 11.034 0 0 1 7.86 7.046l9.723 27.374z" transform="translate(-616.714 -1235.403)" style="fill:#521213"/>
                <path data-name="Path 28076" d="m602.016 1380.1-4.5 31.18-.9 6.218h-13.771l.129-3.86.558-16.58.4-11.745s-12.55-3.345-21.833-6.032c-5.232-1.516-9.426-2.821-9.752-3.2 0 0 5.474-3.534 11.047-6.833 5.48-3.245 11.055-6.262 11.613-5.466.535.764 6.965 2.573 13.553 4.258 2.179.557 4.376 1.1 6.383 1.589a9.4 9.4 0 0 1 7.078 10.473" transform="translate(-511.743 -1263.417)" style="fill:#642425"/>
                <path data-name="Path 28077" d="m705.835 1397.058.4-11.745s-12.55-3.345-21.833-6.032a26.9 26.9 0 0 1 1.3-10.035c5.48-3.245 11.055-6.262 11.613-5.466.535.764 6.965 2.573 13.553 4.258.409 9.726-1.636 19.831-5.023 29.02" transform="translate(-634.046 -1263.417)" style="fill:#521213"/>
                <path data-name="Path 28078" d="M530.66 812.563c-.063 1.008-.105 2.024-.165 3.037q-.032.558-.074 1.113a20.863 20.863 0 0 1-1.239 6.168c-1.957 4.93-6.777 8.323-11.912 9.65a36.156 36.156 0 0 1-12.631.679 63.7 63.7 0 0 1-11.63-2.4c-2.7-.812-5.35-3.052-5.176-5.862a8.441 8.441 0 0 1 .821-2.743l19.849-46.327a6.887 6.887 0 0 1 2.553-3.557c2.346-1.314 5.19.458 7.178 2.27 6.425 5.86 11.751 13.448 12.955 22.038q.044.313.081.627c.016.137.031.272.044.409.5 4.948-.345 9.931-.655 14.9" transform="translate(-451.968 -715.129)" style="fill:#ffbc5a"/>
                <path data-name="Path 28079" d="M781.212 857.8c-.063 1.008-.105 2.024-.165 3.037a56.622 56.622 0 0 1-9.72-1.41c-4.668-1.217-8.667-3.48-8.667-7.919l-4.047-21.281-.228-1.2a6.346 6.346 0 0 1 .163-3.147 8.9 8.9 0 0 1 3.2-4.779l.041-.018a5.257 5.257 0 0 1 .86-.269 5.074 5.074 0 0 1 .846-.113 5.21 5.21 0 0 1 5.081 3.231l3.379 8.271c1.627 3.983 1.824 8.255 6.758 9.376a13.019 13.019 0 0 0 3.033.29q.044.313.081.627c.016.137.031.272.044.409.5 4.948-.345 9.931-.655 14.9" transform="translate(-702.52 -760.366)" style="fill:#eaa837"/>
                <path data-name="Path 28080" d="M785.305 849.753a10.02 10.02 0 0 1-10.478-7.376l-5.377-19.917a5.2 5.2 0 0 1 10.009-2.859l4.779 16.733a4.075 4.075 0 0 0 4.174 2.948l16.825-1.058a4.946 4.946 0 0 1 .708 9.866z" transform="translate(-712.706 -755.859)" style="fill:#ffbc5a"/>
                <path data-name="Path 28081" d="M851.854 585.885a1.188 1.188 0 0 1 .2.559 1.336 1.336 0 0 1-.147 1.086 1.178 1.178 0 0 1-1.144.264c-.4-.078-.844-.308-.891-.713.014.119.568-.2.611-.243.255-.266.1-.513.227-.795a.658.658 0 0 1 1.14-.158" transform="translate(-787.407 -542.575)" style="fill:#f5785c"/>
                <path data-name="Path 28082" d="m645.581 1312.5 7.984.742s-4.209 15.871-14.279 10.638z" transform="translate(-592.296 -1216.029)" style="fill:#ff6a0d"/>
                <path data-name="Path 28083" d="m651.006 1277.7 8.594 2.952s-3.853 14.44-12.923 9.718z" transform="translate(-599.144 -1183.783)" style="fill:#ffa710"/>
                <path data-name="Path 28084" d="m904.654 442.92-.191 7.183 2.733-3.321a2.823 2.823 0 0 1 3.277-.811 31.184 31.184 0 0 0 6.763 2c2.675.468 4.4.4 4.522.517.226.209-.15 3.579-.1 3.356l2.192-9.168-5.062-1.21-10.73-2.565z" transform="translate(-837.981 -406.64)" style="fill:#f5785c"/>
                <path data-name="Path 28085" d="M868.423 319.547a11.167 11.167 0 0 1-2.967 7.379 7.945 7.945 0 0 1-1.462 1.214c-2.317 1.479-5.822.8-8.316.24-.569-.128-5.366-1.424-7.479-1.865-.337-.07-.6-.118-.776-.137-.126-.014-.2-.012-.215.01v.005a38.661 38.661 0 0 1-2.45 3.978c-1.016 1.239-.521 1.391-1.954.709a6.819 6.819 0 0 1-2.136-2.152 21.047 21.047 0 0 1-.5-.738 6.237 6.237 0 0 1-.905-5.372l.025-.067a3.814 3.814 0 0 1 4.429-2.434 8.484 8.484 0 0 1 3.488-4.53 8.369 8.369 0 0 1 4.756-1.4c1.571.039 3.388.738 3.872 2.376a7.843 7.843 0 0 1 .257-2c.526-1.909 1.909-3.157 4.556-3.087 3.884.1 7.772 3.967 7.777 7.88" transform="translate(-777.313 -288.756)" style="fill:#642425"/>
                <path data-name="Path 28086" d="m982 2011.626-.9 6.218h-13.775l.129-3.86a128.715 128.715 0 0 0 14.546-2.358" transform="translate(-896.223 -1863.764)" style="fill:#521213"/>
                <path data-name="Path 28087" d="m1275.812 1876.141-12.9 6.607-1.152-2.892q6.126-4.191 12.573-7.883z" transform="translate(-1169.015 -1734.377)" style="fill:#3f0d0f"/>
                <path data-name="Path 28088" d="M868.084 502.652a38.661 38.661 0 0 1-2.45 3.978c-1.016 1.239-.521 1.391-1.954.709a6.817 6.817 0 0 1-2.136-2.152c-.509-5.362 6.54-2.534 6.54-2.534" transform="translate(-798.193 -465.014)" style="fill:#521213"/>
                <path data-name="Path 28089" d="M960.368 353.058s-2.653-4.646-9.521-3.048a8.369 8.369 0 0 1 4.756-1.4c1.571.039 3.387.738 3.873 2.376a7.845 7.845 0 0 1 .257-2z" transform="translate(-880.956 -322.979)" style="fill:#521213"/>
                <path data-name="Path 28090" d="M847.545 427.658v2.661s-2.3-2.664-4.429-.227a3.814 3.814 0 0 1 4.429-2.434" transform="translate(-781.144 -396.097)" style="fill:#521213"/>
                <path data-name="Path 28091" d="M1138.967 325.239c3.4-11.239-5.255-13.537-5.255-13.537 3.884.1 7.772 3.967 7.777 7.88a11.167 11.167 0 0 1-2.967 7.379c.1-.5.25-1.077.445-1.721" transform="translate(-1050.38 -288.791)" style="fill:#521213"/>
            </g>
        </g>
    </g>
</svg>
