<svg width="100" height="100" viewBox="0 0 100 100" fill="none" xmlns="http://www.w3.org/2000/svg">
<path d="M50.7749 60.6338C48.2041 60.6338 46.7041 63.0796 46.7041 66.3546C46.7041 69.6505 48.2499 71.9796 50.7999 71.9796C53.3708 71.9796 54.8458 69.5296 54.8458 66.2546C54.8458 63.2296 53.3958 60.6338 50.7749 60.6338V60.6338Z" fill="#FF9A62"/>
<path d="M58.3334 8.33301H25.0001C22.7899 8.33301 20.6703 9.21098 19.1075 10.7738C17.5447 12.3366 16.6667 14.4562 16.6667 16.6663V83.333C16.6667 85.5432 17.5447 87.6628 19.1075 89.2256C20.6703 90.7884 22.7899 91.6663 25.0001 91.6663H75.0001C77.2102 91.6663 79.3298 90.7884 80.8926 89.2256C82.4554 87.6628 83.3334 85.5432 83.3334 83.333V33.333L58.3334 8.33301ZM38.1459 72.7247C36.3709 74.1997 33.6751 74.8955 30.3792 74.8955C28.4001 74.8955 27.0042 74.7705 26.0542 74.6455V58.0997C27.7583 57.8543 29.4785 57.7387 31.2001 57.7538C34.4001 57.7538 36.4751 58.3288 38.0959 59.5538C39.8459 60.8538 40.9459 62.9288 40.9459 65.8955C40.9459 69.1247 39.7709 71.3497 38.1459 72.7247V72.7247ZM50.6042 74.9997C45.6042 74.9997 42.6834 71.2247 42.6834 66.4247C42.6834 61.3788 45.9042 57.608 50.8792 57.608C56.0501 57.608 58.8751 61.4788 58.8751 66.1288C58.8709 71.6497 55.5209 74.9997 50.6042 74.9997V74.9997ZM70.0001 71.8247C71.1459 71.8247 72.4209 71.5705 73.1751 71.2747L73.7501 74.2455C73.0501 74.5955 71.4751 74.9705 69.4292 74.9705C63.6084 74.9705 60.6084 71.3497 60.6084 66.5497C60.6084 60.8038 64.7042 57.608 69.8042 57.608C71.7792 57.608 73.2751 58.008 73.9501 58.358L73.1751 61.383C72.1606 60.9638 71.0727 60.7513 69.9751 60.758C66.9501 60.758 64.6001 62.583 64.6001 66.333C64.6001 69.7038 66.6001 71.8247 70.0001 71.8247V71.8247ZM58.3334 37.4997H54.1667V16.6663L75.0001 37.4997H58.3334Z" fill="#FF9A62"/>
<path d="M31.6 60.6787C30.7542 60.6787 30.2042 60.7537 29.8792 60.8287V71.8495C30.2042 71.9245 30.7292 71.9245 31.2 71.9245C34.65 71.9495 36.8958 70.0537 36.8958 66.0287C36.9208 62.5287 34.875 60.6787 31.6 60.6787V60.6787Z" fill="#FF9A62"/>
</svg>
