<svg xmlns="http://www.w3.org/2000/svg" width="32" height="32" viewBox="0 0 32 32">
    <g id="Edit_item" transform="translate(-16 -560)">
        <circle id="Ellipse_9923" cx="16" cy="16" r="16" transform="translate(16 560)"
            fill="#3B3E4F" opacity="0.2" />
        <g id="Edit_Square" transform="translate(25 569)">
            <g id="Edit_Square-2" transform="translate(0)">
                <path id="Edit_Square-3"
                    d="M10.5,14c-.077,0-.155,0-.232-.007H3.735C3.657,14,3.579,14,3.5,14a3.725,3.725,0,0,1-2.522-.979,3.759,3.759,0,0,1-.972-2.755V3.735A3.76,3.76,0,0,1,.979.979,3.73,3.73,0,0,1,3.5,0c.077,0,.155,0,.231.007h6.531C10.342,0,10.419,0,10.5,0a3.722,3.722,0,0,1,2.518.979,3.791,3.791,0,0,1,.979,2.756v6.531a3.779,3.779,0,0,1-.972,2.755A3.726,3.726,0,0,1,10.5,14ZM7.266,4.525a.15.15,0,0,0-.105.042L3.825,7.9a1.258,1.258,0,0,0-.37.867l-.042,1.657a.327.327,0,0,0,.091.238.334.334,0,0,0,.238.1H5.385a1.288,1.288,0,0,0,.9-.371l4.706-4.72a1.11,1.11,0,0,0,0-1.559L10.084,3.2a1.106,1.106,0,0,0-1.566,0l-.469.476a.185.185,0,0,0,0,.258c.011.011,1.112,1.105,1.133,1.133a.475.475,0,0,1,.126.321.462.462,0,0,1-.461.462.438.438,0,0,1-.308-.126L7.37,4.566A.148.148,0,0,0,7.266,4.525Z"
                    fill="#3B3E4F" />
            </g>
        </g>
    </g>
</svg>
