<svg id="Email" xmlns="http://www.w3.org/2000/svg" width="18.97" height="17.073" viewBox="0 0 18.97 17.073">
  <path id="Message" d="M14.17,17.073H4.8A4.8,4.8,0,0,1,0,12.283V4.79A4.8,4.8,0,0,1,4.8,0H14.17a4.829,4.829,0,0,1,3.4,1.405,4.754,4.754,0,0,1,1.4,3.385v7.493A4.8,4.8,0,0,1,14.17,17.073ZM3.827,4.975a.7.7,0,0,0-.507.213.725.725,0,0,0-.067.948l.125.123L7.692,9.628a2.968,2.968,0,0,0,1.85.645A3.016,3.016,0,0,0,11.4,9.628L15.679,6.2l.076-.076a.734.734,0,0,0-.011-.948.788.788,0,0,0-.5-.247H15.2a.721.721,0,0,0-.493.191L10.433,8.537a1.484,1.484,0,0,1-.945.342,1.51,1.51,0,0,1-.952-.342L4.268,5.122A.738.738,0,0,0,3.827,4.975Z" transform="translate(0)"/>
</svg>
