<svg xmlns="http://www.w3.org/2000/svg" width="43.752" height="31.821" viewBox="0 0 43.752 31.821">
  <path id="Family" d="M9.125,26.411c0-4.33,5.788-5.45,12.651-5.45,6.823,0,12.649,1.081,12.649,5.411s-5.788,5.448-12.649,5.448C14.951,31.821,9.125,30.738,9.125,26.411Zm28.833.8c.585-5.5-4.074-8.114-5.28-8.715a.089.089,0,0,1-.057-.093.075.075,0,0,1,.064-.052,30.8,30.8,0,0,1,6.451.566c2.194.431,3.639,1.312,4.238,2.592a3.833,3.833,0,0,1,0,3.322c-.916,1.985-3.866,2.624-5.013,2.789a.356.356,0,0,1-.053,0A.363.363,0,0,1,37.958,27.213Zm-32.565.408c-1.146-.165-4.1-.8-5.012-2.789a3.805,3.805,0,0,1,0-3.32c.6-1.282,2.04-2.162,4.237-2.6a31.111,31.111,0,0,1,6.451-.562.073.073,0,0,1,.063.05.092.092,0,0,1-.055.095c-1.208.6-5.867,3.209-5.282,8.711a.362.362,0,0,1-.349.414A.366.366,0,0,1,5.393,27.621ZM13.4,8.418a8.371,8.371,0,1,1,16.742,0,8.371,8.371,0,1,1-16.742,0ZM32.939,15.6a6.752,6.752,0,0,1-.961-.093.316.316,0,0,1-.211-.487A11.617,11.617,0,0,0,31.6,1.867a.212.212,0,0,1-.032-.22.259.259,0,0,1,.165-.1A6.975,6.975,0,0,1,33.139,1.4a7.111,7.111,0,0,1,6.81,8.978A6.98,6.98,0,0,1,33.131,15.6ZM3.8,10.381A7.111,7.111,0,0,1,10.612,1.4a7.019,7.019,0,0,1,1.41.145.267.267,0,0,1,.163.1.208.208,0,0,1-.032.218,11.615,11.615,0,0,0-.166,13.15.317.317,0,0,1-.213.487,6.525,6.525,0,0,1-.961.093l-.192,0A6.984,6.984,0,0,1,3.8,10.381Z" fill="#2bafb7"/>
</svg>
