<svg xmlns="http://www.w3.org/2000/svg" width="51" height="48" viewBox="0 0 51 48">
  <g id="Facebook_Sign_Up" data-name="Facebook Sign Up" transform="translate(-0.25)">
    <rect id="Rectangle_1328" data-name="Rectangle 1328" width="51" height="48" rx="5" transform="translate(0.25)" fill="rgba(226,232,240,0.5)"/>
    <g id="Facebook" transform="translate(15.039 13.932)">
      <g id="g1595" transform="translate(0 0)">
        <g id="g1947" transform="translate(0 0)">
          <rect id="rect1589" width="20.923" height="20.113" rx="10.056" fill="#2c5aa0"/>
          <path id="path1591" d="M-1609.183-.153l.007,2.621-2.076-.007s-.808.2-.833.723-.038,2.346-.038,2.346l2.905-.014-.4,2.917-2.522.02.016,7.161a10.342,10.342,0,0,1-1.586.095,7.923,7.923,0,0,1-1.451-.107l-.006-7.166h-2.531V5.54l2.532,0-.02-2.661c.445-2.618,2.092-3.024,6.009-3.03Z" transform="translate(1624.078 4.427)" fill="#fff"/>
        </g>
      </g>
    </g>
  </g>
</svg>
