<svg id="Component_579" data-name="Component 579" xmlns="http://www.w3.org/2000/svg" xmlns:xlink="http://www.w3.org/1999/xlink" width="25" height="25" viewBox="0 0 25 25">
  <defs>
    <clipPath id="clip-path">
      <rect id="Rectangle_174" data-name="Rectangle 174" width="25" height="25" transform="translate(13161 -13759)" fill="#fff"/>
    </clipPath>
  </defs>
  <g id="Mask_Group_327" data-name="Mask Group 327" transform="translate(-13161 13759)" clip-path="url(#clip-path)">
    <g id="sliders" transform="translate(13165 -13754)">
      <path id="Shape" d="M-.265,5.611A.735.735,0,0,1-1,4.877V-.265A.735.735,0,0,1-.265-1a.735.735,0,0,1,.735.735V4.877A.735.735,0,0,1-.265,5.611Z" transform="translate(3.204 8.972)" stroke="#000" stroke-linecap="round" stroke-width="0.8"/>
      <path id="Shape-2" data-name="Shape" d="M-.265,5.611A.735.735,0,0,1-1,4.877V-.265A.735.735,0,0,1-.265-1a.735.735,0,0,1,.735.735V4.877A.735.735,0,0,1-.265,5.611Z" transform="translate(3.204 1)" stroke="#000" stroke-linecap="round" stroke-width="0.8"/>
      <path id="Shape-3" data-name="Shape" d="M-.265,7.081A.735.735,0,0,1-1,6.346V-.265A.735.735,0,0,1-.265-1a.735.735,0,0,1,.735.735V6.346A.735.735,0,0,1-.265,7.081Z" transform="translate(9.015 7.503)" stroke="#000" stroke-linecap="round" stroke-width="0.8"/>
      <path id="Shape-4" data-name="Shape" d="M-.265,4.142A.735.735,0,0,1-1,3.408V-.265A.735.735,0,0,1-.265-1a.735.735,0,0,1,.735.735V3.408A.735.735,0,0,1-.265,4.142Z" transform="translate(9.015 1)" stroke="#000" stroke-linecap="round" stroke-width="0.8"/>
      <path id="Shape-5" data-name="Shape" d="M-.265,4.142A.735.735,0,0,1-1,3.408V-.265A.735.735,0,0,1-.265-1a.735.735,0,0,1,.735.735V3.408A.735.735,0,0,1-.265,4.142Z" transform="translate(14.827 10.441)" stroke="#000" stroke-linecap="round" stroke-width="0.8"/>
      <path id="Shape-6" data-name="Shape" d="M-.265,7.081A.735.735,0,0,1-1,6.346V-.265A.735.735,0,0,1-.265-1a.735.735,0,0,1,.735.735V6.346A.735.735,0,0,1-.265,7.081Z" transform="translate(14.827 1)" stroke="#000" stroke-linecap="round" stroke-width="0.8"/>
      <path id="Shape-7" data-name="Shape" d="M4.142.469H-.265A.735.735,0,0,1-1-.265.735.735,0,0,1-.265-1H4.142a.735.735,0,0,1,.735.735A.735.735,0,0,1,4.142.469Z" transform="translate(1 9.014)" stroke="#000" stroke-linecap="round" stroke-width="0.8"/>
      <path id="Shape-8" data-name="Shape" d="M4.142.469H-.265A.735.735,0,0,1-1-.265.735.735,0,0,1-.265-1H4.142a.735.735,0,0,1,.735.735A.735.735,0,0,1,4.142.469Z" transform="translate(6.812 4.643)" stroke="#000" stroke-linecap="round" stroke-width="0.8"/>
      <path id="Shape-9" data-name="Shape" d="M4.142.469H-.265A.735.735,0,0,1-1-.265.735.735,0,0,1-.265-1H4.142a.735.735,0,0,1,.735.735A.735.735,0,0,1,4.142.469Z" transform="translate(12.623 10.471)" stroke="#000" stroke-linecap="round" stroke-width="0.8"/>
    </g>
  </g>
</svg>
