<svg xmlns="http://www.w3.org/2000/svg" xmlns:xlink="http://www.w3.org/1999/xlink" width="18.617" height="19" viewBox="0 0 18.617 19">
  <defs>
    <clipPath id="clip-path">
      <rect id="Rectangle_7942" data-name="Rectangle 7942" width="18.617" height="19" fill="none"/>
    </clipPath>
  </defs>
  <g id="Group_19586" data-name="Group 19586" clip-path="url(#clip-path)">
    <path id="Path_30189" data-name="Path 30189" d="M20.064,5.24a8.231,8.231,0,0,1,1.577-2.269A9.478,9.478,0,0,1,34.714,2.3c.142.123.178.194.023.346-.8.779-1.579,1.571-2.367,2.359-.081.081-.135.179-.279.048a5.456,5.456,0,0,0-7.334.164,6.059,6.059,0,0,0-1.576,2.405c-.049-.032-.1-.061-.147-.1L20.064,5.24" transform="translate(-19.04 0)" fill="#d7282a" fill-rule="evenodd"/>
    <path id="Path_30190" data-name="Path 30190" d="M23.013,222.194a6.364,6.364,0,0,0,1.164,1.986,5.591,5.591,0,0,0,4.977,1.906A6.023,6.023,0,0,0,31.7,225.2c.075.067.147.139.226.2q1.378,1.076,2.758,2.149a7.9,7.9,0,0,1-3.558,1.944,9.567,9.567,0,0,1-8.7-1.756,8.821,8.821,0,0,1-2.515-3.135l3.1-2.409" transform="translate(-18.895 -210.855)" fill="#45ac43" fill-rule="evenodd"/>
    <path id="Path_30191" data-name="Path 30191" d="M192.021,159.977q-1.379-1.074-2.758-2.149c-.079-.062-.151-.134-.226-.2a4.825,4.825,0,0,0,1.483-1.751,6.088,6.088,0,0,0,.322-.884c.062-.208.043-.288-.214-.286-1.53.013-3.061.006-4.591.006-.324,0-.324,0-.324-.335,0-1.037,0-2.075,0-3.112,0-.2.033-.277.258-.276q4.234.012,8.468,0c.152,0,.248.011.275.2a10.417,10.417,0,0,1-1.222,7.006,6.994,6.994,0,0,1-1.466,1.783" transform="translate(-176.231 -143.284)" fill="#5d7fbe" fill-rule="evenodd"/>
    <path id="Path_30192" data-name="Path 30192" d="M4.118,108.791l-3.1,2.409a8.593,8.593,0,0,1-.932-3,9.387,9.387,0,0,1,.8-5.241c.042-.092.1-.178.145-.267l2.97,2.287c.046.036.1.064.147.1a6,6,0,0,0-.023,3.714" transform="translate(0 -97.453)" fill="#f4c300" fill-rule="evenodd"/>
  </g>
</svg>
