<svg xmlns="http://www.w3.org/2000/svg" xmlns:xlink="http://www.w3.org/1999/xlink" width="33.272" height="33.272" viewBox="0 0 33.272 33.272">
  <defs>
    <clipPath id="clip-path">
      <rect id="Rectangle_2477" data-name="Rectangle 2477" width="33.272" height="33.272" fill="#3b3e4f"/>
    </clipPath>
  </defs>
  <g id="Group_16403" data-name="Group 16403" clip-path="url(#clip-path)">
    <path id="Path_27891" data-name="Path 27891" d="M30.208,0H11.82A3.064,3.064,0,0,0,8.756,3.064V8.756H3.064A3.064,3.064,0,0,0,0,11.82V30.208a3.064,3.064,0,0,0,3.064,3.064H21.452a3.064,3.064,0,0,0,3.064-3.064V24.516h5.691a3.064,3.064,0,0,0,3.064-3.064V3.064A3.064,3.064,0,0,0,30.208,0M21.889,30.208a.438.438,0,0,1-.438.438H3.065a.438.438,0,0,1-.438-.438V11.82a.438.438,0,0,1,.438-.438H8.756V21.452a3.064,3.064,0,0,0,3.064,3.064H21.89Zm8.756-8.756a.438.438,0,0,1-.438.438H11.82a.438.438,0,0,1-.438-.438V3.065a.438.438,0,0,1,.438-.438H30.208a.438.438,0,0,1,.438.438Z" fill="#3b3e4f"/>
    <path id="Path_27892" data-name="Path 27892" d="M22.417,130.181v20.062l20.644.582.582-7.705-12.066-.073-.727-7.136-.654-6.384s-6.905-.582-7.778.654" transform="translate(-20.665 -119.275)" fill="#3b3e4f"/>
  </g>
</svg>
