<svg xmlns="http://www.w3.org/2000/svg" width="30.317" height="28.633" viewBox="0 0 30.317 28.633">
  <g id="Group_16532" data-name="Group 16532" transform="translate(-3020.98 -19280.562)">
    <path id="Path_27996" data-name="Path 27996" d="M193.455,131.25h28.414a1.022,1.022,0,0,1,.952.952v3.992a.951.951,0,0,1-.952.952H193.455a1.022,1.022,0,0,1-.952-.952V132.2A.951.951,0,0,1,193.455,131.25Z" transform="translate(2828.476 19149.313)" fill="#3b3e4f"/>
    <path id="Path_27997" data-name="Path 27997" d="M210,210v19.461a1.592,1.592,0,0,0,1.592,1.592h23.764a1.592,1.592,0,0,0,1.592-1.592V210h-9.263v13.474a.843.843,0,0,1-.522.775.707.707,0,0,1-.32.067.841.841,0,0,1-.6-.244l-2.771-2.779-2.771,2.779a.847.847,0,0,1-1.44-.6V210Z" transform="translate(2812.664 19078.143)" fill="#3b3e4f"/>
    <path id="Path_27998" data-name="Path 27998" d="M326.873,219.512l1.929,1.937V210.005h-5.053v11.444l1.929-1.937a.841.841,0,0,1,1.2,0Z" transform="translate(2709.862 19078.137)" fill="#3b3e4f"/>
  </g>
</svg>
