<svg xmlns="http://www.w3.org/2000/svg" width="20.455" height="22.809" viewBox="0 0 20.455 22.809">
    <defs>
        <clipPath id="clip-path">
            <rect width="9" height="9" fill="#fff" stroke="#707070" stroke-width="1" />
        </clipPath>
    </defs>
    <path
        d="M9.716,22.67A17.579,17.579,0,0,1,3.991,17.9C1.22,14.291-.129,9.637.01,4.027A1,1,0,0,1,.9,3.119a21.233,21.233,0,0,0,4.259-.978,29.182,29.182,0,0,0,4.585-2,.924.924,0,0,1,.976,0,39.461,39.461,0,0,0,4.609,2.049,20.439,20.439,0,0,0,4.259.978.933.933,0,0,1,.862.907c.139,5.608-1.21,10.264-3.981,13.848a18.249,18.249,0,0,1-5.7,4.771,1.738,1.738,0,0,1-.534.116A.817.817,0,0,1,9.716,22.67Z"
        fill="#b72b51" />
    <g transform="translate(5.455 7.203)">
        <g clip-path="url(#clip-path)">
            <g transform="translate(1.934 1.934)">
                <path
                    d="M-.613,4.414A.385.385,0,0,1-.887,4.3a.387.387,0,0,1,0-.547l4.64-4.64a.387.387,0,0,1,.547,0,.387.387,0,0,1,0,.547L-.34,4.3A.385.385,0,0,1-.613,4.414Z"
                    transform="translate(1 1)" fill="#fff" />
                <path
                    d="M4.027,4.414A.386.386,0,0,1,3.754,4.3L-.887-.34a.387.387,0,0,1,0-.547.387.387,0,0,1,.547,0L4.3,3.754a.387.387,0,0,1-.273.66Z"
                    transform="translate(1 1)" fill="#fff" />
            </g>
        </g>
    </g>
</svg>
