<svg xmlns="http://www.w3.org/2000/svg" width="20.455" height="22.809" viewBox="0 0 20.455 22.809">
    <path
        d="M9.716,22.67A17.579,17.579,0,0,1,3.991,17.9C1.22,14.291-.129,9.637.01,4.027A1,1,0,0,1,.9,3.119a21.233,21.233,0,0,0,4.259-.978,29.182,29.182,0,0,0,4.585-2,.924.924,0,0,1,.976,0,39.461,39.461,0,0,0,4.609,2.049,20.439,20.439,0,0,0,4.259.978.933.933,0,0,1,.862.907c.139,5.608-1.21,10.264-3.981,13.848a18.249,18.249,0,0,1-5.7,4.771,1.738,1.738,0,0,1-.534.116A.817.817,0,0,1,9.716,22.67Z"
        transform="translate(0)" fill="#fec735" />
    <text transform="translate(7 16)" fill="#b58300" font-size="14"
        font-family="Poppins-Regular, Poppins" letter-spacing="-0.016em">
        <tspan x="0" y="0">?</tspan>
    </text>
</svg>
