<svg id="policy" xmlns="http://www.w3.org/2000/svg" width="18.017" height="20.018"
    viewBox="0 0 18.017 20.018">
    <path
        d="M68.1,40.019H59.715c-3.057,0-4.81-1.764-4.81-4.84V24.849A4.914,4.914,0,0,1,56.17,21.29a4.86,4.86,0,0,1,3.545-1.271H68.1c3.055,0,4.808,1.761,4.808,4.83v10.33a4.895,4.895,0,0,1-1.245,3.583A4.823,4.823,0,0,1,68.1,40.019M59.9,33.755a.79.79,0,0,0-.015,1.58.826.826,0,0,0,.1-.006h7.836a.79.79,0,0,0,0-1.57h-7.84a.745.745,0,0,0-.081,0m.081-4.557a.781.781,0,1,0,0,1.561h7.84a.781.781,0,0,0,0-1.561Zm0-4.529v.01a.78.78,0,1,0,0,1.559h2.989a.785.785,0,0,0,0-1.57Z"
        transform="translate(-54.898 -20.012)" fill="#2bafb7" />
</svg>
