<svg id="Delete" xmlns="http://www.w3.org/2000/svg" width="32" height="32" viewBox="0 0 32 32">
  <circle id="Ellipse_9923" cx="16" cy="16" r="16" fill="#EB605A" opacity="0.2" />
  <g id="Iconly_Bold_Delete" transform="translate(9 8)">
    <g id="Delete-2">
      <path id="Delete-3" d="M3.992,15.969a2.3,2.3,0,0,1-2.28-2.262c-.244-2.277-.651-7.661-.658-7.716A.642.642,0,0,1,1.2,5.545a.543.543,0,0,1,.408-.187H12.4a.558.558,0,0,1,.408.187.608.608,0,0,1,.14.446c0,.055-.415,5.447-.652,7.716a2.3,2.3,0,0,1-2.33,2.262C8.956,15.992,7.972,16,7,16,5.974,16,4.968,15.992,3.992,15.969ZM.555,4.073A.576.576,0,0,1,0,3.486v-.3a.571.571,0,0,1,.555-.587H2.823a1,1,0,0,0,.965-.813l.119-.545A1.556,1.556,0,0,1,5.394,0H8.606a1.553,1.553,0,0,1,1.48,1.2l.127.584a1,1,0,0,0,.966.813h2.267A.571.571,0,0,1,14,3.182v.3a.576.576,0,0,1-.555.587Z" fill="#EB605A" />
    </g>
  </g>
</svg>
