<svg width="100" height="100" viewBox="0 0 100 100" fill="none" xmlns="http://www.w3.org/2000/svg">
<path d="M94.0023 44.8184L57.1136 22.7481C56.201 22.1928 55.156 21.8928 54.0879 21.8794C53.0197 21.866 51.9675 22.1397 51.0413 22.6719C50.0363 23.2571 49.2041 24.0979 48.6292 25.1088C48.0542 26.1197 47.7571 27.2648 47.7679 28.4277V43.8672L12.471 22.7422C11.5584 22.1869 10.5135 21.8869 9.44529 21.8735C8.37713 21.8601 7.32497 22.1338 6.39874 22.666C5.39374 23.2513 4.56152 24.092 3.98659 25.103C3.41166 26.1139 3.11451 27.259 3.1253 28.4219V71.5859C3.11416 72.7492 3.41115 73.8947 3.9861 74.906C4.56104 75.9173 5.39345 76.7584 6.39874 77.3438C7.32497 77.876 8.37713 78.1497 9.44529 78.1363C10.5135 78.1229 11.5584 77.8229 12.471 77.2676L47.7679 56.1328V71.5781C47.7554 72.7427 48.0517 73.8898 48.6267 74.9026C49.2017 75.9154 50.0349 76.7577 51.0413 77.3438C51.9675 77.876 53.0197 78.1497 54.0879 78.1363C55.156 78.1229 56.201 77.8229 57.1136 77.2676L94.0023 55.1973C94.8792 54.6479 95.6022 53.8848 96.1034 52.9795C96.6045 52.0741 96.8675 51.0563 96.8675 50.0215C96.8675 48.9867 96.6045 47.9689 96.1034 47.0635C95.6022 46.1582 94.8792 45.3951 94.0023 44.8457V44.8184Z" fill="white"/>
</svg>
