<svg data-name="Delete Attribute" xmlns="http://www.w3.org/2000/svg" width="32" height="32" viewBox="0 0 32 32">
    <circle data-name="Ellipse 9923" cx="16" cy="16" r="16" style="opacity:.2;fill:#3b3e4f"/>
    <path data-name="Setting" d="M7.514 15H6.489a1.536 1.536 0 0 1-1.566-1.538A1.415 1.415 0 0 0 3.537 12.1a1.149 1.149 0 0 0-.663.173 1.574 1.574 0 0 1-.8.225 1.559 1.559 0 0 1-1.341-.78l-.519-.9A1.526 1.526 0 0 1 .2 9.277a1.567 1.567 0 0 1 .6-.592 1.229 1.229 0 0 0 .475-.48 1.357 1.357 0 0 0 .14-1.024 1.375 1.375 0 0 0-.627-.851 1.521 1.521 0 0 1-.718-.937 1.559 1.559 0 0 1 .16-1.186l.5-.885a1.574 1.574 0 0 1 1.347-.781 1.556 1.556 0 0 1 .777.211 1.377 1.377 0 0 0 .661.168 1.438 1.438 0 0 0 1.229-.686 1.17 1.17 0 0 0 .174-.66A1.359 1.359 0 0 1 5.134.78 1.618 1.618 0 0 1 6.467 0h1.061A1.582 1.582 0 0 1 8.87.78a1.354 1.354 0 0 1 .2.794 1.174 1.174 0 0 0 .173.66 1.442 1.442 0 0 0 1.232.686 1.4 1.4 0 0 0 .666-.168 1.536 1.536 0 0 1 .774-.211 1.559 1.559 0 0 1 1.343.781l.5.885a1.545 1.545 0 0 1 .167 1.184 1.515 1.515 0 0 1-.724.939 1.37 1.37 0 0 0-.629.854 1.348 1.348 0 0 0 .147 1.022 1.169 1.169 0 0 0 .467.48 1.714 1.714 0 0 1 .61.592 1.547 1.547 0 0 1-.015 1.538l-.527.9a1.573 1.573 0 0 1-1.333.78 1.555 1.555 0 0 1-.8-.225 1.179 1.179 0 0 0-.663-.173 1.411 1.411 0 0 0-1.394 1.365A1.532 1.532 0 0 1 7.514 15zm-.5-9.615A2.133 2.133 0 0 0 4.87 7.507a2.09 2.09 0 0 0 .626 1.5 2.14 2.14 0 0 0 1.513.616 2.094 2.094 0 0 0 2.117-2.116 2.107 2.107 0 0 0-2.117-2.122z" transform="translate(9 9)" style="fill:#3b3e4f"/>
</svg>
