<svg width="100" height="100" viewBox="0 0 100 100" fill="none" xmlns="http://www.w3.org/2000/svg">
<path d="M5.99803 44.8184L42.8867 22.7481C43.7993 22.1928 44.8443 21.8928 45.9124 21.8794C46.9806 21.866 48.0327 22.1397 48.959 22.6719C49.964 23.2571 50.7962 24.0979 51.3711 25.1088C51.946 26.1197 52.2432 27.2648 52.2324 28.4277V43.8672L87.5293 22.7422C88.4419 22.1869 89.4868 21.8869 90.555 21.8735C91.6232 21.8601 92.6753 22.1338 93.6015 22.666C94.6065 23.2513 95.4388 24.092 96.0137 25.103C96.5886 26.1139 96.8858 27.259 96.875 28.4219V71.5859C96.8863 72.7492 96.5894 73.8948 96.0145 74.9061C95.4395 75.9175 94.607 76.7585 93.6015 77.3438C92.6753 77.876 91.6232 78.1497 90.555 78.1363C89.4868 78.1229 88.4419 77.8229 87.5293 77.2676L52.2324 56.1328V71.5781C52.2451 72.7428 51.9489 73.8899 51.3739 74.9028C50.7988 75.9156 49.9656 76.7579 48.959 77.3438C48.0327 77.876 46.9806 78.1497 45.9124 78.1363C44.8443 78.1229 43.7993 77.8229 42.8867 77.2676L5.99803 55.1973C5.12108 54.6479 4.39809 53.8848 3.89692 52.9795C3.39574 52.0741 3.13281 51.0563 3.13281 50.0215C3.13281 48.9867 3.39574 47.9689 3.89692 47.0635C4.39809 46.1582 5.12108 45.3951 5.99803 44.8457V44.8184Z" fill="white"/>
</svg>
