<svg data-name="Delete Attribute" xmlns="http://www.w3.org/2000/svg" width="32" height="32" viewBox="0 0 32 32">
    <circle data-name="Ellipse 9923" cx="16" cy="16" r="16" style="opacity:.2;fill:#3b3e4f"/>
    <path data-name="Notification" d="M6.27 15.681a2.843 2.843 0 0 1-1.346-.575 1.218 1.218 0 0 1-.546-.921c0-.4.363-.577.7-.655a20.384 20.384 0 0 1 3.178 0c.336.078.7.259.7.655a1.22 1.22 0 0 1-.546.922 2.855 2.855 0 0 1-1.345.575 3.138 3.138 0 0 1-.4.026 2.88 2.88 0 0 1-.395-.027zm-3.314-3.313a3.562 3.562 0 0 1-2.277-1.11A2.839 2.839 0 0 1 0 9.39a2.645 2.645 0 0 1 .574-1.815 2.982 2.982 0 0 0 .835-2.238V5a4.418 4.418 0 0 1 1.008-3.03A5.555 5.555 0 0 1 6.641 0h.071A5.53 5.53 0 0 1 11 2.061 4.355 4.355 0 0 1 11.944 5v.334a3.054 3.054 0 0 0 .834 2.238 2.642 2.642 0 0 1 .574 1.814 2.838 2.838 0 0 1-.678 1.868 3.565 3.565 0 0 1-2.277 1.11c-1.234.1-2.469.194-3.72.194a32.741 32.741 0 0 1-3.721-.19z" style="fill:#3b3e4f" transform="translate(9.324 8.078)"/>
</svg>
