<svg data-name="Delete Attribute" xmlns="http://www.w3.org/2000/svg" width="32" height="32" viewBox="0 0 32 32">
    <circle data-name="Ellipse 9923" cx="16" cy="16" r="16" style="opacity:.2;fill:#3b3e4f"/>
    <g data-name="Iconly/Bold/Wallet">
        <path data-name="Wallet" d="M10.161 12H3.839a4.068 4.068 0 0 1-2.825-.941A3.455 3.455 0 0 1 0 8.441V3.559A3.455 3.455 0 0 1 1.014.941 4.068 4.068 0 0 1 3.839 0h6.321a4.052 4.052 0 0 1 2.825.944A3.5 3.5 0 0 1 14 3.588h-2.962v.023a2.575 2.575 0 0 0-1.759.678 2.215 2.215 0 0 0-.73 1.633 2.408 2.408 0 0 0 2.489 2.311H14v.208a3.455 3.455 0 0 1-1.014 2.618 4.068 4.068 0 0 1-2.825.941zM3.316 2.594a.519.519 0 0 0-.535.491.524.524 0 0 0 .535.5h3.952a.517.517 0 0 0 .535-.5.517.517 0 0 0-.535-.5zm10.161 4.645h-2.4a1.455 1.455 0 0 1-1.445-1.063 1.273 1.273 0 0 1 .3-1.1 1.493 1.493 0 0 1 1.1-.493h2.439a.506.506 0 0 1 .529.484v1.687a.514.514 0 0 1-.523.485zm-2.34-1.877a.544.544 0 0 0-.371.142.477.477 0 0 0-.158.349.524.524 0 0 0 .536.5h.23a.5.5 0 1 0 0-.994h-.237z" style="fill:#3b3e4f" transform="translate(9 10)"/>
    </g>
</svg>
