<svg data-name="Delete Attribute" xmlns="http://www.w3.org/2000/svg" width="32" height="32" viewBox="0 0 32 32">
    <circle data-name="Ellipse 9923" cx="16" cy="16" r="16" style="opacity:.2;fill:#3b3e4f"/>
    <g data-name="Component 319 – 110">
        <path data-name="Path 27094" d="M65.142 35.541h-6.5a3.409 3.409 0 0 1-3.742-3.757v-8.018A3.814 3.814 0 0 1 55.885 21a3.772 3.772 0 0 1 2.751-.986h6.506a3.405 3.405 0 0 1 3.732 3.749v8.018a3.8 3.8 0 0 1-.966 2.781 3.743 3.743 0 0 1-2.766.976m-6.358-4.862a.613.613 0 0 0-.012 1.226.641.641 0 0 0 .078 0h6.082a.613.613 0 0 0 0-1.219h-6.085a.578.578 0 0 0-.063 0m.063-3.537a.606.606 0 1 0 0 1.212h6.085a.606.606 0 0 0 0-1.212zm0-3.515v.008a.605.605 0 1 0 0 1.21h2.32a.609.609 0 0 0 0-1.219z" transform="translate(-45.89 -11.28)" style="fill:#3b3e4f"/>
    </g>
</svg>
