<svg xmlns="http://www.w3.org/2000/svg" xmlns:xlink="http://www.w3.org/1999/xlink" width="19" height="19" viewBox="0 0 19 19">
  <defs>
    <clipPath id="clip-path">
      <rect id="Rectangle_210" data-name="Rectangle 210" width="11" height="11" fill="#f8fafc" stroke="#707070" stroke-width="1"/>
    </clipPath>
  </defs>
  <g id="remove_text" data-name="remove text" transform="translate(-0.25)">
    <circle id="Ellipse_9976" data-name="Ellipse 9976" cx="9.5" cy="9.5" r="9.5" transform="translate(0.25)" fill="#747a9d"/>
    <g id="x" transform="translate(4.25 4)">
      <g id="Mask_Group_237" data-name="Mask Group 237" clip-path="url(#clip-path)">
        <g id="x-2" data-name="x" transform="translate(2.232 2.517)">
          <path id="Shape" d="M-.554,5.251A.445.445,0,0,1-.869,5.12a.446.446,0,0,1,0-.631L4.489-.869a.446.446,0,0,1,.631,0,.446.446,0,0,1,0,.631L-.238,5.12A.445.445,0,0,1-.554,5.251Z" transform="translate(1 1)" fill="#f8fafc"/>
          <path id="Shape-2" data-name="Shape" d="M4.8,5.251a.445.445,0,0,1-.316-.131L-.869-.238a.446.446,0,0,1,0-.631.446.446,0,0,1,.631,0L5.12,4.489a.446.446,0,0,1-.316.762Z" transform="translate(1 1)" fill="#f8fafc"/>
        </g>
      </g>
    </g>
  </g>
</svg>
