<svg xmlns="http://www.w3.org/2000/svg" width="241.156" height="244" viewBox="0 0 241.156 244">
    <defs>
        <clipPath id="93wki2om8a">
            <path data-name="Rectangle 2424" style="fill:none" d="M0 0h241.156v244H0z" />
        </clipPath>
        <clipPath id="nssnqa3mmb">
            <path data-name="Rectangle 2423" style="fill:none" d="M0 0h241.157v244H0z" />
        </clipPath>
        <clipPath id="74r9a3lukc">
            <path data-name="Rectangle 2396" style="fill:none" d="M0 0h24.427v15.167H0z" />
        </clipPath>
        <clipPath id="dqqoz17l0d">
            <path data-name="Rectangle 2397" style="fill:none" d="M0 0h20.249v17.129H0z" />
        </clipPath>
        <clipPath id="5b5jb2tw1e">
            <path data-name="Rectangle 2398" style="fill:none" d="M0 0h23.763v16.142H0z" />
        </clipPath>
        <clipPath id="bq0p3g467f">
            <path data-name="Rectangle 2399" style="fill:none" d="M0 0h22.95v17.148H0z" />
        </clipPath>
        <clipPath id="jmiz5ceorg">
            <path data-name="Rectangle 2400" style="fill:none" d="M0 0h12.489v12.489H0z" />
        </clipPath>
        <clipPath id="8gwbnn4f9h">
            <path data-name="Rectangle 2401" style="fill:none" d="M0 0h9.198v9.198H0z" />
        </clipPath>
        <clipPath id="4r8wfn2g3i">
            <path data-name="Rectangle 2402" style="fill:none" d="M0 0h10.615v31.541H0z" />
        </clipPath>
        <clipPath id="q1q00v3jfj">
            <path data-name="Rectangle 2403" style="fill:none" d="M0 0h7.637v7.118H0z" />
        </clipPath>
        <clipPath id="xcd13fig5k">
            <path data-name="Rectangle 2406" style="fill:none" d="M0 0h47.863v36.095H0z" />
        </clipPath>
        <clipPath id="wq4jg49csl">
            <path data-name="Rectangle 2407" style="fill:none" d="M0 0h28.525v22.14H0z" />
        </clipPath>
        <clipPath id="o1hguac3em">
            <path data-name="Rectangle 2409" style="fill:none" d="M0 0h15.293v33.19H0z" />
        </clipPath>
        <clipPath id="eddtawmdon">
            <path data-name="Rectangle 2410" style="fill:none" d="M0 0h23.774v37.598H0z" />
        </clipPath>
        <clipPath id="fgrdcwdm9o">
            <path data-name="Rectangle 2411" style="fill:none" d="M0 0h38.528v17.968H0z" />
        </clipPath>
        <clipPath id="b7fv69tr5p">
            <path data-name="Rectangle 2412" style="fill:none" d="M0 0h21.574v14.701H0z" />
        </clipPath>
        <clipPath id="i9qiyksisq">
            <path data-name="Rectangle 2413" style="fill:none" d="M0 0h15.903v4.027H0z" />
        </clipPath>
        <clipPath id="kcvaxhgv4r">
            <path data-name="Rectangle 2414" style="fill:none" d="M0 0h16.224v3.73H0z" />
        </clipPath>
        <clipPath id="nx992isa0s">
            <path data-name="Rectangle 2415" style="fill:none" d="M0 0h33.092v28.506H0z" />
        </clipPath>
        <clipPath id="ydzvrxxyut">
            <path data-name="Rectangle 2416" style="fill:none" d="M0 0h53.056v30.538H0z" />
        </clipPath>
        <clipPath id="xzdfry4whu">
            <path data-name="Rectangle 2417" style="fill:none" d="M0 0h42.988v70.555H0z" />
        </clipPath>
        <clipPath id="dihnsnu1gv">
            <path data-name="Rectangle 2419" style="fill:none" d="M0 0h65.211v10.477H0z" />
        </clipPath>
        <clipPath id="lwf9vbhx7w">
            <path data-name="Rectangle 2421" style="fill:none" d="M0 0h12.181v22.434H0z" />
        </clipPath>
        <clipPath id="ntqemyzvyx">
            <path data-name="Rectangle 2422" style="fill:none" d="M0 0h21.037v9.653H0z" />
        </clipPath>
    </defs>
    <g data-name="Group 16288" style="clip-path:url(#93wki2om8a)">
        <g data-name="Group 16287">
            <g data-name="Group 16286" style="clip-path:url(#nssnqa3mmb)">
                <path data-name="Path 27822"
                    d="M1515.078 2143.376c-20.492 0-37.1 2.555-37.1 5.7s16.612 5.705 37.1 5.705 37.1-2.554 37.1-5.705-16.612-5.7-37.1-5.7"
                    transform="translate(-1328.09 -1926.012)" style="fill:#fff3dd" />
                <path data-name="Path 27823"
                    d="M1350.042 2293.511c-20.492 0-37.1 2.554-37.1 5.7s16.612 5.705 37.1 5.705 37.1-2.554 37.1-5.705-16.612-5.7-37.1-5.7"
                    transform="translate(-1179.79 -2060.922)" style="fill:#fff3dd" />
                <path data-name="Path 27824"
                    d="M37.1 2153.2c-20.492 0-37.1 2.554-37.1 5.7s16.612 5.705 37.1 5.705 37.1-2.554 37.1-5.705-16.612-5.7-37.1-5.7"
                    transform="translate(0 -1934.838)" style="fill:#fff3dd" />
                <path data-name="Path 27825"
                    d="M356.579 293.239a42.815 42.815 0 0 1-9.419-20.523l-1.131-6.86a42.817 42.817 0 0 0-25.145-32.287l-25.206-10.982a42.817 42.817 0 0 0-36.228.946l-85.7 42.789a42.817 42.817 0 0 0-22.453 48.529l8.713 35.442a42.817 42.817 0 0 0 42.686 32.581l39.628-1.024a42.792 42.792 0 0 1 4.707.137l72.889 6.151a42.817 42.817 0 0 0 38.418-17.745l9.657-13.492A42.817 42.817 0 0 0 366 304.492z"
                    transform="translate(-134.835 -196.813)" style="fill:#fff3dd" />
                <path data-name="Path 27826" d="m1578.344 384.521.241-.417h-.484z"
                    transform="translate(-1418.063 -345.15)" style="fill:#fad6a2" />
                <path data-name="Path 27827" d="M1603.766 386.859v.269h.267z"
                    transform="translate(-1441.125 -347.627)" style="fill:#fad6a2" />
                <path data-name="Path 27828" d="m1639.293 277.563.264.456.263-.456z"
                    transform="translate(-1473.049 -249.415)" style="fill:#fad6a2" />
                <path data-name="Path 27829"
                    d="m1583.778 276.113-3.227-5.607-.264-.458-.263.459-3.227 5.622-3.22 5.626-.241.421h.483l2.6-.01v-.269l.268.268h-.267l.036 6.712.022 3.491.032 3.491c.018 2.327.048 4.654.077 6.981l.044 3.491.055 3.491.056-3.491.044-3.491c.029-2.327.06-4.654.077-6.981l.031-3.491.023-3.491.037-6.982v-.267h-.27l-2.387-.009-.241.417-.242-.419h.484l3.007-5.193 2.979-5.158-.264-.456h.527l-.263.456 2.978 5.143 3.009 5.182.479-.007-.239.42-.24-.412-2.256.034h-.268v.265l.037 6.982.023 3.491.031 3.491c.018 2.327.048 4.654.078 6.981l.044 3.491.056 3.491.056-3.491.044-3.491c.03-2.327.06-4.654.078-6.981l.031-3.491.023-3.491.036-6.714h-.265l.266-.269v.267l2.47-.018h.478l-.239-.416z"
                    transform="translate(-1413.779 -242.662)" style="fill:#fad6a2" />
                <path data-name="Path 27830" d="M1678.742 387.128h.264v-.267z"
                    transform="translate(-1508.497 -347.627)" style="fill:#fad6a2" />
                <path data-name="Path 27831" d="m1701.408 383.794-.479.007.239.412z"
                    transform="translate(-1528.434 -344.873)" style="fill:#fad6a2" />
                <path data-name="Path 27832" d="M1280.3 190.546v.269h.268z"
                    transform="translate(-1150.462 -171.223)" style="fill:#fad6a2" />
                <path data-name="Path 27833" d="m1236.036 188.209.241-.418h-.483z"
                    transform="translate(-1110.469 -168.746)" style="fill:#fad6a2" />
                <path data-name="Path 27834" d="m1339.438 7.517.264.456.263-.456z"
                    transform="translate(-1203.603 -6.755)" style="fill:#fad6a2" />
                <path data-name="Path 27835"
                    d="m1242.547.462-.264-.462-.263.458-10.753 18.725-.241.42h.483l4.515-.011v-.269l.268.268h-.267l.037 11.359.054 11.628.078 11.628.043 5.814.056 5.814.056-5.814.044-5.814.077-11.628.054-11.628.038-11.628v-.268h-.269l-4.3-.01-.241.418-.242-.419h.484l10.291-17.827-.264-.456h.527l-.263.456L1252.576 19l.478-.006-.239.42-.239-.413-4.076.056h-.267v.265l.038 11.628.054 11.628.078 11.628.044 5.814.056 5.814.056-5.814.044-5.814.078-11.628.054-11.628.036-11.361h-.265l.266-.269v.267l4.29-.039h.478l-.239-.415z"
                    transform="translate(-1106.185 -.004)" style="fill:#fad6a2" />
                <path data-name="Path 27836" d="m1444.008 187.277-.479.007.239.413z"
                    transform="translate(-1297.138 -168.285)" style="fill:#fad6a2" />
                <path data-name="Path 27837" d="M1403.391 190.816h.265v-.267z"
                    transform="translate(-1261.07 -171.223)" style="fill:#fad6a2" />
                <path data-name="Path 27838" d="m573.184 1032.614.264.456.263-.456z"
                    transform="translate(-515.056 -927.894)" style="fill:#fad6a2" />
                <path data-name="Path 27839" d="m469.782 1213.305.241-.418h-.484z"
                    transform="translate(-421.923 -1089.885)" style="fill:#fad6a2" />
                <path data-name="Path 27840" d="M514.046 1215.643v.269h.267z"
                    transform="translate(-461.916 -1092.362)" style="fill:#fad6a2" />
                <path data-name="Path 27841"
                    d="m476.292 1025.558-.264-.458-.263.458-10.753 18.726-.241.42h.484l4.514-.01v-.269l.268.268h-.267l.037 11.359.054 11.628.077 11.628.044 5.814.056 5.814.056-5.814.044-5.814.078-11.628.054-11.628.038-11.628v-.268h-.269l-4.3-.01-.241.418-.242-.419h.484l10.291-17.827-.264-.456h.527l-.263.456 10.292 17.781.478-.006-.239.42-.239-.413-4.076.056h-.267v.265l.038 11.628.054 11.628.078 11.628.044 5.814.056 5.814.056-5.814.044-5.814.078-11.628.054-11.628.037-11.361h-.265l.266-.269v.267l4.29-.039h.478l-.239-.415z"
                    transform="translate(-417.637 -921.143)" style="fill:#fad6a2" />
                <path data-name="Path 27842" d="m677.754 1212.374-.478.007.239.413z"
                    transform="translate(-608.592 -1089.425)" style="fill:#fad6a2" />
                <path data-name="Path 27843" d="M637.137 1215.911h.265v-.267z"
                    transform="translate(-572.524 -1092.362)" style="fill:#fad6a2" />
                <g data-name="Group 16222" style="opacity:.5">
                    <g data-name="Group 16221">
                        <g data-name="Group 16220" style="clip-path:url(#74r9a3lukc)"
                            transform="translate(199.868 152.997)">
                            <path data-name="Path 27844"
                                d="M1995.183 1519.867a1.656 1.656 0 0 0-2.106-1.007l-3.531 1.247-1.247-3.531a2.012 2.012 0 0 0-2.344-1.12l-3.531 1.247-1.247-3.531a2.013 2.013 0 0 0-2.344-1.121l-3.531 1.247-1.247-3.531a1.65 1.65 0 1 0-3.112 1.1l1.769 5.007a1.812 1.812 0 0 0 2.214 1.058l3.627-1.281 1.281 3.627a1.812 1.812 0 0 0 2.214 1.058l3.627-1.281 1.281 3.627a1.812 1.812 0 0 0 2.214 1.058l5.007-1.769a1.655 1.655 0 0 0 1.006-2.104z"
                                transform="translate(-1970.849 -1508.668)" style="fill:#fec337" />
                        </g>
                    </g>
                </g>
                <g data-name="Group 16225" style="opacity:.5">
                    <g data-name="Group 16224">
                        <g data-name="Group 16223" style="clip-path:url(#dqqoz17l0d)"
                            transform="translate(192.293 39.023)">
                            <path data-name="Path 27845"
                                d="M1915.048 384.814a1.543 1.543 0 0 0-1.712 1.341l-.42 3.464-3.464-.42a1.876 1.876 0 0 0-1.905 1.493l-.42 3.464-3.463-.42a1.875 1.875 0 0 0-1.905 1.493l-.42 3.463-3.464-.42a1.538 1.538 0 1 0-.37 3.053l4.911.6a1.689 1.689 0 0 0 1.8-1.41l.431-3.557 3.558.432a1.689 1.689 0 0 0 1.8-1.41l.432-3.557 3.557.432a1.689 1.689 0 0 0 1.8-1.41l.6-4.912a1.542 1.542 0 0 0-1.341-1.712"
                                transform="translate(-1896.15 -384.802)" style="fill:#fec337" />
                        </g>
                    </g>
                </g>
                <g data-name="Group 16228" style="opacity:.5">
                    <g data-name="Group 16227">
                        <g data-name="Group 16226" style="clip-path:url(#5b5jb2tw1e)"
                            transform="translate(45.859 28.105)">
                            <path data-name="Path 27846"
                                d="M474.449 286.074a1.812 1.812 0 0 0-2.144-1.193l-3.7 1.054-1.054-3.7a1.813 1.813 0 0 0-2.145-1.193l-3.7 1.054-1.054-3.7a1.813 1.813 0 0 0-2.145-1.193l-5.107 1.457a1.65 1.65 0 1 0 .9 3.174l3.6-1.026 1.026 3.6a2.013 2.013 0 0 0 2.27 1.263l3.6-1.026 1.026 3.6a2.013 2.013 0 0 0 2.27 1.263l3.6-1.026 1.026 3.6a1.65 1.65 0 1 0 3.175-.9z"
                                transform="translate(-452.204 -277.141)" style="fill:#fec337" />
                        </g>
                    </g>
                </g>
                <g data-name="Group 16231" style="opacity:.5">
                    <g data-name="Group 16230">
                        <g data-name="Group 16229" style="clip-path:url(#bq0p3g467f)"
                            transform="translate(25.629 146.979)">
                            <path data-name="Path 27847"
                                d="M274.367 1449.364a1.656 1.656 0 0 0-1.958 1.27l-.781 3.662-3.662-.781a2.013 2.013 0 0 0-2.18 1.414l-.786 3.661-3.662-.781a2.013 2.013 0 0 0-2.18 1.414l-.781 3.662-3.662-.781a1.651 1.651 0 0 0-.689 3.229l5.193 1.108a1.813 1.813 0 0 0 2.059-1.335l.8-3.762 3.762.8a1.813 1.813 0 0 0 2.059-1.335l.8-3.762 3.762.8a1.813 1.813 0 0 0 2.059-1.335l1.108-5.193a1.655 1.655 0 0 0-1.27-1.958"
                                transform="translate(-252.723 -1449.327)" style="fill:#fec337" />
                        </g>
                    </g>
                </g>
                <g data-name="Group 16234" style="opacity:.5">
                    <g data-name="Group 16233">
                        <g data-name="Group 16232" style="clip-path:url(#jmiz5ceorg)"
                            transform="translate(186.75 16.309)">
                            <path data-name="Path 27848"
                                d="M1847.738 160.823a6.244 6.244 0 1 0 6.244 6.244 6.244 6.244 0 0 0-6.244-6.244m0 9.2a2.954 2.954 0 1 1 2.954-2.954 2.954 2.954 0 0 1-2.954 2.954"
                                transform="translate(-1841.493 -160.823)" style="fill:#fec337" />
                        </g>
                    </g>
                </g>
                <g data-name="Group 16237" style="opacity:.5">
                    <g data-name="Group 16236">
                        <g data-name="Group 16235" style="clip-path:url(#8gwbnn4f9h)"
                            transform="translate(9.073 78.593)">
                            <path data-name="Path 27849"
                                d="M94.071 774.992a4.6 4.6 0 1 0 4.6 4.6 4.6 4.6 0 0 0-4.6-4.6m0 6.775a2.176 2.176 0 1 1 2.176-2.176 2.176 2.176 0 0 1-2.176 2.176"
                                transform="translate(-89.472 -774.992)" style="fill:#fec337" />
                        </g>
                    </g>
                </g>
                <path data-name="Path 27850"
                    d="M1034.4 950.806a20.634 20.634 0 0 1 1.554-3.519c.241-.384.376-.617.376-.617l-4.744-2.983c-.1.147-.193.3-.289.45a20.186 20.186 0 0 1-2.6 3.079c-3.681 3.608-11.078 8.459-23.31 6.79l-1.705.84 34.683 21.813.019-1.9c-6.805-10.3-5.635-19.073-3.979-23.952"
                    transform="translate(-901.893 -847.986)" style="fill:#fec337" />
                <g data-name="Group 16240" style="opacity:.5">
                    <g data-name="Group 16239">
                        <g data-name="Group 16238" style="clip-path:url(#4r8wfn2g3i)"
                            transform="translate(125.872 97.131)">
                            <path data-name="Path 27851"
                                d="M1247.825 963.483a20.616 20.616 0 0 1 1.554-3.519c.241-.384.376-.617.376-.617l-2.469-1.553-.685 1.076s-8.638 13.08-4.087 22.377l-.245 2.1 9.517 5.986.019-1.9c-6.8-10.3-5.635-19.073-3.979-23.952"
                                transform="translate(-1241.189 -957.794)" style="fill:#f27405" />
                        </g>
                    </g>
                </g>
                <g data-name="Group 16243" style="opacity:.5">
                    <g data-name="Group 16242">
                        <g data-name="Group 16241" style="clip-path:url(#q1q00v3jfj)"
                            transform="translate(126.8 95.701)">
                            <path data-name="Path 27852"
                                d="m1257.982 946.67-4.744-2.983c-.1.147-.192.3-.289.45a20.176 20.176 0 0 1-2.6 3.079 28.7 28.7 0 0 0 2.169 2.871h.006a28.712 28.712 0 0 0 3.527.712 20.658 20.658 0 0 1 1.554-3.519c.241-.384.376-.617.376-.617"
                                transform="translate(-1250.344 -943.687)" style="fill:#8d1c04" />
                        </g>
                    </g>
                </g>
                <path data-name="Path 27853"
                    d="M1266.506 512.94c.551-.9 1.038-1.737 1.458-2.486 1.291-2.3 1.958-3.787 1.958-3.787s-.076-.082-.221-.23q-1.1-1.14-2.237-2.213a76.271 76.271 0 0 0-4.907-4.272q-1.417-1.136-2.844-2.184a92.581 92.581 0 0 0-6.655-4.459 84.087 84.087 0 0 0-19.164-9.065l-.306-.1s-.955 1.162-2.352 3.191l-.564.834c-.622.931-1.308 2-2.022 3.2-4.956 8.29-11.238 22.4-6.587 35.222a26.276 26.276 0 0 0 3.034 5.906 28.537 28.537 0 0 0 1.859 2.425l.175.2h.006a28.55 28.55 0 0 0 2.882.595 27.226 27.226 0 0 0 17.627-3.34q1.248-.689 2.433-1.475a40.864 40.864 0 0 0 3.815-2.864q.732-.614 1.431-1.256a56.986 56.986 0 0 0 5.973-6.423q.573-.714 1.108-1.423a75.315 75.315 0 0 0 4.093-6z"
                    transform="translate(-1096.663 -435.049)" style="fill:#fec337" />
                <path data-name="Path 27854"
                    d="M1251.115 506.166s-16.97 22.772-11.687 37.765c0 0 5.56-27.4 22.507-32.824a29.067 29.067 0 0 0-10.82-4.941"
                    transform="translate(-1112.819 -454.835)" style="fill:#ffe1a4" />
                <path data-name="Path 27855"
                    d="M1479.43 723.741a9.186 9.186 0 0 0-3.6-4.138 8.7 8.7 0 0 0-6.4-1.289 8.24 8.24 0 0 0-4.186 2.474 12.528 12.528 0 0 0-2.039 2.919 14.944 14.944 0 0 0-.914 2.193 9.666 9.666 0 0 0-.4 1.613 4.716 4.716 0 0 0 .042 1.725 3.2 3.2 0 0 0 .738 1.421 2.381 2.381 0 0 0 1.317.771 1.527 1.527 0 0 0 .214.029 18.235 18.235 0 0 1 1.382-6.4 6.414 6.414 0 0 1 4.989-3.824 5.667 5.667 0 0 1 5.443 3.85 8.28 8.28 0 0 1-.929 6.875 15.835 15.835 0 0 1-5.092 4.953c-.106.07-.213.138-.32.206s-.214.136-.323.2-.2.126-.308.189q-.356.216-.719.421c-.094.054-.189.108-.285.16s-.221.123-.333.182q-.5.272-1.012.522-.136.069-.273.133-.336.164-.676.317c-.091.042-.182.084-.275.124-.139.063-.279.124-.419.184l-.256.109c-.095.041-.191.08-.288.119l-.07.029c-.094.039-.188.077-.284.113s-.215.086-.323.127l-.323.124q-.454.17-.913.33l-.394.134c-.109.038-.219.074-.331.109l-.25.081q-.2.066-.412.129l-.281.085c-.691.208-1.392.4-2.1.571l-.088.021c-.126.032-.253.062-.381.091l-.182.043-.366.083q-.51.114-1.022.217a70.793 70.793 0 0 1-1.352.252l-.346.059c-.23.039-.46.076-.691.111q-1.037.161-2.081.283-.231.028-.463.052c-.175.02-.349.039-.522.056l-.405.041-.116.011-.476.043c-.5.044-1 .083-1.495.116-.809.054-1.719.081-2.654.145-.652.044-1.314.106-1.962.209a7.943 7.943 0 0 0-3.633 1.366 3.834 3.834 0 0 0-1.046 3.37c.037.442.681 3.282 1.374 3.177a1.068 1.068 0 0 0 .376-.133 2.037 2.037 0 0 0 .829-1.492c.039-.292.05-.59.07-.886a3.314 3.314 0 0 1 .27-1.245 2.024 2.024 0 0 1 .414-.571 5.128 5.128 0 0 1 3.371-.932q.582-.016 1.164-.041a65.7 65.7 0 0 0 6.868-.646q.7-.105 1.4-.228 1.012-.175 2.017-.391a40.781 40.781 0 0 0 15.063-6.3 18.8 18.8 0 0 0 5.975-6.3 10.043 10.043 0 0 0 .7-8.451"
                    transform="translate(-1293.53 -645.317)" style="fill:#fec337" />
                <path data-name="Path 27856"
                    d="M1140.069 436.582a62.932 62.932 0 0 1-2.161-6.279q-.094-.335-.186-.671l-.09-.342q-.089-.336-.172-.674-.336-1.358-.591-2.731-.064-.342-.121-.683l-.057-.347a20.124 20.124 0 0 1-.1-.684q-.074-.515-.134-1.031-.12-1.033-.184-2.069c-.014-.23-.026-.459-.035-.689q-.035-.864-.027-1.728t.064-1.731q.044-.691.12-1.382.038-.346.084-.691a24.359 24.359 0 0 1 .331-1.917 17.637 17.637 0 0 1 .473-1.754l.089-.265c.039-.114.081-.229.124-.34.015-.042.03-.084.047-.125.052-.135.1-.267.162-.4l.086-.2.088-.2q.12-.258.25-.51a11.261 11.261 0 0 1 .608-1.034 8.581 8.581 0 0 1 4.917-3.658c.072-.018.145-.034.217-.049a6.287 6.287 0 0 1 .66-.106 5.874 5.874 0 0 1 .622-.033 5.987 5.987 0 0 1 1 .087q.247.041.49.1c.122.031.241.066.361.1l.119.04q.177.061.351.133a5.725 5.725 0 0 1 1.666 1.051c.087.079.172.162.252.247l.063.068a4.858 4.858 0 0 1 .338.409 4.382 4.382 0 0 1 .253.382q.082.139.157.284c.058.117.112.238.161.361a6.413 6.413 0 0 1-1.287 6.151 18.292 18.292 0 0 1-5.167 4.018c.037.063.076.123.118.18a2.824 2.824 0 0 0 2.867.9 6.337 6.337 0 0 0 2.853-1.77q.35-.337.684-.7a13.9 13.9 0 0 0 2.111-2.988 11.028 11.028 0 0 0 .476-1.043 8.291 8.291 0 0 0 .47-4.985 7.311 7.311 0 0 0-.31-.99 8.992 8.992 0 0 0-3.623-4.224 9.193 9.193 0 0 0-5.291-1.453 10.046 10.046 0 0 0-7.316 4.288 18.81 18.81 0 0 0-3.091 8.116c-1.531 9.2.817 18.679 4.627 27.194.585 1.307 1.174 2.939.286 4.062a6.75 6.75 0 0 1-1.775 1.23 1.743 1.743 0 0 0-.943 1.789c.207.67 3.046.019 3.46-.137a3.834 3.834 0 0 0 2.584-2.4c.562-2.646-1.073-5.807-2.023-8.179"
                    transform="translate(-1018.442 -359.985)" style="fill:#fec337" />
                <path data-name="Path 27857"
                    d="m1057.211 1001.775 4.392 2.762c7.361.069 14.807-9.274 14.807-9.274-7.133 8.068-19.2 6.511-19.2 6.511"
                    transform="translate(-949.997 -894.332)" style="fill:#ffe1a4" />
                <path data-name="Rectangle 2404" transform="rotate(-57.86 151.738 -41.513)"
                    style="fill:#ffe1a4" d="M0 0h1.463v5.033H0z" />
                <path data-name="Rectangle 2405" transform="rotate(-57.833 149.385 -35.496)"
                    style="fill:#ffe1a4" d="M0 0h3.539v40.972H0z" />
                <g data-name="Group 16246" style="opacity:.5">
                    <g data-name="Group 16245">
                        <g data-name="Group 16244" style="clip-path:url(#xcd13fig5k)"
                            transform="translate(125.396 64.903)">
                            <path data-name="Path 27858"
                                d="M1280.948 652.975c.551-.9 1.038-1.737 1.458-2.486 1.291-2.3 1.958-3.787 1.958-3.787s-.076-.082-.221-.23q-1.1-1.14-2.238-2.214a76.583 76.583 0 0 0-4.907-4.272 144.84 144.84 0 0 1-3.4 6.107 127.626 127.626 0 0 1-4.292 6.779c-6.712 9.863-16.263 20.508-25.8 19.612-.082-.007-.163-.016-.245-.025 0 0-.091-.041-.256-.127a16.664 16.664 0 0 1-2.255-1.465 22.878 22.878 0 0 1-4.243-4.237 26.267 26.267 0 0 0 3.034 5.906 28.326 28.326 0 0 0 1.859 2.425c.058.068.115.136.175.2h.006a28.557 28.557 0 0 0 2.882.595 27.225 27.225 0 0 0 17.627-3.34q1.248-.689 2.433-1.475a40.888 40.888 0 0 0 3.816-2.864q.732-.614 1.43-1.256a56.947 56.947 0 0 0 5.973-6.423q.573-.714 1.109-1.422a75.315 75.315 0 0 0 4.093-6z"
                                transform="translate(-1236.501 -639.986)" style="fill:#f27405" />
                        </g>
                    </g>
                </g>
                <g data-name="Group 16249" style="opacity:.5">
                    <g data-name="Group 16248">
                        <g data-name="Group 16247" style="clip-path:url(#wq4jg49csl)"
                            transform="translate(155.311 75.862)">
                            <path data-name="Path 27859"
                                d="M1558.955 750.626a6.434 6.434 0 0 0-5.751-2.5 5.667 5.667 0 0 1 5.443 3.85 8.28 8.28 0 0 1-.929 6.875 15.834 15.834 0 0 1-5.092 4.953 21.719 21.719 0 0 1-.643.406c-.108.064-.2.126-.308.189a25.93 25.93 0 0 1-1.004.581c-.096.052-.221.123-.333.182q-.5.272-1.012.522c-.09.045-.182.09-.273.133q-.336.164-.676.317l-.275.124c-.139.063-.279.124-.419.184l-.257.109c-.094.041-.19.08-.288.119l-.069.029-.284.114c-.095.038-.215.086-.323.127l-.323.124q-.454.17-.913.33c-.132.046-.263.091-.394.134l-.33.109-.25.081a24.79 24.79 0 0 1-.693.214q-1.037.312-2.1.571l-.088.021c-.126.032-.253.062-.381.091l-.183.043-.365.083q-.51.114-1.022.217c-.221.045-.442.086-.664.128s-.459.084-.689.125l-.345.059q-.345.058-.692.111-1.037.161-2.081.283-.231.028-.463.052c-.175.02-.349.039-.522.056-.135.014-.271.029-.406.041l-.116.011-.476.043q-.748.066-1.5.116a29.994 29.994 0 0 0 7.587-.013 30.92 30.92 0 0 0 1.984-.3 28.734 28.734 0 0 0 17.288-9.87s3.291-4.845.62-9.173"
                                transform="translate(-1531.475 -748.063)" style="fill:#f27405" />
                        </g>
                    </g>
                </g>
                <path data-name="Rectangle 2408" transform="rotate(-57.833 176.293 -50.36)"
                    style="fill:#fec337" d="M0 0h3.539v11.243H0z" />
                <g data-name="Group 16252" style="opacity:.5">
                    <g data-name="Group 16251">
                        <g data-name="Group 16250" style="clip-path:url(#o1hguac3em)"
                            transform="translate(116.621 43.402)">
                            <path data-name="Path 27860"
                                d="M1151.383 439.432a15.854 15.854 0 0 1 2.259-6.736 8.281 8.281 0 0 1 5.794-3.814 5.669 5.669 0 0 1 5.828 3.239 6.434 6.434 0 0 0-4.749-4.1c-5.058-.533-8 4.532-8 4.532-6.848 15.057 2.268 28.343 2.459 28.619-2.763-6.9-4.573-14.38-3.593-21.74"
                                transform="translate(-1149.971 -427.982)" style="fill:#f27405" />
                        </g>
                    </g>
                </g>
                <path data-name="Path 27861"
                    d="m723.86 1305.4-23.5 18.753-1.783-1.5-3.46-2.911-41.282-34.716 10.858-.516.056.052c1.417.06 2.861.119 4.312.177l-.137-.43 2.478-.118a4.192 4.192 0 0 1-.028.638c2.638.1 5.261.189 7.737.262l-.465-1.243 29.107-1.383 1.9 2.712 9.222 13.128z"
                    transform="translate(-587.526 -1152.41)" style="fill:#d3b4a3" />
                <g data-name="Group 16255" style="opacity:.37">
                    <g data-name="Group 16254">
                        <g data-name="Group 16253" style="clip-path:url(#eddtawmdon)"
                            transform="translate(107.576 132.77)">
                            <path data-name="Path 27862"
                                d="M1084.551 1322.336a54.941 54.941 0 0 1-3.056 8.811 32.793 32.793 0 0 1-16.032 15.131 8.172 8.172 0 0 1-1.214.408 2.908 2.908 0 0 1-2.11-.16 3.116 3.116 0 0 1-1.35-2.75 11.172 11.172 0 0 1 .038-1.572q.353-4.1.7-8.2a6.751 6.751 0 0 1 .523-2.449 7.4 7.4 0 0 1 1.692-1.979 38.781 38.781 0 0 0 9.439-14.569c.585-1.527 1.24-3.71 2.141-5.8z"
                                transform="translate(-1060.776 -1309.208)" style="fill:#4d1b1c" />
                        </g>
                    </g>
                </g>
                <path data-name="Path 27863"
                    d="M665.909 1393.851c-3.708-2.342-41.431-8.914-42.288-10.039-.411-.538-.586-14.245-.657-28.47-.077-15.678-.028-31.984-.028-31.984l-4.674-8.084-5.208-9.011-3.18-5.5c.255-1.491.512-2.964.759-4.322 1.643.081 3.8.189 6.285.305a1847.9 1847.9 0 0 0 12.641.553q1.154.047 2.312.09h.015c2.633.1 5.251.188 7.722.261 7.222.208 13.188.26 14.617-.065 0 0 9.949 23.973 10.424 26.817.023.139.064.189.12.158a1.752 1.752 0 0 0 .368-.694l.041 3.683.014 1.242.537 48.566z"
                    transform="translate(-548.024 -1164.963)" style="fill:#bf9e88" />
                <path data-name="Path 27864"
                    d="M1221.02 1339.908c-.284.664-62.073 11.144-65.389 8.842-.02-.013-.041-.028-.064-.041l-.652-58.864c4.6-3.056 10.649-3.606 16.28-3.981l38.565-2.572c2.3-.154 8.326.162 9.792-1.781.967-1.279.573-5.092-1.455-5.064l-36.347.528c-5.842.084-11.692.169-17.507.735-3.145.306-6.42.809-8.971 2.672a7.495 7.495 0 0 0-.457.363l-.022-2.024c1.8-4.668 7.887-31.011 10.126-32.254 2.559-1.422 37.716 3.317 41.886 3.222s25.114-1.515 25.4.379-11.372 26.681-11.751 29.356.853 59.82.568 60.482"
                    transform="translate(-1037.683 -1119.822)" style="fill:#d3b4a3" />
                <path data-name="Path 27865"
                    d="M1219.75 1549.51c-1.466 1.943-7.49 1.626-9.792 1.781l-38.565 2.572c-5.63.375-11.682.925-16.28 3.981l-.1-9.1c.148-.128.3-.249.458-.363 2.55-1.863 5.826-2.366 8.971-2.672 5.815-.566 11.666-.651 17.507-.735l36.347-.528c2.028-.029 2.422 3.784 1.455 5.063"
                    transform="translate(-1037.881 -1387.821)" style="fill:#d3b4a3" />
                <g data-name="Group 16258" style="opacity:.53">
                    <g data-name="Group 16257">
                        <g data-name="Group 16256" style="clip-path:url(#fgrdcwdm9o)"
                            transform="translate(134.482 166.12)">
                            <path data-name="Path 27866"
                                d="M1326.827 1640.854q18.61-1.212 37.2-2.786a90.586 90.586 0 0 1 .561 12.743.45.45 0 0 1-.492.532c-11.206 1.643-22.414 3.285-33.659 4.641a2.416 2.416 0 0 1-1.686-.208 2.345 2.345 0 0 1-.753-1.3 42.928 42.928 0 0 1-1.906-12.886z"
                                transform="translate(-1326.087 -1638.068)" style="fill:#fff" />
                        </g>
                    </g>
                </g>
                <path data-name="Path 27867"
                    d="M1230.9 2034.576a6.754 6.754 0 0 1 .906-.274c1.907-.391 21.043-1.949 20.976-3.667a80.609 80.609 0 0 1 .591-13.381l-25.645 2.807a.654.654 0 0 0-.289.078c-.2.128-.2.412-.178.647a88.953 88.953 0 0 1 .216 10.88c-.064 1.872-.74 3.073 1.229 3.364a4.727 4.727 0 0 0 2.2-.453"
                    transform="translate(-1102.793 -1812.679)" style="fill:#fff" />
                <g data-name="Group 16261" style="opacity:.58">
                    <g data-name="Group 16260">
                        <g data-name="Group 16259" style="clip-path:url(#b7fv69tr5p)"
                            transform="translate(126.732 206.123)">
                            <path data-name="Path 27868"
                                d="M1270.726 2042.523c.007.352.018.705.031 1.057.056 1.419-15.749 2.705-17.325 3.029a5.552 5.552 0 0 0-.748.226 3.9 3.9 0 0 1-1.813.375c-1.627-.242-1.068-1.233-1.015-2.779a80.41 80.41 0 0 0-.029-6.857q-.055-1.066-.148-2.131c-.017-.194-.017-.429.147-.534a.548.548 0 0 1 .239-.064l21.182-2.318a66.4 66.4 0 0 0-.519 10"
                                transform="translate(-1249.67 -2032.528)" style="fill:#fdb23d" />
                        </g>
                    </g>
                </g>
                <g data-name="Group 16264" style="opacity:.2">
                    <g data-name="Group 16263">
                        <g data-name="Group 16262" style="clip-path:url(#i9qiyksisq)"
                            transform="translate(154.951 204.109)">
                            <path data-name="Path 27869"
                                d="M1528.2 2016.633a4.261 4.261 0 0 0 1.906-.18c.681-.115 1.363-.213 2.041-.344q2.148-.412 4.3-.781c1.4-.24 2.789-.5 4.186-.726.667-.11 1.339-.248 2.011-.32.505-.054.96-.025 1.151-.585a.785.785 0 0 0-.54-.95 3.665 3.665 0 0 0-1.726.113q-.956.164-1.91.336c-1.352.244-2.7.493-4.047.781q-1.955.418-3.9.872c-.629.147-1.249.332-1.871.5a3.946 3.946 0 0 0-1.765.664.372.372 0 0 0 .162.615"
                                transform="translate(-1527.928 -2012.674)" style="fill:#4d1b1c" />
                        </g>
                    </g>
                </g>
                <g data-name="Group 16267" style="opacity:.2">
                    <g data-name="Group 16266">
                        <g data-name="Group 16265" style="clip-path:url(#kcvaxhgv4r)"
                            transform="translate(155.481 209.884)">
                            <path data-name="Path 27870"
                                d="M1533.568 2073.331a6.576 6.576 0 0 0 1.882-.324q.995-.206 2-.389c1.371-.251 2.744-.5 4.12-.722q2.025-.324 4.064-.548c.672-.073 1.345-.132 2.018-.2a2.092 2.092 0 0 0 1.65-.653.323.323 0 0 0 0-.446 1.863 1.863 0 0 0-1.65-.409c-.674.055-1.346.139-2.018.224q-2.109.267-4.2.632a54.699 54.699 0 0 0-4.083.856q-.982.25-1.958.524a6.6 6.6 0 0 0-2.025.686.419.419 0 0 0 .209.773"
                                transform="translate(-1533.163 -2069.61)" style="fill:#4d1b1c" />
                        </g>
                    </g>
                </g>
                <path data-name="Path 27871"
                    d="M705.285 1354.344q4.515 7.118 8.35 14.637a1.72 1.72 0 0 0 .625.789 1.873 1.873 0 0 0 1.286 0 10.526 10.526 0 0 1 5.751.362 102.5 102.5 0 0 1-5.744-17.763 47.348 47.348 0 0 0-9.287.233z"
                    transform="translate(-633.76 -1215.108)" style="fill:#9e7e6c" />
                <g data-name="Group 16270" style="opacity:.6">
                    <g data-name="Group 16269">
                        <g data-name="Group 16268" style="clip-path:url(#nx992isa0s)"
                            transform="translate(83.65 132.424)">
                            <path data-name="Path 27872"
                                d="m857.945 1332.968-.493 1.336c-4.063-6.109-8.406-12.1-13.736-17.137s-11.732-9.127-18.863-10.856c.069-.173.139-.345.21-.513 2.633.1 5.251.188 7.722.261 7.223.208 13.188.259 14.617-.065 0 0 9.949 23.973 10.424 26.816.023.139.064.19.12.158"
                                transform="translate(-824.853 -1305.798)" style="fill:#9e7e6c" />
                        </g>
                    </g>
                </g>
                <g data-name="Group 16273" style="opacity:.37">
                    <g data-name="Group 16272">
                        <g data-name="Group 16271" style="clip-path:url(#ydzvrxxyut)"
                            transform="translate(61.849 131.475)">
                            <path data-name="Path 27873"
                                d="M662.929 1326.976a198.445 198.445 0 0 1-25.535-2.2c-2.479-.375-11.979-1.8-14.458-1.424l-4.674-8.084-5.208-9.011-3.18-5.5c.255-1.491.512-2.964.759-4.322 1.643.081 3.8.189 6.285.305a59.291 59.291 0 0 0 4.217 6.366c16.393 21.58 41.8 23.866 41.8 23.866"
                                transform="translate(-609.873 -1296.438)" style="fill:#4d1b1c" />
                        </g>
                    </g>
                </g>
                <g data-name="Group 16276" style="opacity:.2">
                    <g data-name="Group 16275">
                        <g data-name="Group 16274" style="clip-path:url(#xzdfry4whu)"
                            transform="translate(74.896 158.332)">
                            <path data-name="Path 27874"
                                d="M781.522 1631.826c-3.708-2.342-41.431-8.913-42.288-10.039-.411-.538-.586-14.245-.657-28.471-.077-15.678-.028-31.984-.028-31.984 2.479-.372 11.979 1.048 14.458 1.424q7.352 1.113 14.773 1.675c3.743.283 8.649-.254 11.945 1.832-5.393-.448-10.88 1.708-16.144 2.574a27.509 27.509 0 0 0-14.63 6.96c-4.122 4.021-5.448 7.283-5.185 13.227a29.381 29.381 0 0 0 6.511 17.271c6.954 8.451 20.616 13.566 31.063 9.035z"
                                transform="translate(-738.534 -1561.271)" style="fill:#4d1b1c" />
                        </g>
                    </g>
                </g>
                <path data-name="Rectangle 2418" transform="rotate(-83.172 126.773 37.07)"
                    style="fill:#4d1b1c" d="M0 0h.287v41.471H0z" />
                <g data-name="Group 16279" style="opacity:.37">
                    <g data-name="Group 16278">
                        <g data-name="Group 16277" style="clip-path:url(#dihnsnu1gv)"
                            transform="translate(117.163 159.546)">
                            <path data-name="Path 27875"
                                d="M1220.522 1573.542a3.31 3.31 0 0 1-.5 1.849c-1.466 1.943-7.49 1.627-9.792 1.781l-38.565 2.572c-5.631.375-11.682.925-16.28 3.981l-.069-6.212v-.13c.795-.032 56.659-2.335 65.207-4.135v.294"
                                transform="translate(-1155.313 -1573.248)" style="fill:#4d1b1c" />
                        </g>
                    </g>
                </g>
                <path data-name="Path 27876"
                    d="M1220.918 1572.707c-.128.033-.273.065-.432.1-8.813 1.807-64.628 4.1-65.2 4.13l-.007-.158-.005-.13c.795-.032 56.659-2.335 65.207-4.135a8.69 8.69 0 0 0 .364-.083z"
                    transform="translate(-1038.114 -1412.965)" style="fill:#4d1b1c" />
                <path data-name="Rectangle 2420" transform="rotate(-.638 14758.046 -10426.616)"
                    style="fill:#4d1b1c" d="M0 0h.287v65.209H0z" />
                <g data-name="Group 16282" style="opacity:.5">
                    <g data-name="Group 16281">
                        <g data-name="Group 16280" style="clip-path:url(#lwf9vbhx7w)"
                            transform="translate(148.859 133.101)">
                            <path data-name="Path 27877"
                                d="M1467.858 1319.411a39.963 39.963 0 0 0 12.181 15.5 60.1 60.1 0 0 1-2.964-11.117 21.379 21.379 0 0 1 1.209-11.317 46.557 46.557 0 0 1-5.872 4.531z"
                                transform="translate(-1467.858 -1312.475)" style="fill:#9e7e6c" />
                        </g>
                    </g>
                </g>
                <g data-name="Group 16285" style="opacity:.15">
                    <g data-name="Group 16284">
                        <g data-name="Group 16283" style="clip-path:url(#ntqemyzvyx)"
                            transform="translate(126.782 211.17)">
                            <path data-name="Path 27878"
                                d="M1271.2 2088.3c.056 1.419-15.75 2.705-17.325 3.029a5.589 5.589 0 0 0-.748.226 3.9 3.9 0 0 1-1.813.375c-1.626-.241-1.068-1.233-1.015-2.778a80.409 80.409 0 0 0-.029-6.857q.149.222.316.427a10.183 10.183 0 0 0 3.7 2.6 27.3 27.3 0 0 0 16.879 1.917c.007.352.018.705.031 1.057"
                                transform="translate(-1250.163 -2082.298)" style="fill:#330406" />
                        </g>
                    </g>
                </g>
            </g>
        </g>
    </g>
</svg>
