<svg width="20" height="18" viewBox="0 0 20 18" fill="none" xmlns="http://www.w3.org/2000/svg">
<path d="M16 1L19 4L16 7M16 17L19 14L16 11" stroke="white" stroke-width="2" stroke-linecap="round" stroke-linejoin="round"/>
<path d="M1 4.00001H4C5.32608 4.00001 6.59785 4.52679 7.53553 5.46447C8.47322 6.40215 9 7.67392 9 9.00001C9 10.3261 9.52678 11.5979 10.4645 12.5355C11.4021 13.4732 12.6739 14 14 14H19M19 4.00001H14C12.9188 3.99827 11.8664 4.34859 11.002 4.99801M7 13.001C6.13494 13.6508 5.08192 14.0015 4 14H1" stroke="white" stroke-width="2" stroke-linecap="round" stroke-linejoin="round"/>
</svg>
