<svg xmlns="http://www.w3.org/2000/svg" width="24" height="6.545" viewBox="0 0 24 6.545">
    <path d="M2.273-1a3.361 3.361 0 0 1 3.272 3.436 3.361 3.361 0 0 1-3.272 3.436A3.361 3.361 0 0 1-1 2.436 3.361 3.361 0 0 1 2.273-1zm0 4.582a1.12 1.12 0 0 0 1.091-1.146 1.12 1.12 0 0 0-1.091-1.145 1.12 1.12 0 0 0-1.091 1.145 1.12 1.12 0 0 0 1.091 1.146z" transform="rotate(-90 7.554 -2.01)" style="fill:#3b3e4f"/>
    <path data-name="Oval" d="M2.273-1a3.361 3.361 0 0 1 3.272 3.436 3.361 3.361 0 0 1-3.272 3.436A3.361 3.361 0 0 1-1 2.436 3.361 3.361 0 0 1 2.273-1zm0 4.582a1.12 1.12 0 0 0 1.091-1.146 1.12 1.12 0 0 0-1.091-1.145 1.12 1.12 0 0 0-1.091 1.145 1.12 1.12 0 0 0 1.091 1.146z" transform="rotate(-90 3.273 2.272)" style="fill:#3b3e4f"/>
    <path data-name="Oval" d="M2.273-1a3.361 3.361 0 0 1 3.272 3.436 3.361 3.361 0 0 1-3.272 3.436A3.361 3.361 0 0 1-1 2.436 3.361 3.361 0 0 1 2.273-1zm0 4.582a1.12 1.12 0 0 0 1.091-1.146 1.12 1.12 0 0 0-1.091-1.145 1.12 1.12 0 0 0-1.091 1.145 1.12 1.12 0 0 0 1.091 1.146z" transform="rotate(-90 11.837 -6.292)" style="fill:#3b3e4f"/>
</svg>
